STARTFONT 2.1
COMMENT
COMMENT Converted from OpenType font "Ubuntu-B.otf" by "otf2bdf 3.0".
COMMENT
FONT -FreeType-Ubuntu-Bold-R-Normal--17-120-100-100-P-99-ISO10646-1
SIZE 12 100 100
FONTBOUNDINGBOX 61 20 -3 -4
STARTPROPERTIES 19
FOUNDRY "FreeType"
FAMILY_NAME "Ubuntu"
WEIGHT_NAME "Bold"
SLANT "R"
SETWIDTH_NAME "Normal"
ADD_STYLE_NAME ""
PIXEL_SIZE 17
POINT_SIZE 120
RESOLUTION_X 100
RESOLUTION_Y 100
SPACING "P"
AVERAGE_WIDTH 99
CHARSET_REGISTRY "ISO10646"
CHARSET_ENCODING "1"
FONT_ASCENT 15
FONT_DESCENT 3
COPYRIGHT "Copyright 2011 Canonical Ltd.  Licensed under the Ubuntu Font Licence 1.0"
_OTF_FONTFILE "Ubuntu-B.otf"
_OTF_PSNAME "Ubuntu-Bold"
ENDPROPERTIES
CHARS 1194
STARTCHAR 0000
ENCODING 0
SWIDTH 0 0
DWIDTH 0 0
BBX 0 0 0 0
BITMAP
ENDCHAR
STARTCHAR 0008
ENCODING 8
SWIDTH 0 0
DWIDTH 0 0
BBX 0 0 0 0
BITMAP
ENDCHAR
STARTCHAR 0009
ENCODING 9
SWIDTH 240 0
DWIDTH 4 0
BBX 0 0 0 0
BITMAP
ENDCHAR
STARTCHAR 000D
ENCODING 13
SWIDTH 240 0
DWIDTH 4 0
BBX 0 0 0 0
BITMAP
ENDCHAR
STARTCHAR 001D
ENCODING 29
SWIDTH 0 0
DWIDTH 0 0
BBX 0 0 0 0
BITMAP
ENDCHAR
STARTCHAR 0020
ENCODING 32
SWIDTH 240 0
DWIDTH 4 0
BBX 0 0 0 0
BITMAP
ENDCHAR
STARTCHAR 0021
ENCODING 33
SWIDTH 300 0
DWIDTH 5 0
BBX 3 12 1 0
BITMAP
E0
E0
E0
E0
E0
E0
E0
C0
00
C0
E0
E0
ENDCHAR
STARTCHAR 0022
ENCODING 34
SWIDTH 480 0
DWIDTH 8 0
BBX 6 5 1 8
BITMAP
DC
DC
DC
CC
CC
ENDCHAR
STARTCHAR 0023
ENCODING 35
SWIDTH 720 0
DWIDTH 12 0
BBX 10 12 1 0
BITMAP
1980
1980
3B80
FFC0
FFC0
3300
3300
FFC0
FFC0
6600
6600
6600
ENDCHAR
STARTCHAR 0024
ENCODING 36
SWIDTH 540 0
DWIDTH 9 0
BBX 8 15 1 -2
BITMAP
18
18
7E
FE
C0
E0
F8
7E
0E
07
87
FE
7C
18
18
ENDCHAR
STARTCHAR 0025
ENCODING 37
SWIDTH 900 0
DWIDTH 15 0
BBX 14 12 1 0
BITMAP
7060
F8C0
D8C0
8980
DB80
FB00
7778
06D8
0ECC
0CCC
18D8
1878
ENDCHAR
STARTCHAR 0026
ENCODING 38
SWIDTH 720 0
DWIDTH 12 0
BBX 10 12 1 0
BITMAP
3C00
7E00
6600
6600
7E00
3C00
7DC0
CF80
C780
C380
FFC0
7CC0
ENDCHAR
STARTCHAR 0027
ENCODING 39
SWIDTH 240 0
DWIDTH 4 0
BBX 2 5 1 8
BITMAP
C0
C0
C0
C0
C0
ENDCHAR
STARTCHAR 0028
ENCODING 40
SWIDTH 360 0
DWIDTH 6 0
BBX 5 16 1 -3
BITMAP
10
38
70
70
60
E0
E0
E0
E0
E0
E0
60
70
70
38
10
ENDCHAR
STARTCHAR 0029
ENCODING 41
SWIDTH 360 0
DWIDTH 6 0
BBX 5 16 0 -3
BITMAP
40
E0
60
70
30
38
38
38
38
38
38
30
70
70
E0
40
ENDCHAR
STARTCHAR 002A
ENCODING 42
SWIDTH 480 0
DWIDTH 8 0
BBX 7 7 1 5
BITMAP
30
30
FC
FE
38
7C
68
ENDCHAR
STARTCHAR 002B
ENCODING 43
SWIDTH 540 0
DWIDTH 9 0
BBX 8 8 1 1
BITMAP
18
18
18
FF
FF
18
18
18
ENDCHAR
STARTCHAR 002C
ENCODING 44
SWIDTH 240 0
DWIDTH 4 0
BBX 3 6 1 -3
BITMAP
E0
E0
C0
C0
C0
80
ENDCHAR
STARTCHAR 002D
ENCODING 45
SWIDTH 360 0
DWIDTH 6 0
BBX 5 2 0 4
BITMAP
F8
F8
ENDCHAR
STARTCHAR 002E
ENCODING 46
SWIDTH 240 0
DWIDTH 4 0
BBX 3 3 1 0
BITMAP
C0
E0
C0
ENDCHAR
STARTCHAR 002F
ENCODING 47
SWIDTH 420 0
DWIDTH 7 0
BBX 8 16 0 -3
BITMAP
07
06
0E
0C
0C
1C
18
18
38
30
30
70
60
E0
E0
C0
ENDCHAR
STARTCHAR 0030
ENCODING 48
SWIDTH 540 0
DWIDTH 9 0
BBX 8 12 1 0
BITMAP
38
7E
EE
C7
C7
C7
C7
C7
C7
E6
7E
7C
ENDCHAR
STARTCHAR 0031
ENCODING 49
SWIDTH 540 0
DWIDTH 9 0
BBX 6 12 1 0
BITMAP
0C
1C
7C
FC
5C
1C
1C
1C
1C
1C
1C
1C
ENDCHAR
STARTCHAR 0032
ENCODING 50
SWIDTH 540 0
DWIDTH 9 0
BBX 8 12 1 0
BITMAP
38
FE
CE
06
0E
0E
1C
38
70
E0
FF
FF
ENDCHAR
STARTCHAR 0033
ENCODING 51
SWIDTH 540 0
DWIDTH 9 0
BBX 8 12 0 0
BITMAP
3C
7E
67
07
07
3E
3F
07
03
03
7F
FE
ENDCHAR
STARTCHAR 0034
ENCODING 52
SWIDTH 540 0
DWIDTH 9 0
BBX 9 12 0 0
BITMAP
0700
0F00
0F00
1F00
3F00
3700
6700
FF80
FF80
0700
0700
0700
ENDCHAR
STARTCHAR 0035
ENCODING 53
SWIDTH 540 0
DWIDTH 9 0
BBX 7 12 1 0
BITMAP
7E
7E
7E
60
60
FC
FE
06
06
06
FE
FC
ENDCHAR
STARTCHAR 0036
ENCODING 54
SWIDTH 540 0
DWIDTH 9 0
BBX 8 12 1 0
BITMAP
06
3E
7C
60
E0
FE
FF
C7
C7
E7
FE
7C
ENDCHAR
STARTCHAR 0037
ENCODING 55
SWIDTH 540 0
DWIDTH 9 0
BBX 8 12 1 0
BITMAP
FF
FF
FF
0E
0C
1C
18
38
38
30
30
70
ENDCHAR
STARTCHAR 0038
ENCODING 56
SWIDTH 540 0
DWIDTH 9 0
BBX 8 12 1 0
BITMAP
3C
7E
E6
C7
E6
7E
7E
EF
C7
C7
FE
7C
ENDCHAR
STARTCHAR 0039
ENCODING 57
SWIDTH 540 0
DWIDTH 9 0
BBX 9 12 0 0
BITMAP
1C00
7F00
7700
6380
E380
7380
7F80
1F80
0700
0F00
7E00
7800
ENDCHAR
STARTCHAR 003A
ENCODING 58
SWIDTH 240 0
DWIDTH 4 0
BBX 3 9 1 0
BITMAP
C0
E0
C0
00
00
00
C0
E0
C0
ENDCHAR
STARTCHAR 003B
ENCODING 59
SWIDTH 240 0
DWIDTH 4 0
BBX 3 12 1 -3
BITMAP
C0
E0
C0
00
00
00
E0
E0
C0
C0
C0
80
ENDCHAR
STARTCHAR 003C
ENCODING 60
SWIDTH 540 0
DWIDTH 9 0
BBX 8 8 1 1
BITMAP
02
1E
7C
F0
F0
7C
1F
02
ENDCHAR
STARTCHAR 003D
ENCODING 61
SWIDTH 540 0
DWIDTH 9 0
BBX 8 6 1 2
BITMAP
FF
FF
00
00
FF
FF
ENDCHAR
STARTCHAR 003E
ENCODING 62
SWIDTH 540 0
DWIDTH 9 0
BBX 8 8 1 1
BITMAP
C0
F0
7C
0F
0F
7E
F0
C0
ENDCHAR
STARTCHAR 003F
ENCODING 63
SWIDTH 480 0
DWIDTH 8 0
BBX 7 12 0 0
BITMAP
38
FE
4E
06
0E
1C
38
30
00
30
38
38
ENDCHAR
STARTCHAR 0040
ENCODING 64
SWIDTH 960 0
DWIDTH 16 0
BBX 14 15 1 -3
BITMAP
0FC0
1FF0
3038
618C
CFCC
CCCC
DCCC
DCCC
DCCC
CCEC
CFF8
6120
3800
1FC0
07C0
ENDCHAR
STARTCHAR 0041
ENCODING 65
SWIDTH 720 0
DWIDTH 12 0
BBX 12 12 0 0
BITMAP
0600
0F00
0F00
1F80
1980
1980
39C0
3FC0
7FE0
7FE0
6060
E070
ENDCHAR
STARTCHAR 0042
ENCODING 66
SWIDTH 660 0
DWIDTH 11 0
BBX 9 12 1 0
BITMAP
7C00
FF00
E780
E380
E380
FF00
FF80
E380
E180
E380
FF80
FF00
ENDCHAR
STARTCHAR 0043
ENCODING 67
SWIDTH 660 0
DWIDTH 11 0
BBX 9 12 1 0
BITMAP
0F00
3F80
7F80
E000
E000
E000
E000
E000
E000
F080
7F80
3F80
ENDCHAR
STARTCHAR 0044
ENCODING 68
SWIDTH 720 0
DWIDTH 12 0
BBX 10 12 1 0
BITMAP
7C00
FF00
FF80
E1C0
E1C0
E0C0
E0C0
E0C0
E1C0
E3C0
FF80
FE00
ENDCHAR
STARTCHAR 0045
ENCODING 69
SWIDTH 600 0
DWIDTH 10 0
BBX 9 12 1 0
BITMAP
FF00
FF00
FF00
E000
E000
FF00
FF00
E000
E000
E000
FF80
FF80
ENDCHAR
STARTCHAR 0046
ENCODING 70
SWIDTH 600 0
DWIDTH 10 0
BBX 8 12 1 0
BITMAP
FF
FF
FF
E0
E0
FF
FF
E0
E0
E0
E0
E0
ENDCHAR
STARTCHAR 0047
ENCODING 71
SWIDTH 720 0
DWIDTH 12 0
BBX 10 12 1 0
BITMAP
0F00
3F80
7980
E000
E000
E000
E1C0
E1C0
E1C0
71C0
7FC0
3FC0
ENDCHAR
STARTCHAR 0048
ENCODING 72
SWIDTH 720 0
DWIDTH 12 0
BBX 10 12 1 0
BITMAP
E1C0
E1C0
E1C0
E1C0
E1C0
FFC0
FFC0
E1C0
E1C0
E1C0
E1C0
E1C0
ENDCHAR
STARTCHAR 0049
ENCODING 73
SWIDTH 300 0
DWIDTH 5 0
BBX 3 12 1 0
BITMAP
E0
E0
E0
E0
E0
E0
E0
E0
E0
E0
E0
E0
ENDCHAR
STARTCHAR 004A
ENCODING 74
SWIDTH 540 0
DWIDTH 9 0
BBX 8 12 0 0
BITMAP
07
07
07
07
07
07
07
07
07
07
7E
FC
ENDCHAR
STARTCHAR 004B
ENCODING 75
SWIDTH 660 0
DWIDTH 11 0
BBX 10 12 1 0
BITMAP
E1C0
E380
E700
EE00
FC00
F800
FC00
FE00
EF00
E780
E380
E1C0
ENDCHAR
STARTCHAR 004C
ENCODING 76
SWIDTH 540 0
DWIDTH 9 0
BBX 8 12 1 0
BITMAP
E0
E0
E0
E0
E0
E0
E0
E0
E0
E0
FF
FF
ENDCHAR
STARTCHAR 004D
ENCODING 77
SWIDTH 900 0
DWIDTH 15 0
BBX 13 12 1 0
BITMAP
6030
7070
7070
78F0
F8F0
FDF8
EDB8
EFB8
E738
E738
E238
E038
ENDCHAR
STARTCHAR 004E
ENCODING 78
SWIDTH 780 0
DWIDTH 13 0
BBX 10 12 1 0
BITMAP
C0C0
E0C0
F0C0
F8C0
FCC0
ECC0
E6C0
E7C0
E3C0
E1C0
E1C0
E0C0
ENDCHAR
STARTCHAR 004F
ENCODING 79
SWIDTH 780 0
DWIDTH 13 0
BBX 11 12 1 0
BITMAP
0F00
3F80
7BC0
E0E0
E0E0
E060
E060
E060
E0E0
71E0
7FC0
1F80
ENDCHAR
STARTCHAR 0050
ENCODING 80
SWIDTH 660 0
DWIDTH 11 0
BBX 9 12 1 0
BITMAP
7C00
FF00
FF80
E380
E380
E380
FF80
FE00
E000
E000
E000
E000
ENDCHAR
STARTCHAR 0051
ENCODING 81
SWIDTH 780 0
DWIDTH 13 0
BBX 11 15 1 -3
BITMAP
0F00
3F80
7BC0
E0E0
E0E0
E060
E060
E060
E0E0
71E0
7FC0
1F80
0700
07E0
01C0
ENDCHAR
STARTCHAR 0052
ENCODING 82
SWIDTH 660 0
DWIDTH 11 0
BBX 10 12 1 0
BITMAP
7C00
FF00
FF80
E380
E380
E780
FF00
FE00
E700
E700
E380
E1C0
ENDCHAR
STARTCHAR 0053
ENCODING 83
SWIDTH 600 0
DWIDTH 10 0
BBX 8 12 1 0
BITMAP
3C
7E
E6
C0
E0
FC
3E
0F
07
87
FF
FE
ENDCHAR
STARTCHAR 0054
ENCODING 84
SWIDTH 600 0
DWIDTH 10 0
BBX 10 12 0 0
BITMAP
FFC0
FFC0
FFC0
0C00
0C00
0C00
0C00
0C00
0C00
0C00
0C00
0C00
ENDCHAR
STARTCHAR 0055
ENCODING 85
SWIDTH 720 0
DWIDTH 12 0
BBX 10 12 1 0
BITMAP
E1C0
E1C0
E1C0
E1C0
E1C0
E1C0
E1C0
E1C0
E1C0
E380
7F80
3F00
ENDCHAR
STARTCHAR 0056
ENCODING 86
SWIDTH 720 0
DWIDTH 12 0
BBX 12 12 0 0
BITMAP
E070
6060
70E0
70E0
30C0
39C0
39C0
1980
1F80
0F00
0F00
0700
ENDCHAR
STARTCHAR 0057
ENCODING 87
SWIDTH 960 0
DWIDTH 16 0
BBX 15 12 0 0
BITMAP
E006
6006
718E
73CE
73CE
73CC
36CC
3E7C
3E7C
1E78
1C38
1C38
ENDCHAR
STARTCHAR 0058
ENCODING 88
SWIDTH 660 0
DWIDTH 11 0
BBX 11 12 0 0
BITMAP
F0E0
71C0
39C0
3B80
1F00
0F00
0F00
1F00
3B80
39C0
71C0
E0E0
ENDCHAR
STARTCHAR 0059
ENCODING 89
SWIDTH 660 0
DWIDTH 11 0
BBX 11 12 0 0
BITMAP
E0E0
70C0
71C0
3980
3B80
1F00
0E00
0E00
0E00
0E00
0E00
0E00
ENDCHAR
STARTCHAR 005A
ENCODING 90
SWIDTH 600 0
DWIDTH 10 0
BBX 9 12 1 0
BITMAP
FF00
FF00
FF00
0E00
0E00
1C00
3800
7000
7000
E000
FF80
FF80
ENDCHAR
STARTCHAR 005B
ENCODING 91
SWIDTH 360 0
DWIDTH 6 0
BBX 5 16 1 -3
BITMAP
F8
F8
E0
E0
E0
E0
E0
E0
E0
E0
E0
E0
E0
E0
F8
F8
ENDCHAR
STARTCHAR 005C
ENCODING 92
SWIDTH 420 0
DWIDTH 7 0
BBX 7 16 0 -3
BITMAP
C0
E0
E0
60
70
70
30
38
18
18
1C
0C
0C
0E
06
06
ENDCHAR
STARTCHAR 005D
ENCODING 93
SWIDTH 360 0
DWIDTH 6 0
BBX 5 16 0 -3
BITMAP
F8
F8
38
38
38
38
38
38
38
38
38
38
38
38
F8
F8
ENDCHAR
STARTCHAR 005E
ENCODING 94
SWIDTH 540 0
DWIDTH 9 0
BBX 8 7 1 5
BITMAP
18
38
7C
7E
E6
C7
C2
ENDCHAR
STARTCHAR 005F
ENCODING 95
SWIDTH 480 0
DWIDTH 8 0
BBX 8 2 0 -3
BITMAP
FF
FF
ENDCHAR
STARTCHAR 0060
ENCODING 96
SWIDTH 300 0
DWIDTH 5 0
BBX 3 3 1 10
BITMAP
C0
C0
60
ENDCHAR
STARTCHAR 0061
ENCODING 97
SWIDTH 540 0
DWIDTH 9 0
BBX 7 9 1 0
BITMAP
FC
7E
0E
06
FE
C6
C6
FE
7E
ENDCHAR
STARTCHAR 0062
ENCODING 98
SWIDTH 600 0
DWIDTH 10 0
BBX 8 13 1 0
BITMAP
E0
E0
E0
E0
FC
FE
E7
E3
E3
E3
E7
FF
FC
ENDCHAR
STARTCHAR 0063
ENCODING 99
SWIDTH 480 0
DWIDTH 8 0
BBX 7 9 1 0
BITMAP
3E
7C
E0
C0
C0
C0
E0
FE
3E
ENDCHAR
STARTCHAR 0064
ENCODING 100
SWIDTH 600 0
DWIDTH 10 0
BBX 8 13 1 0
BITMAP
07
07
07
07
3F
7F
E7
C7
C7
C7
E7
7F
3F
ENDCHAR
STARTCHAR 0065
ENCODING 101
SWIDTH 600 0
DWIDTH 10 0
BBX 8 9 1 0
BITMAP
3C
7E
E7
C3
FF
C0
E0
7E
3E
ENDCHAR
STARTCHAR 0066
ENCODING 102
SWIDTH 420 0
DWIDTH 7 0
BBX 6 13 1 0
BITMAP
3C
7C
E0
E0
FC
FC
E0
E0
E0
E0
E0
E0
E0
ENDCHAR
STARTCHAR 0067
ENCODING 103
SWIDTH 600 0
DWIDTH 10 0
BBX 8 12 1 -3
BITMAP
3F
7F
E7
C7
C7
C7
FF
7F
07
07
FE
FC
ENDCHAR
STARTCHAR 0068
ENCODING 104
SWIDTH 600 0
DWIDTH 10 0
BBX 8 13 1 0
BITMAP
E0
E0
E0
E0
FC
FE
E7
E7
E7
E7
E7
E7
E7
ENDCHAR
STARTCHAR 0069
ENCODING 105
SWIDTH 300 0
DWIDTH 5 0
BBX 3 13 1 0
BITMAP
40
E0
E0
00
E0
E0
E0
E0
E0
E0
E0
E0
E0
ENDCHAR
STARTCHAR 006A
ENCODING 106
SWIDTH 300 0
DWIDTH 5 0
BBX 5 16 -1 -3
BITMAP
10
38
38
00
38
38
38
38
38
38
38
38
38
38
F0
F0
ENDCHAR
STARTCHAR 006B
ENCODING 107
SWIDTH 600 0
DWIDTH 10 0
BBX 8 13 1 0
BITMAP
E0
E0
E0
E0
E7
EE
FC
F8
F8
FC
EE
E7
E7
ENDCHAR
STARTCHAR 006C
ENCODING 108
SWIDTH 300 0
DWIDTH 5 0
BBX 4 13 1 0
BITMAP
E0
E0
E0
E0
E0
E0
E0
E0
E0
E0
E0
F0
70
ENDCHAR
STARTCHAR 006D
ENCODING 109
SWIDTH 840 0
DWIDTH 14 0
BBX 12 9 1 0
BITMAP
FDE0
FFF0
E670
E630
E630
E630
E630
E630
E630
ENDCHAR
STARTCHAR 006E
ENCODING 110
SWIDTH 600 0
DWIDTH 10 0
BBX 8 9 1 0
BITMAP
FC
FE
E7
E7
E7
E7
E7
E7
E7
ENDCHAR
STARTCHAR 006F
ENCODING 111
SWIDTH 600 0
DWIDTH 10 0
BBX 8 9 1 0
BITMAP
3C
7E
E7
C3
C3
C3
E7
7F
3E
ENDCHAR
STARTCHAR 0070
ENCODING 112
SWIDTH 600 0
DWIDTH 10 0
BBX 8 12 1 -3
BITMAP
FC
FE
E7
E3
E3
E3
E7
FF
FE
E0
E0
E0
ENDCHAR
STARTCHAR 0071
ENCODING 113
SWIDTH 600 0
DWIDTH 10 0
BBX 8 12 1 -3
BITMAP
3F
7F
E7
C7
C7
C7
E7
FF
7F
07
07
07
ENDCHAR
STARTCHAR 0072
ENCODING 114
SWIDTH 420 0
DWIDTH 7 0
BBX 6 9 1 0
BITMAP
7C
FC
E0
E0
E0
E0
E0
E0
E0
ENDCHAR
STARTCHAR 0073
ENCODING 115
SWIDTH 480 0
DWIDTH 8 0
BBX 6 9 1 0
BITMAP
7C
FC
C0
E0
78
3C
0C
FC
FC
ENDCHAR
STARTCHAR 0074
ENCODING 116
SWIDTH 420 0
DWIDTH 7 0
BBX 6 11 1 0
BITMAP
E0
E0
FC
FC
E0
E0
E0
E0
E0
FC
7C
ENDCHAR
STARTCHAR 0075
ENCODING 117
SWIDTH 600 0
DWIDTH 10 0
BBX 8 9 1 0
BITMAP
E7
E7
E7
E7
E7
E7
E7
7F
7F
ENDCHAR
STARTCHAR 0076
ENCODING 118
SWIDTH 540 0
DWIDTH 9 0
BBX 9 9 0 0
BITMAP
E380
6380
6300
7700
3700
3600
3E00
1C00
1C00
ENDCHAR
STARTCHAR 0077
ENCODING 119
SWIDTH 780 0
DWIDTH 13 0
BBX 13 9 0 0
BITMAP
E338
6738
6730
7730
75F0
3DE0
3DE0
38E0
18C0
ENDCHAR
STARTCHAR 0078
ENCODING 120
SWIDTH 540 0
DWIDTH 9 0
BBX 9 9 0 0
BITMAP
E380
7300
3600
1E00
1C00
3E00
3600
7300
E380
ENDCHAR
STARTCHAR 0079
ENCODING 121
SWIDTH 540 0
DWIDTH 9 0
BBX 9 12 0 -3
BITMAP
E380
6380
6300
7700
3700
3600
3E00
1C00
1C00
1800
F800
F000
ENDCHAR
STARTCHAR 007A
ENCODING 122
SWIDTH 480 0
DWIDTH 8 0
BBX 7 9 1 0
BITMAP
FE
FE
1C
18
30
70
E0
FE
FE
ENDCHAR
STARTCHAR 007B
ENCODING 123
SWIDTH 360 0
DWIDTH 6 0
BBX 5 16 1 -3
BITMAP
38
78
60
60
60
60
60
E0
E0
60
60
60
60
60
78
38
ENDCHAR
STARTCHAR 007C
ENCODING 124
SWIDTH 300 0
DWIDTH 5 0
BBX 3 16 1 -3
BITMAP
E0
E0
E0
E0
E0
E0
E0
E0
E0
E0
E0
E0
E0
E0
E0
E0
ENDCHAR
STARTCHAR 007D
ENCODING 125
SWIDTH 360 0
DWIDTH 6 0
BBX 6 16 0 -3
BITMAP
E0
F0
30
30
30
30
30
3C
3C
30
30
30
30
30
F0
E0
ENDCHAR
STARTCHAR 007E
ENCODING 126
SWIDTH 540 0
DWIDTH 9 0
BBX 8 4 1 3
BITMAP
62
FB
FE
8C
ENDCHAR
STARTCHAR 00A0
ENCODING 160
SWIDTH 240 0
DWIDTH 4 0
BBX 0 0 0 0
BITMAP
ENDCHAR
STARTCHAR 00A1
ENCODING 161
SWIDTH 300 0
DWIDTH 5 0
BBX 3 12 1 -3
BITMAP
C0
E0
E0
00
C0
E0
E0
E0
E0
E0
E0
E0
ENDCHAR
STARTCHAR 00A2
ENCODING 162
SWIDTH 540 0
DWIDTH 9 0
BBX 7 14 1 -2
BITMAP
18
18
18
3E
7C
E0
C0
C0
E0
FE
7E
18
18
18
ENDCHAR
STARTCHAR 00A3
ENCODING 163
SWIDTH 540 0
DWIDTH 9 0
BBX 8 12 0 0
BITMAP
0F
1F
39
30
30
FE
FE
30
30
30
3F
7F
ENDCHAR
STARTCHAR 00A4
ENCODING 164
SWIDTH 540 0
DWIDTH 9 0
BBX 9 8 0 2
BITMAP
0100
FF80
7F00
7300
6300
3700
7F80
6100
ENDCHAR
STARTCHAR 00A5
ENCODING 165
SWIDTH 540 0
DWIDTH 9 0
BBX 10 12 0 0
BITMAP
E1C0
E380
7380
7700
3F00
1E00
7F00
1C00
7F00
7F00
1C00
1C00
ENDCHAR
STARTCHAR 00A6
ENCODING 166
SWIDTH 300 0
DWIDTH 5 0
BBX 3 16 1 -3
BITMAP
E0
E0
E0
E0
E0
E0
E0
00
00
E0
E0
E0
E0
E0
E0
E0
ENDCHAR
STARTCHAR 00A7
ENCODING 167
SWIDTH 540 0
DWIDTH 9 0
BBX 7 14 1 -2
BITMAP
3C
FE
E4
E0
78
FE
CE
C6
FC
7C
0E
8E
FC
78
ENDCHAR
STARTCHAR 00A8
ENCODING 168
SWIDTH 540 0
DWIDTH 9 0
BBX 7 3 1 10
BITMAP
44
EE
6C
ENDCHAR
STARTCHAR 00A9
ENCODING 169
SWIDTH 780 0
DWIDTH 13 0
BBX 11 12 1 0
BITMAP
0F00
3F80
60C0
CF60
DE60
D820
D820
D820
CF60
6060
71C0
1F80
ENDCHAR
STARTCHAR 00AA
ENCODING 170
SWIDTH 420 0
DWIDTH 7 0
BBX 6 7 0 5
BITMAP
78
7C
0C
7C
CC
FC
7C
ENDCHAR
STARTCHAR 00AB
ENCODING 171
SWIDTH 600 0
DWIDTH 10 0
BBX 9 8 0 1
BITMAP
1100
3980
3380
7700
E700
7300
3380
1980
ENDCHAR
STARTCHAR 00AC
ENCODING 172
SWIDTH 540 0
DWIDTH 9 0
BBX 8 6 1 1
BITMAP
FF
FF
07
07
07
07
ENDCHAR
STARTCHAR 00AD
ENCODING 173
SWIDTH 360 0
DWIDTH 6 0
BBX 5 2 0 4
BITMAP
F8
F8
ENDCHAR
STARTCHAR 00AE
ENCODING 174
SWIDTH 780 0
DWIDTH 13 0
BBX 11 12 1 0
BITMAP
0F00
3F80
60C0
DE60
DF60
DB20
DE20
DB20
DB60
6060
71C0
1F80
ENDCHAR
STARTCHAR 00AF
ENCODING 175
SWIDTH 360 0
DWIDTH 6 0
BBX 6 2 0 10
BITMAP
FC
FC
ENDCHAR
STARTCHAR 00B0
ENCODING 176
SWIDTH 360 0
DWIDTH 6 0
BBX 6 5 0 8
BITMAP
78
78
CC
FC
78
ENDCHAR
STARTCHAR 00B1
ENCODING 177
SWIDTH 540 0
DWIDTH 9 0
BBX 8 10 1 0
BITMAP
18
18
FF
FF
FF
18
18
00
FF
FF
ENDCHAR
STARTCHAR 00B2
ENCODING 178
SWIDTH 360 0
DWIDTH 6 0
BBX 5 7 0 5
BITMAP
70
F8
18
38
70
78
78
ENDCHAR
STARTCHAR 00B3
ENCODING 179
SWIDTH 360 0
DWIDTH 6 0
BBX 5 7 0 5
BITMAP
70
78
18
38
18
58
F8
ENDCHAR
STARTCHAR 00B4
ENCODING 180
SWIDTH 300 0
DWIDTH 5 0
BBX 3 3 1 10
BITMAP
60
E0
C0
ENDCHAR
STARTCHAR 00B5
ENCODING 181
SWIDTH 600 0
DWIDTH 10 0
BBX 8 12 1 -3
BITMAP
E7
E7
E7
E7
E7
E7
E7
FF
FF
E0
E0
E0
ENDCHAR
STARTCHAR 00B6
ENCODING 182
SWIDTH 720 0
DWIDTH 12 0
BBX 10 15 1 -3
BITMAP
1F00
7FC0
FDC0
FDC0
FDC0
FDC0
FDC0
3DC0
1DC0
1DC0
1DC0
1DC0
1DC0
1DC0
1DC0
ENDCHAR
STARTCHAR 00B7
ENCODING 183
SWIDTH 240 0
DWIDTH 4 0
BBX 3 3 1 3
BITMAP
E0
E0
C0
ENDCHAR
STARTCHAR 00B8
ENCODING 184
SWIDTH 300 0
DWIDTH 5 0
BBX 3 4 1 -4
BITMAP
60
20
E0
C0
ENDCHAR
STARTCHAR 00B9
ENCODING 185
SWIDTH 360 0
DWIDTH 6 0
BBX 4 7 1 5
BITMAP
30
F0
F0
30
30
30
30
ENDCHAR
STARTCHAR 00BA
ENCODING 186
SWIDTH 480 0
DWIDTH 8 0
BBX 6 7 1 5
BITMAP
70
F8
CC
8C
CC
FC
78
ENDCHAR
STARTCHAR 00BB
ENCODING 187
SWIDTH 600 0
DWIDTH 10 0
BBX 8 8 1 1
BITMAP
44
CE
E6
77
73
67
EE
CC
ENDCHAR
STARTCHAR 00BC
ENCODING 188
SWIDTH 900 0
DWIDTH 15 0
BBX 13 12 1 0
BITMAP
20C0
E1C0
E180
6380
6300
6718
6638
0E78
0CD8
1CF8
18F8
3818
ENDCHAR
STARTCHAR 00BD
ENCODING 189
SWIDTH 900 0
DWIDTH 15 0
BBX 13 12 1 0
BITMAP
20C0
E180
E180
6300
6700
6670
6EF8
0C18
1C30
1860
38F8
30F8
ENDCHAR
STARTCHAR 00BE
ENCODING 190
SWIDTH 900 0
DWIDTH 15 0
BBX 14 12 0 0
BITMAP
7070
7860
18E0
38C0
19C0
598C
FB9C
033C
076C
067C
0E7C
0C0C
ENDCHAR
STARTCHAR 00BF
ENCODING 191
SWIDTH 480 0
DWIDTH 8 0
BBX 7 12 0 -3
BITMAP
18
1C
1C
00
18
18
38
70
60
E0
7E
7E
ENDCHAR
STARTCHAR 00C0
ENCODING 192
SWIDTH 720 0
DWIDTH 12 0
BBX 12 16 0 0
BITMAP
0400
0E00
0700
0200
0600
0F00
0F00
1F80
1980
1980
39C0
3FC0
7FE0
7FE0
6060
E070
ENDCHAR
STARTCHAR 00C1
ENCODING 193
SWIDTH 720 0
DWIDTH 12 0
BBX 12 16 0 0
BITMAP
0200
0700
0E00
0000
0600
0F00
0F00
1F80
1980
1980
39C0
3FC0
7FE0
7FE0
6060
E070
ENDCHAR
STARTCHAR 00C2
ENCODING 194
SWIDTH 720 0
DWIDTH 12 0
BBX 12 15 0 1
BITMAP
0600
1F80
0000
0600
0F00
0F00
1F80
1980
1980
39C0
3FC0
7FE0
7FE0
6060
E070
ENDCHAR
STARTCHAR 00C3
ENCODING 195
SWIDTH 720 0
DWIDTH 12 0
BBX 12 15 0 0
BITMAP
0F80
1F80
0000
0600
0F00
0F00
1F80
1980
1980
39C0
3FC0
7FE0
7FE0
6060
E070
ENDCHAR
STARTCHAR 00C4
ENCODING 196
SWIDTH 720 0
DWIDTH 12 0
BBX 12 15 0 0
BITMAP
1980
1980
0000
0600
0F00
0F00
1F80
1980
1980
39C0
3FC0
7FE0
7FE0
6060
E070
ENDCHAR
STARTCHAR 00C5
ENCODING 197
SWIDTH 720 0
DWIDTH 12 0
BBX 12 15 0 0
BITMAP
0600
0F00
0900
0F00
0F00
0F00
1F80
1980
1980
39C0
3FC0
7FE0
7FE0
6060
E070
ENDCHAR
STARTCHAR 00C6
ENCODING 198
SWIDTH 1020 0
DWIDTH 17 0
BBX 16 12 0 0
BITMAP
01FF
01FF
03FF
07E0
06E0
0EFE
1CFE
1FE0
3FE0
30E0
70FF
E0FF
ENDCHAR
STARTCHAR 00C7
ENCODING 199
SWIDTH 660 0
DWIDTH 11 0
BBX 9 16 1 -4
BITMAP
0F00
3F80
7F80
E000
E000
E000
E000
E000
E000
F080
7F80
3F80
0C00
0600
1E00
1C00
ENDCHAR
STARTCHAR 00C8
ENCODING 200
SWIDTH 600 0
DWIDTH 10 0
BBX 9 16 1 0
BITMAP
1000
3800
1C00
0000
FF00
FF00
FF00
E000
E000
FF00
FF00
E000
E000
E000
FF80
FF80
ENDCHAR
STARTCHAR 00C9
ENCODING 201
SWIDTH 600 0
DWIDTH 10 0
BBX 9 16 1 0
BITMAP
0800
0C00
1800
1000
FF00
FF00
FF00
E000
E000
FF00
FF00
E000
E000
E000
FF80
FF80
ENDCHAR
STARTCHAR 00CA
ENCODING 202
SWIDTH 600 0
DWIDTH 10 0
BBX 9 16 1 0
BITMAP
0800
1C00
3600
0000
FF00
FF00
FF00
E000
E000
FF00
FF00
E000
E000
E000
FF80
FF80
ENDCHAR
STARTCHAR 00CB
ENCODING 203
SWIDTH 600 0
DWIDTH 10 0
BBX 9 15 1 0
BITMAP
7600
7600
0000
FF00
FF00
FF00
E000
E000
FF00
FF00
E000
E000
E000
FF80
FF80
ENDCHAR
STARTCHAR 00CC
ENCODING 204
SWIDTH 300 0
DWIDTH 5 0
BBX 3 16 1 0
BITMAP
40
C0
60
20
E0
E0
E0
E0
E0
E0
E0
E0
E0
E0
E0
E0
ENDCHAR
STARTCHAR 00CD
ENCODING 205
SWIDTH 300 0
DWIDTH 5 0
BBX 4 16 1 0
BITMAP
20
70
C0
00
E0
E0
E0
E0
E0
E0
E0
E0
E0
E0
E0
E0
ENDCHAR
STARTCHAR 00CE
ENCODING 206
SWIDTH 300 0
DWIDTH 5 0
BBX 5 16 0 0
BITMAP
20
70
D8
00
70
70
70
70
70
70
70
70
70
70
70
70
ENDCHAR
STARTCHAR 00CF
ENCODING 207
SWIDTH 300 0
DWIDTH 5 0
BBX 6 15 0 0
BITMAP
DC
DC
00
70
70
70
70
70
70
70
70
70
70
70
70
ENDCHAR
STARTCHAR 00D0
ENCODING 208
SWIDTH 720 0
DWIDTH 12 0
BBX 12 12 0 0
BITMAP
3E00
3FC0
3FE0
30E0
3060
FC70
FC70
3070
30E0
31E0
3FC0
3F80
ENDCHAR
STARTCHAR 00D1
ENCODING 209
SWIDTH 780 0
DWIDTH 13 0
BBX 10 15 1 0
BITMAP
1F00
3F00
0000
C0C0
E0C0
F0C0
F8C0
FCC0
ECC0
E6C0
E7C0
E3C0
E1C0
E1C0
E0C0
ENDCHAR
STARTCHAR 00D2
ENCODING 210
SWIDTH 780 0
DWIDTH 13 0
BBX 11 15 1 1
BITMAP
0C00
0600
0200
0F00
3F80
7BC0
E0E0
E0E0
E060
E060
E060
E0E0
71E0
7FC0
1F80
ENDCHAR
STARTCHAR 00D3
ENCODING 211
SWIDTH 780 0
DWIDTH 13 0
BBX 11 16 1 0
BITMAP
0200
0600
0C00
0000
0F00
3F80
7BC0
E0E0
E0E0
E060
E060
E060
E0E0
71E0
7FC0
1F80
ENDCHAR
STARTCHAR 00D4
ENCODING 212
SWIDTH 780 0
DWIDTH 13 0
BBX 11 16 1 0
BITMAP
0400
0E00
1B00
0000
0F00
3F80
7BC0
E0E0
E0E0
E060
E060
E060
E0E0
71E0
7FC0
1F80
ENDCHAR
STARTCHAR 00D5
ENCODING 213
SWIDTH 780 0
DWIDTH 13 0
BBX 11 15 1 0
BITMAP
1F80
1F00
0000
0F00
3F80
7BC0
E0E0
E0E0
E060
E060
E060
E0E0
71E0
7FC0
1F80
ENDCHAR
STARTCHAR 00D6
ENCODING 214
SWIDTH 780 0
DWIDTH 13 0
BBX 11 15 1 0
BITMAP
3B80
3B80
0000
0F00
3F80
7BC0
E0E0
E0E0
E060
E060
E060
E0E0
71E0
7FC0
1F80
ENDCHAR
STARTCHAR 00D7
ENCODING 215
SWIDTH 540 0
DWIDTH 9 0
BBX 7 8 1 1
BITMAP
40
E6
7E
3C
3C
7E
E6
40
ENDCHAR
STARTCHAR 00D8
ENCODING 216
SWIDTH 780 0
DWIDTH 13 0
BBX 11 13 1 -1
BITMAP
0F60
3FC0
7BC0
E1E0
E3E0
E660
EC60
FC60
F8E0
71E0
7FC0
FF80
4000
ENDCHAR
STARTCHAR 00D9
ENCODING 217
SWIDTH 720 0
DWIDTH 12 0
BBX 10 16 1 0
BITMAP
1000
1800
0C00
0400
E1C0
E1C0
E1C0
E1C0
E1C0
E1C0
E1C0
E1C0
E1C0
E380
7F80
3F00
ENDCHAR
STARTCHAR 00DA
ENCODING 218
SWIDTH 720 0
DWIDTH 12 0
BBX 10 16 1 0
BITMAP
0400
0E00
1C00
0800
E1C0
E1C0
E1C0
E1C0
E1C0
E1C0
E1C0
E1C0
E1C0
E380
7F80
3F00
ENDCHAR
STARTCHAR 00DB
ENCODING 219
SWIDTH 720 0
DWIDTH 12 0
BBX 10 15 1 1
BITMAP
1C00
3E00
0200
E1C0
E1C0
E1C0
E1C0
E1C0
E1C0
E1C0
E1C0
E1C0
E380
7F80
3F00
ENDCHAR
STARTCHAR 00DC
ENCODING 220
SWIDTH 720 0
DWIDTH 12 0
BBX 10 15 1 0
BITMAP
3300
3300
0000
E1C0
E1C0
E1C0
E1C0
E1C0
E1C0
E1C0
E1C0
E1C0
E380
7F80
3F00
ENDCHAR
STARTCHAR 00DD
ENCODING 221
SWIDTH 660 0
DWIDTH 11 0
BBX 11 16 0 0
BITMAP
0200
0700
0E00
0000
E0E0
70C0
71C0
3980
3B80
1F00
0E00
0E00
0E00
0E00
0E00
0E00
ENDCHAR
STARTCHAR 00DE
ENCODING 222
SWIDTH 660 0
DWIDTH 11 0
BBX 9 12 1 0
BITMAP
E000
E000
FE00
FF00
E380
E380
E380
E780
FF00
FE00
E000
E000
ENDCHAR
STARTCHAR 00DF
ENCODING 223
SWIDTH 660 0
DWIDTH 11 0
BBX 9 13 1 0
BITMAP
3C00
7E00
E700
E700
E600
EE00
EC00
EE00
E780
E380
E180
EF80
EF00
ENDCHAR
STARTCHAR 00E0
ENCODING 224
SWIDTH 540 0
DWIDTH 9 0
BBX 7 13 1 0
BITMAP
30
30
18
00
FC
7E
0E
06
FE
C6
C6
FE
7E
ENDCHAR
STARTCHAR 00E1
ENCODING 225
SWIDTH 540 0
DWIDTH 9 0
BBX 7 13 1 0
BITMAP
18
18
30
00
FC
7E
0E
06
FE
C6
C6
FE
7E
ENDCHAR
STARTCHAR 00E2
ENCODING 226
SWIDTH 540 0
DWIDTH 9 0
BBX 7 13 1 0
BITMAP
10
38
6C
00
FC
7E
0E
06
FE
C6
C6
FE
7E
ENDCHAR
STARTCHAR 00E3
ENCODING 227
SWIDTH 540 0
DWIDTH 9 0
BBX 7 13 1 0
BITMAP
04
7C
5C
00
FC
7E
0E
06
FE
C6
C6
FE
7E
ENDCHAR
STARTCHAR 00E4
ENCODING 228
SWIDTH 540 0
DWIDTH 9 0
BBX 7 13 1 0
BITMAP
44
EE
6C
00
FC
7E
0E
06
FE
C6
C6
FE
7E
ENDCHAR
STARTCHAR 00E5
ENCODING 229
SWIDTH 540 0
DWIDTH 9 0
BBX 7 14 1 0
BITMAP
10
38
2C
38
00
FC
7E
0E
06
FE
C6
C6
FE
7E
ENDCHAR
STARTCHAR 00E6
ENCODING 230
SWIDTH 900 0
DWIDTH 15 0
BBX 13 9 1 0
BITMAP
F9E0
7FF0
0F38
0638
FFF8
C600
C700
FFF0
7FF0
ENDCHAR
STARTCHAR 00E7
ENCODING 231
SWIDTH 480 0
DWIDTH 8 0
BBX 7 13 1 -4
BITMAP
3E
7C
E0
C0
C0
C0
E0
FE
7E
18
18
38
30
ENDCHAR
STARTCHAR 00E8
ENCODING 232
SWIDTH 600 0
DWIDTH 10 0
BBX 8 13 1 0
BITMAP
30
38
1C
00
3C
7E
E7
C3
FF
C0
E0
7E
3E
ENDCHAR
STARTCHAR 00E9
ENCODING 233
SWIDTH 600 0
DWIDTH 10 0
BBX 8 13 1 0
BITMAP
08
18
30
00
3C
7E
E7
C3
FF
C0
E0
7E
3E
ENDCHAR
STARTCHAR 00EA
ENCODING 234
SWIDTH 600 0
DWIDTH 10 0
BBX 8 13 1 0
BITMAP
10
3C
6C
00
3C
7E
E7
C3
FF
C0
E0
7E
3E
ENDCHAR
STARTCHAR 00EB
ENCODING 235
SWIDTH 600 0
DWIDTH 10 0
BBX 8 13 1 0
BITMAP
24
66
66
00
3C
7E
E7
C3
FF
C0
E0
7E
3E
ENDCHAR
STARTCHAR 00EC
ENCODING 236
SWIDTH 300 0
DWIDTH 5 0
BBX 3 13 1 0
BITMAP
C0
C0
60
00
E0
E0
E0
E0
E0
E0
E0
E0
E0
ENDCHAR
STARTCHAR 00ED
ENCODING 237
SWIDTH 300 0
DWIDTH 5 0
BBX 3 13 1 0
BITMAP
60
E0
C0
00
E0
E0
E0
E0
E0
E0
E0
E0
E0
ENDCHAR
STARTCHAR 00EE
ENCODING 238
SWIDTH 300 0
DWIDTH 5 0
BBX 5 13 0 0
BITMAP
20
70
D8
00
70
70
70
70
70
70
70
70
70
ENDCHAR
STARTCHAR 00EF
ENCODING 239
SWIDTH 300 0
DWIDTH 5 0
BBX 6 13 -1 0
BITMAP
44
EC
CC
00
38
38
38
38
38
38
38
38
38
ENDCHAR
STARTCHAR 00F0
ENCODING 240
SWIDTH 600 0
DWIDTH 10 0
BBX 8 13 1 0
BITMAP
08
1D
0F
1E
07
3F
FF
E3
C3
C3
E7
FE
7C
ENDCHAR
STARTCHAR 00F1
ENCODING 241
SWIDTH 600 0
DWIDTH 10 0
BBX 8 12 1 1
BITMAP
7E
4C
00
FC
FE
E7
E7
E7
E7
E7
E7
E7
ENDCHAR
STARTCHAR 00F2
ENCODING 242
SWIDTH 600 0
DWIDTH 10 0
BBX 8 13 1 0
BITMAP
10
38
0C
00
3C
7E
E7
C3
C3
C3
E7
7F
3E
ENDCHAR
STARTCHAR 00F3
ENCODING 243
SWIDTH 600 0
DWIDTH 10 0
BBX 8 13 1 0
BITMAP
08
1C
30
00
3C
7E
E7
C3
C3
C3
E7
7F
3E
ENDCHAR
STARTCHAR 00F4
ENCODING 244
SWIDTH 600 0
DWIDTH 10 0
BBX 8 13 1 0
BITMAP
18
3C
24
00
3C
7E
E7
C3
C3
C3
E7
7F
3E
ENDCHAR
STARTCHAR 00F5
ENCODING 245
SWIDTH 600 0
DWIDTH 10 0
BBX 8 12 1 1
BITMAP
7E
6C
00
3C
7E
E7
C3
C3
C3
E7
7F
3E
ENDCHAR
STARTCHAR 00F6
ENCODING 246
SWIDTH 600 0
DWIDTH 10 0
BBX 8 13 1 0
BITMAP
24
66
66
00
3C
7E
E7
C3
C3
C3
E7
7F
3E
ENDCHAR
STARTCHAR 00F7
ENCODING 247
SWIDTH 540 0
DWIDTH 9 0
BBX 8 10 1 0
BITMAP
18
38
18
00
FF
FF
00
18
38
18
ENDCHAR
STARTCHAR 00F8
ENCODING 248
SWIDTH 600 0
DWIDTH 10 0
BBX 8 9 1 -1
BITMAP
3F
7E
E7
CF
DB
F3
F7
7F
FE
ENDCHAR
STARTCHAR 00F9
ENCODING 249
SWIDTH 600 0
DWIDTH 10 0
BBX 8 13 1 0
BITMAP
30
38
18
00
E7
E7
E7
E7
E7
E7
E7
7F
7F
ENDCHAR
STARTCHAR 00FA
ENCODING 250
SWIDTH 600 0
DWIDTH 10 0
BBX 8 13 1 0
BITMAP
08
1C
30
00
E7
E7
E7
E7
E7
E7
E7
7F
7F
ENDCHAR
STARTCHAR 00FB
ENCODING 251
SWIDTH 600 0
DWIDTH 10 0
BBX 8 13 1 0
BITMAP
10
3C
6C
00
E7
E7
E7
E7
E7
E7
E7
7F
7F
ENDCHAR
STARTCHAR 00FC
ENCODING 252
SWIDTH 600 0
DWIDTH 10 0
BBX 8 13 1 0
BITMAP
04
6E
66
00
E7
E7
E7
E7
E7
E7
E7
7F
7F
ENDCHAR
STARTCHAR 00FD
ENCODING 253
SWIDTH 540 0
DWIDTH 9 0
BBX 9 16 0 -3
BITMAP
0600
0E00
1800
0000
E380
6380
6300
7700
3700
3600
3E00
1C00
1C00
1800
F800
F000
ENDCHAR
STARTCHAR 00FE
ENCODING 254
SWIDTH 600 0
DWIDTH 10 0
BBX 8 16 1 -3
BITMAP
E0
E0
E0
E0
FC
FE
E7
E3
E3
E3
E7
FF
FE
E0
E0
E0
ENDCHAR
STARTCHAR 00FF
ENCODING 255
SWIDTH 540 0
DWIDTH 9 0
BBX 9 16 0 -3
BITMAP
2200
7700
3600
0000
E380
6380
6300
7700
3700
3600
3E00
1C00
1C00
1800
F800
F000
ENDCHAR
STARTCHAR 0100
ENCODING 256
SWIDTH 720 0
DWIDTH 12 0
BBX 12 15 0 0
BITMAP
1F80
1F80
0000
0600
0F00
0F00
1F80
1980
1980
39C0
3FC0
7FE0
7FE0
6060
E070
ENDCHAR
STARTCHAR 0101
ENCODING 257
SWIDTH 540 0
DWIDTH 9 0
BBX 7 12 1 0
BITMAP
7C
7C
00
FC
7E
0E
06
FE
C6
C6
FE
7E
ENDCHAR
STARTCHAR 0102
ENCODING 258
SWIDTH 720 0
DWIDTH 12 0
BBX 12 15 0 0
BITMAP
0980
0F00
0000
0600
0F00
0F00
1F80
1980
1980
39C0
3FC0
7FE0
7FE0
6060
E070
ENDCHAR
STARTCHAR 0103
ENCODING 259
SWIDTH 540 0
DWIDTH 9 0
BBX 7 13 1 0
BITMAP
64
7C
38
00
FC
7E
0E
06
FE
C6
C6
FE
7E
ENDCHAR
STARTCHAR 0104
ENCODING 260
SWIDTH 720 0
DWIDTH 12 0
BBX 12 16 0 -4
BITMAP
0600
0F00
0F00
1F80
1980
1980
39C0
3FC0
7FE0
7FE0
6060
E070
0060
0060
00F0
0070
ENDCHAR
STARTCHAR 0105
ENCODING 261
SWIDTH 540 0
DWIDTH 9 0
BBX 7 13 1 -4
BITMAP
FC
7E
0E
06
FE
C6
C6
FE
7E
0C
0C
1E
0E
ENDCHAR
STARTCHAR 0106
ENCODING 262
SWIDTH 660 0
DWIDTH 11 0
BBX 9 16 1 0
BITMAP
0200
0700
0C00
0000
0F00
3F80
7F80
E000
E000
E000
E000
E000
E000
F080
7F80
3F80
ENDCHAR
STARTCHAR 0107
ENCODING 263
SWIDTH 480 0
DWIDTH 8 0
BBX 7 13 1 0
BITMAP
0C
1C
38
00
3E
7C
E0
C0
C0
C0
E0
FE
3E
ENDCHAR
STARTCHAR 0108
ENCODING 264
SWIDTH 660 0
DWIDTH 11 0
BBX 9 16 1 0
BITMAP
0400
0E00
1B00
0000
0F00
3F80
7F80
E000
E000
E000
E000
E000
E000
F080
7F80
3F80
ENDCHAR
STARTCHAR 0109
ENCODING 265
SWIDTH 480 0
DWIDTH 8 0
BBX 7 13 1 0
BITMAP
18
3C
24
00
3E
7C
E0
C0
C0
C0
E0
FE
3E
ENDCHAR
STARTCHAR 010A
ENCODING 266
SWIDTH 660 0
DWIDTH 11 0
BBX 9 15 1 0
BITMAP
0E00
0E00
0000
0F00
3F80
7F80
E000
E000
E000
E000
E000
E000
F080
7F80
3F80
ENDCHAR
STARTCHAR 010B
ENCODING 267
SWIDTH 480 0
DWIDTH 8 0
BBX 7 13 1 0
BITMAP
18
18
18
00
3E
7C
E0
C0
C0
C0
E0
FE
3E
ENDCHAR
STARTCHAR 010C
ENCODING 268
SWIDTH 660 0
DWIDTH 11 0
BBX 9 15 1 1
BITMAP
1F00
0E00
0400
0F00
3F80
7F80
E000
E000
E000
E000
E000
E000
F080
7F80
3F80
ENDCHAR
STARTCHAR 010D
ENCODING 269
SWIDTH 480 0
DWIDTH 8 0
BBX 7 13 1 0
BITMAP
24
3C
18
00
3E
7C
E0
C0
C0
C0
E0
FE
3E
ENDCHAR
STARTCHAR 010E
ENCODING 270
SWIDTH 720 0
DWIDTH 12 0
BBX 10 16 1 0
BITMAP
1200
1E00
0C00
0000
7C00
FF00
FF80
E1C0
E1C0
E0C0
E0C0
E0C0
E1C0
E3C0
FF80
FE00
ENDCHAR
STARTCHAR 010F
ENCODING 271
SWIDTH 660 0
DWIDTH 11 0
BBX 11 13 1 0
BITMAP
0760
0760
0760
0760
3F00
7F00
E700
C700
C700
C700
E700
7F00
3F00
ENDCHAR
STARTCHAR 0110
ENCODING 272
SWIDTH 720 0
DWIDTH 12 0
BBX 12 12 0 0
BITMAP
3E00
3FC0
3FE0
30E0
3060
FC70
FC70
3070
30E0
31E0
3FC0
3F80
ENDCHAR
STARTCHAR 0111
ENCODING 273
SWIDTH 600 0
DWIDTH 10 0
BBX 9 13 1 0
BITMAP
0700
0700
1F80
0700
3F00
7F00
E700
C700
C700
C700
E700
7F00
3F00
ENDCHAR
STARTCHAR 0112
ENCODING 274
SWIDTH 600 0
DWIDTH 10 0
BBX 9 15 1 0
BITMAP
3E00
3E00
0000
FF00
FF00
FF00
E000
E000
FF00
FF00
E000
E000
E000
FF80
FF80
ENDCHAR
STARTCHAR 0113
ENCODING 275
SWIDTH 600 0
DWIDTH 10 0
BBX 8 12 1 0
BITMAP
7E
7E
00
3C
7E
E7
C3
FF
C0
E0
7E
3E
ENDCHAR
STARTCHAR 0114
ENCODING 276
SWIDTH 600 0
DWIDTH 10 0
BBX 9 15 1 0
BITMAP
3600
3E00
0000
FF00
FF00
FF00
E000
E000
FF00
FF00
E000
E000
E000
FF80
FF80
ENDCHAR
STARTCHAR 0115
ENCODING 277
SWIDTH 600 0
DWIDTH 10 0
BBX 8 13 1 0
BITMAP
66
7C
3C
00
3C
7E
E7
C3
FF
C0
E0
7E
3E
ENDCHAR
STARTCHAR 0116
ENCODING 278
SWIDTH 600 0
DWIDTH 10 0
BBX 9 15 1 0
BITMAP
1C00
1C00
0000
FF00
FF00
FF00
E000
E000
FF00
FF00
E000
E000
E000
FF80
FF80
ENDCHAR
STARTCHAR 0117
ENCODING 279
SWIDTH 600 0
DWIDTH 10 0
BBX 8 13 1 0
BITMAP
10
18
18
00
3C
7E
E7
C3
FF
C0
E0
7E
3E
ENDCHAR
STARTCHAR 0118
ENCODING 280
SWIDTH 600 0
DWIDTH 10 0
BBX 9 16 1 -4
BITMAP
FF00
FF00
FF00
E000
E000
FF00
FF00
E000
E000
E000
FF80
FF80
0300
0600
0780
0380
ENDCHAR
STARTCHAR 0119
ENCODING 281
SWIDTH 600 0
DWIDTH 10 0
BBX 8 13 1 -4
BITMAP
3C
7E
E7
C3
FF
C0
E0
7E
3E
0C
0C
0E
0E
ENDCHAR
STARTCHAR 011A
ENCODING 282
SWIDTH 600 0
DWIDTH 10 0
BBX 9 16 1 0
BITMAP
2000
3E00
1800
0000
FF00
FF00
FF00
E000
E000
FF00
FF00
E000
E000
E000
FF80
FF80
ENDCHAR
STARTCHAR 011B
ENCODING 283
SWIDTH 600 0
DWIDTH 10 0
BBX 8 13 1 0
BITMAP
24
3C
18
00
3C
7E
E7
C3
FF
C0
E0
7E
3E
ENDCHAR
STARTCHAR 011C
ENCODING 284
SWIDTH 720 0
DWIDTH 12 0
BBX 10 16 1 0
BITMAP
0400
0E00
1B00
0000
0F00
3F80
7980
E000
E000
E000
E1C0
E1C0
E1C0
71C0
7FC0
3FC0
ENDCHAR
STARTCHAR 011D
ENCODING 285
SWIDTH 600 0
DWIDTH 10 0
BBX 8 16 1 -3
BITMAP
08
1C
36
00
3F
7F
E7
C7
C7
C7
FF
7F
07
07
FE
FC
ENDCHAR
STARTCHAR 011E
ENCODING 286
SWIDTH 720 0
DWIDTH 12 0
BBX 10 15 1 0
BITMAP
1B00
1F00
0000
0F00
3F80
7980
E000
E000
E000
E1C0
E1C0
E1C0
71C0
7FC0
3FC0
ENDCHAR
STARTCHAR 011F
ENCODING 287
SWIDTH 600 0
DWIDTH 10 0
BBX 8 16 1 -3
BITMAP
26
3E
1C
00
3F
7F
E7
C7
C7
C7
FF
7F
07
07
FE
FC
ENDCHAR
STARTCHAR 0120
ENCODING 288
SWIDTH 720 0
DWIDTH 12 0
BBX 10 15 1 0
BITMAP
0E00
0E00
0000
0F00
3F80
7980
E000
E000
E000
E1C0
E1C0
E1C0
71C0
7FC0
3FC0
ENDCHAR
STARTCHAR 0121
ENCODING 289
SWIDTH 600 0
DWIDTH 10 0
BBX 8 16 1 -3
BITMAP
08
18
18
00
3F
7F
E7
C7
C7
C7
FF
7F
07
07
FE
FC
ENDCHAR
STARTCHAR 0122
ENCODING 290
SWIDTH 720 0
DWIDTH 12 0
BBX 10 16 1 -4
BITMAP
0F00
3F80
7980
E000
E000
E000
E1C0
E1C0
E1C0
71C0
7FC0
3FC0
0000
0600
0E00
0C00
ENDCHAR
STARTCHAR 0123
ENCODING 291
SWIDTH 600 0
DWIDTH 10 0
BBX 8 16 1 -3
BITMAP
0C
18
18
00
3F
7F
E7
C7
C7
C7
FF
7F
07
07
FE
FC
ENDCHAR
STARTCHAR 0124
ENCODING 292
SWIDTH 720 0
DWIDTH 12 0
BBX 10 15 1 1
BITMAP
0E00
1F00
1000
E1C0
E1C0
E1C0
E1C0
E1C0
FFC0
FFC0
E1C0
E1C0
E1C0
E1C0
E1C0
ENDCHAR
STARTCHAR 0125
ENCODING 293
SWIDTH 600 0
DWIDTH 10 0
BBX 8 16 1 0
BITMAP
20
F8
08
E0
E0
E0
E0
FC
FE
E7
E7
E7
E7
E7
E7
E7
ENDCHAR
STARTCHAR 0126
ENCODING 294
SWIDTH 780 0
DWIDTH 13 0
BBX 12 12 0 0
BITMAP
30E0
30E0
FFF0
FFF0
30E0
3FE0
3FE0
30E0
30E0
30E0
30E0
30E0
ENDCHAR
STARTCHAR 0127
ENCODING 295
SWIDTH 600 0
DWIDTH 10 0
BBX 9 13 0 0
BITMAP
7000
7000
FC00
7000
7E00
7F00
7380
7380
7380
7380
7380
7380
7380
ENDCHAR
STARTCHAR 0128
ENCODING 296
SWIDTH 300 0
DWIDTH 5 0
BBX 6 15 0 0
BITMAP
FC
F8
00
70
70
70
70
70
70
70
70
70
70
70
70
ENDCHAR
STARTCHAR 0129
ENCODING 297
SWIDTH 300 0
DWIDTH 5 0
BBX 5 12 0 1
BITMAP
F8
B8
00
70
70
70
70
70
70
70
70
70
ENDCHAR
STARTCHAR 012A
ENCODING 298
SWIDTH 300 0
DWIDTH 5 0
BBX 5 15 0 0
BITMAP
F8
F8
00
70
70
70
70
70
70
70
70
70
70
70
70
ENDCHAR
STARTCHAR 012B
ENCODING 299
SWIDTH 300 0
DWIDTH 5 0
BBX 5 12 0 0
BITMAP
F8
F8
00
70
70
70
70
70
70
70
70
70
ENDCHAR
STARTCHAR 012C
ENCODING 300
SWIDTH 300 0
DWIDTH 5 0
BBX 5 15 0 0
BITMAP
C8
78
00
70
70
70
70
70
70
70
70
70
70
70
70
ENDCHAR
STARTCHAR 012D
ENCODING 301
SWIDTH 300 0
DWIDTH 5 0
BBX 5 13 0 0
BITMAP
98
F8
70
00
70
70
70
70
70
70
70
70
70
ENDCHAR
STARTCHAR 012E
ENCODING 302
SWIDTH 300 0
DWIDTH 5 0
BBX 3 16 1 -4
BITMAP
E0
E0
E0
E0
E0
E0
E0
E0
E0
E0
E0
E0
C0
C0
E0
E0
ENDCHAR
STARTCHAR 012F
ENCODING 303
SWIDTH 300 0
DWIDTH 5 0
BBX 4 17 0 -4
BITMAP
20
70
70
00
70
70
70
70
70
70
70
70
70
60
C0
F0
70
ENDCHAR
STARTCHAR 0130
ENCODING 304
SWIDTH 300 0
DWIDTH 5 0
BBX 3 15 1 0
BITMAP
E0
E0
00
E0
E0
E0
E0
E0
E0
E0
E0
E0
E0
E0
E0
ENDCHAR
STARTCHAR 0131
ENCODING 305
SWIDTH 300 0
DWIDTH 5 0
BBX 3 9 1 0
BITMAP
E0
E0
E0
E0
E0
E0
E0
E0
E0
ENDCHAR
STARTCHAR 0132
ENCODING 306
SWIDTH 840 0
DWIDTH 14 0
BBX 12 12 1 0
BITMAP
E070
E070
E070
E070
E070
E070
E070
E070
E070
E470
E7E0
E7C0
ENDCHAR
STARTCHAR 0133
ENCODING 307
SWIDTH 600 0
DWIDTH 10 0
BBX 8 16 1 -3
BITMAP
46
E7
E6
00
E6
E6
E6
E6
E6
E6
E6
E6
E6
06
1E
1C
ENDCHAR
STARTCHAR 0134
ENCODING 308
SWIDTH 540 0
DWIDTH 9 0
BBX 9 16 0 0
BITMAP
0200
0700
0D80
0000
0700
0700
0700
0700
0700
0700
0700
0700
0700
0700
7E00
FC00
ENDCHAR
STARTCHAR 0135
ENCODING 309
SWIDTH 300 0
DWIDTH 5 0
BBX 6 16 -1 -3
BITMAP
10
38
6C
00
38
38
38
38
38
38
38
38
38
38
F0
F0
ENDCHAR
STARTCHAR 0136
ENCODING 310
SWIDTH 660 0
DWIDTH 11 0
BBX 10 16 1 -4
BITMAP
E1C0
E380
E700
EE00
FC00
F800
FC00
FE00
EF00
E780
E380
E1C0
0000
0C00
1C00
1800
ENDCHAR
STARTCHAR 0137
ENCODING 311
SWIDTH 600 0
DWIDTH 10 0
BBX 8 17 1 -4
BITMAP
E0
E0
E0
E0
E7
EE
FC
F8
F8
FC
EE
E7
E7
00
18
38
30
ENDCHAR
STARTCHAR 0138
ENCODING 312
SWIDTH 600 0
DWIDTH 10 0
BBX 8 9 1 0
BITMAP
E7
EE
EC
F8
F8
FC
EE
E7
E7
ENDCHAR
STARTCHAR 0139
ENCODING 313
SWIDTH 540 0
DWIDTH 9 0
BBX 8 16 1 0
BITMAP
20
70
E0
40
E0
E0
E0
E0
E0
E0
E0
E0
E0
E0
FF
FF
ENDCHAR
STARTCHAR 013A
ENCODING 314
SWIDTH 300 0
DWIDTH 5 0
BBX 4 16 1 0
BITMAP
30
F0
80
E0
E0
E0
E0
E0
E0
E0
E0
E0
E0
E0
F0
70
ENDCHAR
STARTCHAR 013B
ENCODING 315
SWIDTH 540 0
DWIDTH 9 0
BBX 8 16 1 -4
BITMAP
E0
E0
E0
E0
E0
E0
E0
E0
E0
E0
FF
FF
00
0C
38
30
ENDCHAR
STARTCHAR 013C
ENCODING 316
SWIDTH 300 0
DWIDTH 5 0
BBX 4 17 1 -4
BITMAP
E0
E0
E0
E0
E0
E0
E0
E0
E0
E0
E0
F0
70
00
60
E0
C0
ENDCHAR
STARTCHAR 013D
ENCODING 317
SWIDTH 540 0
DWIDTH 9 0
BBX 8 12 1 0
BITMAP
E6
E4
E4
E4
E0
E0
E0
E0
E0
E0
FF
FF
ENDCHAR
STARTCHAR 013E
ENCODING 318
SWIDTH 360 0
DWIDTH 6 0
BBX 6 13 1 0
BITMAP
EC
EC
EC
E8
E0
E0
E0
E0
E0
E0
E0
F0
70
ENDCHAR
STARTCHAR 013F
ENCODING 319
SWIDTH 540 0
DWIDTH 9 0
BBX 8 12 1 0
BITMAP
E0
E0
E0
E0
E7
E7
E6
E0
E0
E0
FF
FF
ENDCHAR
STARTCHAR 0140
ENCODING 320
SWIDTH 540 0
DWIDTH 9 0
BBX 7 13 1 0
BITMAP
E0
E0
E0
E0
E0
EE
EE
E4
E0
E0
E0
F0
70
ENDCHAR
STARTCHAR 0141
ENCODING 321
SWIDTH 600 0
DWIDTH 10 0
BBX 10 12 0 0
BITMAP
3000
3000
3000
3200
3E00
3C00
F000
F000
3000
3000
3FC0
3FC0
ENDCHAR
STARTCHAR 0142
ENCODING 322
SWIDTH 360 0
DWIDTH 6 0
BBX 6 13 0 0
BITMAP
30
30
30
30
3C
3C
F0
F0
30
30
30
38
38
ENDCHAR
STARTCHAR 0143
ENCODING 323
SWIDTH 780 0
DWIDTH 13 0
BBX 10 16 1 0
BITMAP
0400
0600
0C00
0800
C0C0
E0C0
F0C0
F8C0
FCC0
ECC0
E6C0
E7C0
E3C0
E1C0
E1C0
E0C0
ENDCHAR
STARTCHAR 0144
ENCODING 324
SWIDTH 600 0
DWIDTH 10 0
BBX 8 13 1 0
BITMAP
08
18
30
00
FC
FE
E7
E7
E7
E7
E7
E7
E7
ENDCHAR
STARTCHAR 0145
ENCODING 325
SWIDTH 780 0
DWIDTH 13 0
BBX 10 16 1 -4
BITMAP
C0C0
E0C0
F0C0
F8C0
FCC0
ECC0
E6C0
E7C0
E3C0
E1C0
E1C0
E0C0
0000
0600
1C00
1800
ENDCHAR
STARTCHAR 0146
ENCODING 326
SWIDTH 600 0
DWIDTH 10 0
BBX 8 13 1 -4
BITMAP
FC
FE
E7
E7
E7
E7
E7
E7
E7
00
18
38
30
ENDCHAR
STARTCHAR 0147
ENCODING 327
SWIDTH 780 0
DWIDTH 13 0
BBX 10 16 1 0
BITMAP
1200
1E00
0C00
0000
C0C0
E0C0
F0C0
F8C0
FCC0
ECC0
E6C0
E7C0
E3C0
E1C0
E1C0
E0C0
ENDCHAR
STARTCHAR 0148
ENCODING 328
SWIDTH 600 0
DWIDTH 10 0
BBX 8 13 1 0
BITMAP
24
3C
18
00
FC
FE
E7
E7
E7
E7
E7
E7
E7
ENDCHAR
STARTCHAR 0149
ENCODING 329
SWIDTH 600 0
DWIDTH 10 0
BBX 9 13 0 0
BITMAP
C000
C000
C000
C000
3F00
3F80
3380
3180
3180
3180
3180
3180
3180
ENDCHAR
STARTCHAR 014A
ENCODING 330
SWIDTH 780 0
DWIDTH 13 0
BBX 10 15 1 -3
BITMAP
C0C0
E0C0
F0C0
F8C0
FCC0
ECC0
E6C0
E7C0
E3C0
E1C0
E1C0
E0C0
00C0
03C0
0380
ENDCHAR
STARTCHAR 014B
ENCODING 331
SWIDTH 600 0
DWIDTH 10 0
BBX 8 12 1 -3
BITMAP
FC
FE
E7
E7
E7
E7
E7
E7
E7
07
0F
1E
ENDCHAR
STARTCHAR 014C
ENCODING 332
SWIDTH 780 0
DWIDTH 13 0
BBX 11 15 1 0
BITMAP
1F00
1F00
0000
0F00
3F80
7BC0
E0E0
E0E0
E060
E060
E060
E0E0
71E0
7FC0
1F80
ENDCHAR
STARTCHAR 014D
ENCODING 333
SWIDTH 600 0
DWIDTH 10 0
BBX 8 12 1 0
BITMAP
7E
7E
00
3C
7E
E7
C3
C3
C3
E7
7F
3E
ENDCHAR
STARTCHAR 014E
ENCODING 334
SWIDTH 780 0
DWIDTH 13 0
BBX 11 15 1 0
BITMAP
1B00
1F00
0000
0F00
3F80
7BC0
E0E0
E0E0
E060
E060
E060
E0E0
71E0
7FC0
1F80
ENDCHAR
STARTCHAR 014F
ENCODING 335
SWIDTH 600 0
DWIDTH 10 0
BBX 8 13 1 0
BITMAP
66
3E
3C
00
3C
7E
E7
C3
C3
C3
E7
7F
3E
ENDCHAR
STARTCHAR 0150
ENCODING 336
SWIDTH 780 0
DWIDTH 13 0
BBX 11 16 1 0
BITMAP
0C80
0D80
1B00
0100
0F00
3F80
7BC0
E0E0
E0E0
E060
E060
E060
E0E0
71E0
7FC0
1F80
ENDCHAR
STARTCHAR 0151
ENCODING 337
SWIDTH 600 0
DWIDTH 10 0
BBX 8 13 1 0
BITMAP
13
36
66
00
3C
7E
E7
C3
C3
C3
E7
7F
3E
ENDCHAR
STARTCHAR 0152
ENCODING 338
SWIDTH 1020 0
DWIDTH 17 0
BBX 15 12 1 0
BITMAP
07FE
3FFE
7FFE
E1C0
E1C0
E1FC
E1FC
E1C0
E1C0
71C0
7FFE
1FFE
ENDCHAR
STARTCHAR 0153
ENCODING 339
SWIDTH 960 0
DWIDTH 16 0
BBX 14 9 1 0
BITMAP
3CF0
7FF8
E79C
C31C
C3FC
C300
E780
7FF8
3CF8
ENDCHAR
STARTCHAR 0154
ENCODING 340
SWIDTH 660 0
DWIDTH 11 0
BBX 10 15 1 1
BITMAP
0C00
1800
1000
7C00
FF00
FF80
E380
E380
E780
FF00
FE00
E700
E700
E380
E1C0
ENDCHAR
STARTCHAR 0155
ENCODING 341
SWIDTH 420 0
DWIDTH 7 0
BBX 6 13 1 0
BITMAP
10
38
60
00
7C
FC
E0
E0
E0
E0
E0
E0
E0
ENDCHAR
STARTCHAR 0156
ENCODING 342
SWIDTH 660 0
DWIDTH 11 0
BBX 10 16 1 -4
BITMAP
7C00
FF00
FF80
E380
E380
E780
FF00
FE00
E700
E700
E380
E1C0
0000
0C00
1C00
1800
ENDCHAR
STARTCHAR 0157
ENCODING 343
SWIDTH 420 0
DWIDTH 7 0
BBX 7 13 0 -4
BITMAP
3E
7E
70
70
70
70
70
70
70
00
60
E0
C0
ENDCHAR
STARTCHAR 0158
ENCODING 344
SWIDTH 660 0
DWIDTH 11 0
BBX 10 16 1 0
BITMAP
2000
3E00
1C00
0000
7C00
FF00
FF80
E380
E380
E780
FF00
FE00
E700
E700
E380
E1C0
ENDCHAR
STARTCHAR 0159
ENCODING 345
SWIDTH 420 0
DWIDTH 7 0
BBX 6 13 1 0
BITMAP
48
78
30
00
7C
FC
E0
E0
E0
E0
E0
E0
E0
ENDCHAR
STARTCHAR 015A
ENCODING 346
SWIDTH 600 0
DWIDTH 10 0
BBX 8 16 1 0
BITMAP
08
1C
18
10
3C
7E
E6
C0
E0
FC
3E
0F
07
87
FF
FE
ENDCHAR
STARTCHAR 015B
ENCODING 347
SWIDTH 480 0
DWIDTH 8 0
BBX 6 13 1 0
BITMAP
18
38
30
00
7C
FC
C0
E0
78
3C
0C
FC
FC
ENDCHAR
STARTCHAR 015C
ENCODING 348
SWIDTH 600 0
DWIDTH 10 0
BBX 8 15 1 1
BITMAP
1C
7E
00
3C
7E
E6
C0
E0
FC
3E
0F
07
87
FF
FE
ENDCHAR
STARTCHAR 015D
ENCODING 349
SWIDTH 480 0
DWIDTH 8 0
BBX 6 13 1 0
BITMAP
10
38
6C
00
7C
FC
C0
E0
78
3C
0C
FC
FC
ENDCHAR
STARTCHAR 015E
ENCODING 350
SWIDTH 600 0
DWIDTH 10 0
BBX 8 16 1 -4
BITMAP
3C
7E
E6
C0
E0
FC
3E
0F
07
87
FF
FE
10
18
38
30
ENDCHAR
STARTCHAR 015F
ENCODING 351
SWIDTH 480 0
DWIDTH 8 0
BBX 6 13 1 -4
BITMAP
7C
FC
C0
E0
78
3C
0C
FC
FC
30
10
70
60
ENDCHAR
STARTCHAR 0160
ENCODING 352
SWIDTH 600 0
DWIDTH 10 0
BBX 8 16 1 0
BITMAP
24
3C
18
00
3C
7E
E6
C0
E0
FC
3E
0F
07
87
FF
FE
ENDCHAR
STARTCHAR 0161
ENCODING 353
SWIDTH 480 0
DWIDTH 8 0
BBX 6 13 1 0
BITMAP
4C
78
30
00
7C
FC
C0
E0
78
3C
0C
FC
FC
ENDCHAR
STARTCHAR 0162
ENCODING 354
SWIDTH 600 0
DWIDTH 10 0
BBX 10 16 0 -4
BITMAP
FFC0
FFC0
FFC0
0C00
0C00
0C00
0C00
0C00
0C00
0C00
0C00
0C00
0C00
0400
1C00
1800
ENDCHAR
STARTCHAR 0163
ENCODING 355
SWIDTH 420 0
DWIDTH 7 0
BBX 6 15 1 -4
BITMAP
E0
E0
FC
FC
E0
E0
E0
E0
E0
FC
7C
10
18
78
70
ENDCHAR
STARTCHAR 0164
ENCODING 356
SWIDTH 600 0
DWIDTH 10 0
BBX 10 16 0 0
BITMAP
1200
1E00
0C00
0000
FFC0
FFC0
FFC0
0C00
0C00
0C00
0C00
0C00
0C00
0C00
0C00
0C00
ENDCHAR
STARTCHAR 0165
ENCODING 357
SWIDTH 420 0
DWIDTH 7 0
BBX 6 13 1 0
BITMAP
08
08
E8
E0
FC
FC
E0
E0
E0
E0
E0
FC
7C
ENDCHAR
STARTCHAR 0166
ENCODING 358
SWIDTH 600 0
DWIDTH 10 0
BBX 10 12 0 0
BITMAP
FFC0
FFC0
FFC0
0C00
0C00
0C00
7F80
7F80
0C00
0C00
0C00
0C00
ENDCHAR
STARTCHAR 0167
ENCODING 359
SWIDTH 420 0
DWIDTH 7 0
BBX 6 11 1 0
BITMAP
E0
E0
FC
FC
E0
E0
FC
E0
E0
FC
7C
ENDCHAR
STARTCHAR 0168
ENCODING 360
SWIDTH 720 0
DWIDTH 12 0
BBX 10 15 1 0
BITMAP
3F00
3E00
0000
E1C0
E1C0
E1C0
E1C0
E1C0
E1C0
E1C0
E1C0
E1C0
E380
7F80
3F00
ENDCHAR
STARTCHAR 0169
ENCODING 361
SWIDTH 600 0
DWIDTH 10 0
BBX 8 12 1 1
BITMAP
7E
4C
00
E7
E7
E7
E7
E7
E7
E7
7F
7F
ENDCHAR
STARTCHAR 016A
ENCODING 362
SWIDTH 720 0
DWIDTH 12 0
BBX 10 15 1 0
BITMAP
3F00
3F00
0000
E1C0
E1C0
E1C0
E1C0
E1C0
E1C0
E1C0
E1C0
E1C0
E380
7F80
3F00
ENDCHAR
STARTCHAR 016B
ENCODING 363
SWIDTH 600 0
DWIDTH 10 0
BBX 8 12 1 0
BITMAP
7E
7E
00
E7
E7
E7
E7
E7
E7
E7
7F
7F
ENDCHAR
STARTCHAR 016C
ENCODING 364
SWIDTH 720 0
DWIDTH 12 0
BBX 10 15 1 0
BITMAP
3300
1E00
0000
E1C0
E1C0
E1C0
E1C0
E1C0
E1C0
E1C0
E1C0
E1C0
E380
7F80
3F00
ENDCHAR
STARTCHAR 016D
ENCODING 365
SWIDTH 600 0
DWIDTH 10 0
BBX 8 13 1 0
BITMAP
66
7C
3C
00
E7
E7
E7
E7
E7
E7
E7
7F
7F
ENDCHAR
STARTCHAR 016E
ENCODING 366
SWIDTH 720 0
DWIDTH 12 0
BBX 10 16 1 0
BITMAP
0C00
1600
1200
1C00
E1C0
E1C0
E1C0
E1C0
E1C0
E1C0
E1C0
E1C0
E1C0
E380
7F80
3F00
ENDCHAR
STARTCHAR 016F
ENCODING 367
SWIDTH 600 0
DWIDTH 10 0
BBX 8 14 1 0
BITMAP
10
3C
24
3C
00
E7
E7
E7
E7
E7
E7
E7
7F
7F
ENDCHAR
STARTCHAR 0170
ENCODING 368
SWIDTH 720 0
DWIDTH 12 0
BBX 10 16 1 0
BITMAP
0900
1B80
3300
0200
E1C0
E1C0
E1C0
E1C0
E1C0
E1C0
E1C0
E1C0
E1C0
E380
7F80
3F00
ENDCHAR
STARTCHAR 0171
ENCODING 369
SWIDTH 600 0
DWIDTH 10 0
BBX 8 13 1 0
BITMAP
32
36
6C
00
E7
E7
E7
E7
E7
E7
E7
7F
7F
ENDCHAR
STARTCHAR 0172
ENCODING 370
SWIDTH 720 0
DWIDTH 12 0
BBX 10 16 1 -4
BITMAP
E1C0
E1C0
E1C0
E1C0
E1C0
E1C0
E1C0
E1C0
E1C0
E380
7F80
3F00
0C00
0C00
0E00
0E00
ENDCHAR
STARTCHAR 0173
ENCODING 371
SWIDTH 600 0
DWIDTH 10 0
BBX 8 13 1 -4
BITMAP
E7
E7
E7
E7
E7
E7
E7
7F
7F
06
0C
0F
06
ENDCHAR
STARTCHAR 0174
ENCODING 372
SWIDTH 960 0
DWIDTH 16 0
BBX 15 15 0 1
BITMAP
0180
07C0
0240
E006
6006
718E
73CE
73CE
73CC
36CC
3E7C
3E7C
1E78
1C38
1C38
ENDCHAR
STARTCHAR 0175
ENCODING 373
SWIDTH 780 0
DWIDTH 13 0
BBX 13 13 0 0
BITMAP
0200
0700
0D80
0000
E338
6738
6730
7730
75F0
3DE0
3DE0
38E0
18C0
ENDCHAR
STARTCHAR 0176
ENCODING 374
SWIDTH 660 0
DWIDTH 11 0
BBX 11 16 0 0
BITMAP
0400
0E00
1B00
0000
E0E0
70C0
71C0
3980
3B80
1F00
0E00
0E00
0E00
0E00
0E00
0E00
ENDCHAR
STARTCHAR 0177
ENCODING 375
SWIDTH 540 0
DWIDTH 9 0
BBX 9 16 0 -3
BITMAP
0800
1C00
3600
0000
E380
6380
6300
7700
3700
3600
3E00
1C00
1C00
1800
F800
F000
ENDCHAR
STARTCHAR 0178
ENCODING 376
SWIDTH 660 0
DWIDTH 11 0
BBX 11 15 0 0
BITMAP
3B80
3B80
0000
E0E0
70C0
71C0
3980
3B80
1F00
0E00
0E00
0E00
0E00
0E00
0E00
ENDCHAR
STARTCHAR 0179
ENCODING 377
SWIDTH 600 0
DWIDTH 10 0
BBX 9 16 1 0
BITMAP
0800
0C00
1800
1000
FF00
FF00
FF00
0E00
0E00
1C00
3800
7000
7000
E000
FF80
FF80
ENDCHAR
STARTCHAR 017A
ENCODING 378
SWIDTH 480 0
DWIDTH 8 0
BBX 7 13 1 0
BITMAP
18
38
30
00
FE
FE
1C
18
30
70
E0
FE
FE
ENDCHAR
STARTCHAR 017B
ENCODING 379
SWIDTH 600 0
DWIDTH 10 0
BBX 9 15 1 0
BITMAP
1800
1800
0000
FF00
FF00
FF00
0E00
0E00
1C00
3800
7000
7000
E000
FF80
FF80
ENDCHAR
STARTCHAR 017C
ENCODING 380
SWIDTH 480 0
DWIDTH 8 0
BBX 7 13 1 0
BITMAP
10
30
30
00
FE
FE
1C
18
30
70
E0
FE
FE
ENDCHAR
STARTCHAR 017D
ENCODING 381
SWIDTH 600 0
DWIDTH 10 0
BBX 9 16 1 0
BITMAP
2400
3E00
1800
0000
FF00
FF00
FF00
0E00
0E00
1C00
3800
7000
7000
E000
FF80
FF80
ENDCHAR
STARTCHAR 017E
ENCODING 382
SWIDTH 480 0
DWIDTH 8 0
BBX 7 13 1 0
BITMAP
4C
78
30
00
FE
FE
1C
18
30
70
E0
FE
FE
ENDCHAR
STARTCHAR 017F
ENCODING 383
SWIDTH 300 0
DWIDTH 5 0
BBX 6 13 1 0
BITMAP
3C
7C
E0
E0
E0
E0
E0
E0
E0
E0
E0
E0
E0
ENDCHAR
STARTCHAR 0180
ENCODING 384
SWIDTH 600 0
DWIDTH 10 0
BBX 9 13 0 0
BITMAP
7000
7000
FC00
7000
7E00
7F00
7380
7180
7180
7180
7380
7F80
7E00
ENDCHAR
STARTCHAR 0181
ENCODING 385
SWIDTH 840 0
DWIDTH 14 0
BBX 13 12 0 0
BITMAP
0F80
7FE0
FC70
CC30
8C70
0FE0
0FF0
0C38
0C38
0C38
0FF0
0FE0
ENDCHAR
STARTCHAR 0182
ENCODING 386
SWIDTH 660 0
DWIDTH 11 0
BBX 9 12 1 0
BITMAP
FF00
FF00
FF00
E000
E000
FF00
FF80
E380
E380
E380
FF00
FE00
ENDCHAR
STARTCHAR 0183
ENCODING 387
SWIDTH 600 0
DWIDTH 10 0
BBX 8 13 1 0
BITMAP
FE
FE
E0
E0
FC
FE
E7
E3
E3
E3
E7
FF
FC
ENDCHAR
STARTCHAR 0184
ENCODING 388
SWIDTH 600 0
DWIDTH 10 0
BBX 9 13 0 0
BITMAP
3000
F000
7000
7000
7E00
7F00
7380
7180
7180
7180
7380
7F80
7E00
ENDCHAR
STARTCHAR 0185
ENCODING 389
SWIDTH 660 0
DWIDTH 11 0
BBX 10 12 0 0
BITMAP
1000
7000
F000
7000
7C00
7F80
7FC0
71C0
71C0
71C0
7F80
7F00
ENDCHAR
STARTCHAR 0186
ENCODING 390
SWIDTH 660 0
DWIDTH 11 0
BBX 10 12 0 0
BITMAP
3C00
FF00
7F80
03C0
01C0
01C0
01C0
01C0
01C0
4380
7F00
7E00
ENDCHAR
STARTCHAR 0187
ENCODING 391
SWIDTH 720 0
DWIDTH 12 0
BBX 11 13 1 0
BITMAP
00E0
0FE0
3F80
7F80
E000
E000
E000
E000
E000
E000
F080
7F80
3F80
ENDCHAR
STARTCHAR 0188
ENCODING 392
SWIDTH 540 0
DWIDTH 9 0
BBX 9 10 1 0
BITMAP
0780
3F00
7C00
E000
C000
C000
C000
E000
FE00
3E00
ENDCHAR
STARTCHAR 0189
ENCODING 393
SWIDTH 720 0
DWIDTH 12 0
BBX 12 12 0 0
BITMAP
3E00
3FC0
3FE0
30E0
3060
FC70
FC70
3070
30E0
31E0
3FC0
3F80
ENDCHAR
STARTCHAR 018A
ENCODING 394
SWIDTH 900 0
DWIDTH 15 0
BBX 14 12 0 0
BITMAP
0F80
7FF0
FFF8
CC38
8C1C
0C1C
0C1C
0C1C
0C38
0C78
0FF0
0FE0
ENDCHAR
STARTCHAR 018B
ENCODING 395
SWIDTH 660 0
DWIDTH 11 0
BBX 9 12 1 0
BITMAP
7F80
7F80
7F80
0380
0380
7F80
FF80
E380
C380
E380
FF80
3F80
ENDCHAR
STARTCHAR 018C
ENCODING 396
SWIDTH 600 0
DWIDTH 10 0
BBX 8 13 1 0
BITMAP
7F
7F
07
07
3F
7F
E7
C7
C7
C7
E7
7F
3F
ENDCHAR
STARTCHAR 018D
ENCODING 397
SWIDTH 600 0
DWIDTH 10 0
BBX 8 12 1 -3
BITMAP
3C
7E
E7
C3
C3
E7
FE
3C
1E
0E
7E
7C
ENDCHAR
STARTCHAR 018E
ENCODING 398
SWIDTH 600 0
DWIDTH 10 0
BBX 8 12 1 0
BITMAP
FF
FF
FF
07
07
7F
7F
07
07
07
FF
FF
ENDCHAR
STARTCHAR 018F
ENCODING 399
SWIDTH 720 0
DWIDTH 12 0
BBX 10 12 1 0
BITMAP
3E00
7F80
6780
01C0
01C0
FFC0
FFC0
FFC0
E1C0
E1C0
7F80
3F00
ENDCHAR
STARTCHAR 0190
ENCODING 400
SWIDTH 600 0
DWIDTH 10 0
BBX 8 12 1 0
BITMAP
1E
7F
F3
E0
E0
7E
7E
E0
C0
E1
FF
7F
ENDCHAR
STARTCHAR 0191
ENCODING 401
SWIDTH 600 0
DWIDTH 10 0
BBX 10 15 -1 -3
BITMAP
3FC0
3FC0
3FC0
3800
3800
3FC0
3FC0
3800
3800
3800
3800
3800
3800
F800
F000
ENDCHAR
STARTCHAR 0192
ENCODING 402
SWIDTH 420 0
DWIDTH 7 0
BBX 8 16 -1 -3
BITMAP
0F
1F
38
38
3F
3F
38
38
38
38
38
38
38
38
F0
F0
ENDCHAR
STARTCHAR 0193
ENCODING 403
SWIDTH 720 0
DWIDTH 12 0
BBX 12 13 1 0
BITMAP
00F0
0FE0
3F80
7980
E000
E000
E000
E1C0
E1C0
E1C0
71C0
7FC0
3FC0
ENDCHAR
STARTCHAR 0194
ENCODING 404
SWIDTH 720 0
DWIDTH 12 0
BBX 12 15 0 -3
BITMAP
E070
6060
70E0
30C0
39C0
1980
1F80
0F00
0F00
0F00
0F00
1D80
1980
1F80
0F00
ENDCHAR
STARTCHAR 0195
ENCODING 405
SWIDTH 900 0
DWIDTH 15 0
BBX 13 13 1 0
BITMAP
E000
E000
E000
E000
FC38
FE38
E638
E738
E738
E738
E730
E7F0
E3E0
ENDCHAR
STARTCHAR 0196
ENCODING 406
SWIDTH 420 0
DWIDTH 7 0
BBX 6 12 1 0
BITMAP
E0
E0
E0
E0
E0
E0
E0
E0
E0
E0
7C
7C
ENDCHAR
STARTCHAR 0197
ENCODING 407
SWIDTH 360 0
DWIDTH 6 0
BBX 6 12 0 0
BITMAP
30
30
30
30
30
FC
FC
30
30
30
30
30
ENDCHAR
STARTCHAR 0198
ENCODING 408
SWIDTH 720 0
DWIDTH 12 0
BBX 10 12 1 0
BITMAP
E1C0
E3C0
E740
EE00
FC00
F800
FC00
FE00
EF00
E780
E380
E1C0
ENDCHAR
STARTCHAR 0199
ENCODING 409
SWIDTH 600 0
DWIDTH 10 0
BBX 8 13 1 0
BITMAP
78
F0
E0
E0
E7
EE
FC
F8
F8
FC
EE
E7
E7
ENDCHAR
STARTCHAR 019A
ENCODING 410
SWIDTH 360 0
DWIDTH 6 0
BBX 5 13 0 0
BITMAP
70
70
70
70
70
70
F8
70
70
70
30
38
38
ENDCHAR
STARTCHAR 019B
ENCODING 411
SWIDTH 540 0
DWIDTH 9 0
BBX 9 13 0 0
BITMAP
F000
7A00
1E00
7C00
4C00
1E00
1E00
3E00
3700
7700
6300
6380
E380
ENDCHAR
STARTCHAR 019C
ENCODING 412
SWIDTH 960 0
DWIDTH 16 0
BBX 14 12 1 0
BITMAP
E31C
E31C
E31C
E31C
E31C
E31C
E31C
E31C
E31C
E39C
7FFC
3FFC
ENDCHAR
STARTCHAR 019D
ENCODING 413
SWIDTH 780 0
DWIDTH 13 0
BBX 12 15 -1 -3
BITMAP
3030
3830
3C30
3E30
3F30
3B30
39B0
39F0
38F0
3870
3870
3830
3800
F800
F000
ENDCHAR
STARTCHAR 019E
ENCODING 414
SWIDTH 600 0
DWIDTH 10 0
BBX 8 12 1 -3
BITMAP
FC
FE
E7
E7
E7
E7
E7
E7
E7
07
07
07
ENDCHAR
STARTCHAR 019F
ENCODING 415
SWIDTH 780 0
DWIDTH 13 0
BBX 11 12 1 0
BITMAP
0F00
3F80
7BC0
E0E0
E0E0
FFE0
FFE0
E060
E0E0
71E0
7FC0
1F80
ENDCHAR
STARTCHAR 01A0
ENCODING 416
SWIDTH 780 0
DWIDTH 13 0
BBX 11 13 1 0
BITMAP
0060
0F60
3FE0
7BC0
E0E0
E0E0
E060
E060
E060
E0E0
71E0
7FC0
1F80
ENDCHAR
STARTCHAR 01A1
ENCODING 417
SWIDTH 600 0
DWIDTH 10 0
BBX 9 11 1 0
BITMAP
0180
0180
3D80
7F00
E700
C300
C300
C300
E700
7F00
3E00
ENDCHAR
STARTCHAR 01A2
ENCODING 418
SWIDTH 1080 0
DWIDTH 18 0
BBX 16 12 1 0
BITMAP
1E3C
3FFE
7BEE
E1C6
E0E7
E0E7
E0E7
E0E7
E0E7
71C7
7F87
1F07
ENDCHAR
STARTCHAR 01A3
ENCODING 419
SWIDTH 840 0
DWIDTH 14 0
BBX 12 12 1 -3
BITMAP
3DE0
7FF0
E730
C730
C330
C330
E730
7E30
3C30
0030
0030
0030
ENDCHAR
STARTCHAR 01A4
ENCODING 420
SWIDTH 780 0
DWIDTH 13 0
BBX 12 12 0 0
BITMAP
0F80
7FE0
FFF0
CC30
8C30
0C70
0FF0
0FE0
0C00
0C00
0C00
0C00
ENDCHAR
STARTCHAR 01A5
ENCODING 421
SWIDTH 600 0
DWIDTH 10 0
BBX 8 16 1 -3
BITMAP
78
F0
E0
E0
FC
FE
E7
E3
E3
E3
E7
FF
FE
E0
E0
E0
ENDCHAR
STARTCHAR 01A6
ENCODING 422
SWIDTH 660 0
DWIDTH 11 0
BBX 11 15 1 -2
BITMAP
E000
FC00
FF00
FF80
E380
E380
E780
FF00
FE00
E700
E700
E380
E1C0
01C0
00E0
ENDCHAR
STARTCHAR 01A7
ENCODING 423
SWIDTH 600 0
DWIDTH 10 0
BBX 8 12 1 0
BITMAP
7C
FE
4F
07
0F
3E
FC
F0
C0
E0
FF
7F
ENDCHAR
STARTCHAR 01A8
ENCODING 424
SWIDTH 480 0
DWIDTH 8 0
BBX 6 9 1 0
BITMAP
F8
FC
0C
1C
7C
F0
C0
FC
7C
ENDCHAR
STARTCHAR 01A9
ENCODING 425
SWIDTH 600 0
DWIDTH 10 0
BBX 8 12 1 0
BITMAP
FF
FF
FF
70
38
1C
1C
38
70
E0
FF
FF
ENDCHAR
STARTCHAR 01AA
ENCODING 426
SWIDTH 420 0
DWIDTH 7 0
BBX 8 16 -1 -3
BITMAP
38
7C
CE
EE
7E
3E
0E
0E
0E
0E
0E
0E
0E
0E
0F
07
ENDCHAR
STARTCHAR 01AB
ENCODING 427
SWIDTH 420 0
DWIDTH 7 0
BBX 6 14 1 -3
BITMAP
E0
E0
FC
FC
E0
E0
E0
E0
E0
FC
7C
0C
3C
38
ENDCHAR
STARTCHAR 01AC
ENCODING 428
SWIDTH 660 0
DWIDTH 11 0
BBX 11 12 0 0
BITMAP
0FE0
7FE0
FFE0
CE00
CE00
0E00
0E00
0E00
0E00
0E00
0E00
0E00
ENDCHAR
STARTCHAR 01AD
ENCODING 429
SWIDTH 420 0
DWIDTH 7 0
BBX 6 13 1 0
BITMAP
3C
7C
E0
E0
FC
FC
E0
E0
E0
E0
E0
FC
7C
ENDCHAR
STARTCHAR 01AE
ENCODING 430
SWIDTH 600 0
DWIDTH 10 0
BBX 10 15 0 -3
BITMAP
FFC0
FFC0
FFC0
0C00
0C00
0C00
0C00
0C00
0C00
0C00
0C00
0C00
0E00
0F00
0700
ENDCHAR
STARTCHAR 01AF
ENCODING 431
SWIDTH 720 0
DWIDTH 12 0
BBX 12 13 1 0
BITMAP
0070
E1E0
E1E0
E1C0
E1C0
E1C0
E1C0
E1C0
E1C0
E1C0
E380
7F80
3F00
ENDCHAR
STARTCHAR 01B0
ENCODING 432
SWIDTH 600 0
DWIDTH 10 0
BBX 10 11 1 0
BITMAP
00C0
00C0
E780
E700
E700
E700
E700
E700
E700
7F00
7F00
ENDCHAR
STARTCHAR 01B1
ENCODING 433
SWIDTH 780 0
DWIDTH 13 0
BBX 11 12 1 0
BITMAP
FBE0
FBE0
FBE0
71C0
E0E0
E0E0
E0E0
E0E0
E0E0
F1C0
7FC0
3F80
ENDCHAR
STARTCHAR 01B2
ENCODING 434
SWIDTH 720 0
DWIDTH 12 0
BBX 10 12 1 0
BITMAP
E600
E780
E7C0
E1C0
E1C0
E0C0
E0C0
E1C0
E1C0
F3C0
7F80
3F00
ENDCHAR
STARTCHAR 01B3
ENCODING 435
SWIDTH 720 0
DWIDTH 12 0
BBX 12 12 0 0
BITMAP
E060
71F0
71E0
3B80
3B00
1F00
1E00
0E00
0E00
0E00
0E00
0E00
ENDCHAR
STARTCHAR 01B4
ENCODING 436
SWIDTH 600 0
DWIDTH 10 0
BBX 10 12 0 -3
BITMAP
E1C0
63C0
6300
7700
3600
3600
3E00
1C00
1C00
1C00
F800
F000
ENDCHAR
STARTCHAR 01B5
ENCODING 437
SWIDTH 600 0
DWIDTH 10 0
BBX 9 12 1 0
BITMAP
FF00
FF00
FF00
0E00
0E00
FF00
FF00
7000
7000
E000
FF80
FF80
ENDCHAR
STARTCHAR 01B6
ENCODING 438
SWIDTH 480 0
DWIDTH 8 0
BBX 7 9 1 0
BITMAP
FE
FE
1C
18
FC
70
E0
FE
FE
ENDCHAR
STARTCHAR 01B7
ENCODING 439
SWIDTH 600 0
DWIDTH 10 0
BBX 8 12 1 0
BITMAP
FF
FF
FF
0E
1C
3C
3F
07
03
87
FF
FE
ENDCHAR
STARTCHAR 01B8
ENCODING 440
SWIDTH 600 0
DWIDTH 10 0
BBX 9 12 1 0
BITMAP
FF00
FF00
7F00
3000
3800
3C00
7C00
E000
E000
E000
FF80
7F80
ENDCHAR
STARTCHAR 01B9
ENCODING 441
SWIDTH 540 0
DWIDTH 9 0
BBX 7 12 1 -3
BITMAP
FE
FE
E0
70
38
7C
FC
C0
C0
E0
FE
7E
ENDCHAR
STARTCHAR 01BA
ENCODING 442
SWIDTH 540 0
DWIDTH 9 0
BBX 8 12 0 -3
BITMAP
FE
FE
0E
1C
3C
3E
07
07
3E
FC
E0
E0
ENDCHAR
STARTCHAR 01BB
ENCODING 443
SWIDTH 540 0
DWIDTH 9 0
BBX 8 12 1 0
BITMAP
78
FE
CE
06
0E
0C
FF
FF
70
E0
FF
FF
ENDCHAR
STARTCHAR 01BC
ENCODING 444
SWIDTH 540 0
DWIDTH 9 0
BBX 9 12 0 0
BITMAP
FF00
FF00
FF00
3000
3000
7E00
7F00
0380
0380
4380
7F00
7E00
ENDCHAR
STARTCHAR 01BD
ENCODING 445
SWIDTH 540 0
DWIDTH 9 0
BBX 8 9 0 0
BITMAP
FE
FE
70
78
7E
07
07
7F
7E
ENDCHAR
STARTCHAR 01BE
ENCODING 446
SWIDTH 480 0
DWIDTH 8 0
BBX 6 11 1 0
BITMAP
E0
E0
F8
F8
E0
E0
78
3C
0C
FC
FC
ENDCHAR
STARTCHAR 01BF
ENCODING 447
SWIDTH 600 0
DWIDTH 10 0
BBX 8 12 1 -3
BITMAP
7C
FE
E7
E7
E7
E7
EE
FE
F8
E0
E0
E0
ENDCHAR
STARTCHAR 01C0
ENCODING 448
SWIDTH 300 0
DWIDTH 5 0
BBX 3 16 1 -3
BITMAP
E0
E0
E0
E0
E0
E0
E0
E0
E0
E0
E0
E0
E0
E0
E0
E0
ENDCHAR
STARTCHAR 01C1
ENCODING 449
SWIDTH 540 0
DWIDTH 9 0
BBX 7 16 1 -3
BITMAP
EE
EE
EE
EE
EE
EE
EE
EE
EE
EE
EE
EE
EE
EE
EE
EE
ENDCHAR
STARTCHAR 01C2
ENCODING 450
SWIDTH 600 0
DWIDTH 10 0
BBX 9 16 0 -3
BITMAP
0C00
0C00
0C00
0C00
0C00
FF80
FF80
0C00
0C00
FF80
0C00
0C00
0C00
0C00
0C00
0C00
ENDCHAR
STARTCHAR 01C3
ENCODING 451
SWIDTH 300 0
DWIDTH 5 0
BBX 3 12 1 0
BITMAP
E0
E0
E0
E0
E0
E0
E0
C0
00
C0
E0
E0
ENDCHAR
STARTCHAR 01C4
ENCODING 452
SWIDTH 1320 0
DWIDTH 22 0
BBX 20 16 1 0
BITMAP
000040
0007C0
000180
000000
7C1FF0
FF1FF0
FF9FF0
E1C0E0
E1C1C0
E0C380
E0C380
E0C700
E1CE00
E3CC00
FF9FF0
FE1FF0
ENDCHAR
STARTCHAR 01C5
ENCODING 453
SWIDTH 1200 0
DWIDTH 20 0
BBX 19 13 1 0
BITMAP
000480
7C0780
FF0300
FF8000
E1CFE0
E1CFE0
E0C1C0
E0C380
E0C300
E1C700
E3CE00
FF8FE0
FE1FE0
ENDCHAR
STARTCHAR 01C6
ENCODING 454
SWIDTH 1080 0
DWIDTH 18 0
BBX 17 13 1 0
BITMAP
071200
071E00
070C00
070000
3F3F80
7F3F80
E70700
C70E00
C70C00
C71C00
E73800
7F3F80
3F7F80
ENDCHAR
STARTCHAR 01C7
ENCODING 455
SWIDTH 1080 0
DWIDTH 18 0
BBX 16 12 1 0
BITMAP
E007
E007
E007
E007
E007
E007
E007
E007
E007
E047
FF7F
FF7E
ENDCHAR
STARTCHAR 01C8
ENCODING 456
SWIDTH 840 0
DWIDTH 14 0
BBX 12 16 1 -3
BITMAP
0030
E070
E070
E000
E070
E070
E070
E070
E070
E070
E070
FF70
FF70
0070
01F0
01E0
ENDCHAR
STARTCHAR 01C9
ENCODING 457
SWIDTH 600 0
DWIDTH 10 0
BBX 8 16 1 -3
BITMAP
E2
E7
E7
E0
E7
E7
E7
E7
E7
E7
E7
F7
77
07
1F
1E
ENDCHAR
STARTCHAR 01CA
ENCODING 458
SWIDTH 1260 0
DWIDTH 21 0
BBX 19 12 1 0
BITMAP
C0C060
E0C060
F0C060
F8C060
FCC060
ECC060
E6C060
E7C060
E3C060
E1C8E0
E1CFE0
E0CFC0
ENDCHAR
STARTCHAR 01CB
ENCODING 459
SWIDTH 1020 0
DWIDTH 17 0
BBX 15 16 1 -3
BITMAP
0006
C0CE
E0C6
F0C0
F8C6
FCC6
ECC6
E6C6
E7C6
E3C6
E1C6
E1C6
E0C6
0006
001E
003C
ENDCHAR
STARTCHAR 01CC
ENCODING 460
SWIDTH 900 0
DWIDTH 15 0
BBX 13 16 1 -3
BITMAP
0030
0038
0030
0000
FC30
FE30
E730
E730
E730
E730
E730
E730
E730
0030
00F0
00E0
ENDCHAR
STARTCHAR 01CD
ENCODING 461
SWIDTH 720 0
DWIDTH 12 0
BBX 12 16 0 0
BITMAP
0900
0F00
0600
0000
0600
0F00
0F00
1F80
1980
1980
39C0
3FC0
7FE0
7FE0
6060
E070
ENDCHAR
STARTCHAR 01CE
ENCODING 462
SWIDTH 540 0
DWIDTH 9 0
BBX 7 13 1 0
BITMAP
64
3C
18
00
FC
7E
0E
06
FE
C6
C6
FE
7E
ENDCHAR
STARTCHAR 01CF
ENCODING 463
SWIDTH 300 0
DWIDTH 5 0
BBX 5 16 0 0
BITMAP
08
F8
70
00
70
70
70
70
70
70
70
70
70
70
70
70
ENDCHAR
STARTCHAR 01D0
ENCODING 464
SWIDTH 300 0
DWIDTH 5 0
BBX 5 13 0 0
BITMAP
D8
F0
20
00
70
70
70
70
70
70
70
70
70
ENDCHAR
STARTCHAR 01D1
ENCODING 465
SWIDTH 780 0
DWIDTH 13 0
BBX 11 16 1 0
BITMAP
0100
1F00
0E00
0000
0F00
3F80
7BC0
E0E0
E0E0
E060
E060
E060
E0E0
71E0
7FC0
1F80
ENDCHAR
STARTCHAR 01D2
ENCODING 466
SWIDTH 600 0
DWIDTH 10 0
BBX 8 13 1 0
BITMAP
24
3C
18
00
3C
7E
E7
C3
C3
C3
E7
7F
3E
ENDCHAR
STARTCHAR 01D3
ENCODING 467
SWIDTH 720 0
DWIDTH 12 0
BBX 10 16 1 0
BITMAP
1200
1E00
0C00
0000
E1C0
E1C0
E1C0
E1C0
E1C0
E1C0
E1C0
E1C0
E1C0
E380
7F80
3F00
ENDCHAR
STARTCHAR 01D4
ENCODING 468
SWIDTH 600 0
DWIDTH 10 0
BBX 8 13 1 0
BITMAP
24
3C
18
00
E7
E7
E7
E7
E7
E7
E7
7F
7F
ENDCHAR
STARTCHAR 01D5
ENCODING 469
SWIDTH 720 0
DWIDTH 12 0
BBX 10 16 1 0
BITMAP
1E00
0000
3600
3200
E1C0
E1C0
E1C0
E1C0
E1C0
E1C0
E1C0
E1C0
E1C0
E380
7F80
3F00
ENDCHAR
STARTCHAR 01D6
ENCODING 470
SWIDTH 600 0
DWIDTH 10 0
BBX 8 14 1 0
BITMAP
3C
3C
64
6C
00
E7
E7
E7
E7
E7
E7
E7
7F
7F
ENDCHAR
STARTCHAR 01D7
ENCODING 471
SWIDTH 720 0
DWIDTH 12 0
BBX 10 16 1 0
BITMAP
0400
0C00
3B00
2300
E1C0
E1C0
E1C0
E1C0
E1C0
E1C0
E1C0
E1C0
E1C0
E380
7F80
3F00
ENDCHAR
STARTCHAR 01D8
ENCODING 472
SWIDTH 600 0
DWIDTH 10 0
BBX 8 14 1 1
BITMAP
0C
18
76
66
00
E7
E7
E7
E7
E7
E7
E7
7F
7F
ENDCHAR
STARTCHAR 01D9
ENCODING 473
SWIDTH 720 0
DWIDTH 12 0
BBX 10 16 1 0
BITMAP
1600
0C00
3300
2300
E1C0
E1C0
E1C0
E1C0
E1C0
E1C0
E1C0
E1C0
E1C0
E380
7F80
3F00
ENDCHAR
STARTCHAR 01DA
ENCODING 474
SWIDTH 600 0
DWIDTH 10 0
BBX 8 14 1 0
BITMAP
2C
38
66
66
00
E7
E7
E7
E7
E7
E7
E7
7F
7F
ENDCHAR
STARTCHAR 01DB
ENCODING 475
SWIDTH 720 0
DWIDTH 12 0
BBX 10 16 1 0
BITMAP
1800
1C00
3300
2300
E1C0
E1C0
E1C0
E1C0
E1C0
E1C0
E1C0
E1C0
E1C0
E380
7F80
3F00
ENDCHAR
STARTCHAR 01DC
ENCODING 476
SWIDTH 600 0
DWIDTH 10 0
BBX 8 14 1 1
BITMAP
30
10
76
66
00
E7
E7
E7
E7
E7
E7
E7
7F
7F
ENDCHAR
STARTCHAR 01DD
ENCODING 477
SWIDTH 600 0
DWIDTH 10 0
BBX 8 9 1 0
BITMAP
FC
FE
07
07
FF
FF
C7
FE
7C
ENDCHAR
STARTCHAR 01DE
ENCODING 478
SWIDTH 720 0
DWIDTH 12 0
BBX 12 16 0 0
BITMAP
0F00
0000
1980
0900
0600
0F00
0F00
1F80
1980
1980
39C0
3FC0
7FE0
7FE0
6060
E070
ENDCHAR
STARTCHAR 01DF
ENCODING 479
SWIDTH 540 0
DWIDTH 9 0
BBX 7 14 1 0
BITMAP
7C
7C
6C
6C
00
FC
7E
0E
06
FE
C6
C6
FE
7E
ENDCHAR
STARTCHAR 01E0
ENCODING 480
SWIDTH 720 0
DWIDTH 12 0
BBX 12 16 0 0
BITMAP
0F00
0000
0600
0600
0600
0F00
0F00
1F80
1980
1980
39C0
3FC0
7FE0
7FE0
6060
E070
ENDCHAR
STARTCHAR 01E1
ENCODING 481
SWIDTH 540 0
DWIDTH 9 0
BBX 7 14 1 0
BITMAP
7C
7C
10
38
00
FC
7E
0E
06
FE
C6
C6
FE
7E
ENDCHAR
STARTCHAR 01E2
ENCODING 482
SWIDTH 1020 0
DWIDTH 17 0
BBX 16 15 0 0
BITMAP
01F8
01F8
0000
01FF
01FF
03FF
07E0
06E0
0EFE
1CFE
1FE0
3FE0
30E0
70FF
E0FF
ENDCHAR
STARTCHAR 01E3
ENCODING 483
SWIDTH 900 0
DWIDTH 15 0
BBX 13 12 1 0
BITMAP
1F80
1F80
0000
F9E0
7FF0
0F38
0638
FFF8
C600
C700
FFF0
7FF0
ENDCHAR
STARTCHAR 01E4
ENCODING 484
SWIDTH 720 0
DWIDTH 12 0
BBX 11 12 1 0
BITMAP
0F00
3F80
7980
E000
E000
E000
E1C0
E7E0
E7E0
71C0
7FC0
3FC0
ENDCHAR
STARTCHAR 01E5
ENCODING 485
SWIDTH 600 0
DWIDTH 10 0
BBX 9 12 1 -3
BITMAP
3F00
7F00
E700
CF80
CF80
C700
FF00
7F00
0700
0700
FE00
FC00
ENDCHAR
STARTCHAR 01E6
ENCODING 486
SWIDTH 720 0
DWIDTH 12 0
BBX 10 16 1 0
BITMAP
0100
1F00
0E00
0000
0F00
3F80
7980
E000
E000
E000
E1C0
E1C0
E1C0
71C0
7FC0
3FC0
ENDCHAR
STARTCHAR 01E7
ENCODING 487
SWIDTH 600 0
DWIDTH 10 0
BBX 8 16 1 -3
BITMAP
26
3C
18
00
3F
7F
E7
C7
C7
C7
FF
7F
07
07
FE
FC
ENDCHAR
STARTCHAR 01E8
ENCODING 488
SWIDTH 660 0
DWIDTH 11 0
BBX 10 16 1 0
BITMAP
1200
3E00
0C00
0000
E1C0
E380
E700
EE00
FC00
F800
FC00
FE00
EF00
E780
E380
E1C0
ENDCHAR
STARTCHAR 01E9
ENCODING 489
SWIDTH 600 0
DWIDTH 10 0
BBX 8 16 1 0
BITMAP
48
78
20
E0
E0
E0
E0
E7
EE
FC
F8
F8
FC
EE
E7
E7
ENDCHAR
STARTCHAR 01EA
ENCODING 490
SWIDTH 780 0
DWIDTH 13 0
BBX 11 16 1 -4
BITMAP
0F00
3F80
7BC0
E0E0
E0E0
E060
E060
E060
E0E0
71E0
7FC0
1F80
0600
0600
0F00
0700
ENDCHAR
STARTCHAR 01EB
ENCODING 491
SWIDTH 600 0
DWIDTH 10 0
BBX 8 13 1 -4
BITMAP
3C
7E
E7
C3
C3
C3
E7
7F
3E
18
18
3C
1C
ENDCHAR
STARTCHAR 01EC
ENCODING 492
SWIDTH 780 0
DWIDTH 13 0
BBX 11 19 1 -4
BITMAP
1F00
1F00
0000
0F00
3F80
7BC0
E0E0
E0E0
E060
E060
E060
E0E0
71E0
7FC0
1F80
0600
0600
0F00
0700
ENDCHAR
STARTCHAR 01ED
ENCODING 493
SWIDTH 600 0
DWIDTH 10 0
BBX 8 16 1 -4
BITMAP
7E
7E
00
3C
7E
E7
C3
C3
C3
E7
7F
3E
18
18
3C
1C
ENDCHAR
STARTCHAR 01EE
ENCODING 494
SWIDTH 600 0
DWIDTH 10 0
BBX 8 16 1 0
BITMAP
24
3C
18
00
FF
FF
FF
0E
1C
3C
3F
07
03
87
FF
FE
ENDCHAR
STARTCHAR 01EF
ENCODING 495
SWIDTH 540 0
DWIDTH 9 0
BBX 8 16 0 -3
BITMAP
24
3C
18
00
7F
7F
0E
1C
18
3C
3E
07
07
07
FE
FC
ENDCHAR
STARTCHAR 01F0
ENCODING 496
SWIDTH 300 0
DWIDTH 5 0
BBX 6 16 -1 -3
BITMAP
6C
38
10
00
38
38
38
38
38
38
38
38
38
38
F0
F0
ENDCHAR
STARTCHAR 01F1
ENCODING 497
SWIDTH 1320 0
DWIDTH 22 0
BBX 20 12 1 0
BITMAP
7C1FF0
FF1FF0
FF9FF0
E1C0E0
E1C1C0
E0C380
E0C380
E0C700
E1CE00
E3CC00
FF9FF0
FE1FF0
ENDCHAR
STARTCHAR 01F2
ENCODING 498
SWIDTH 1200 0
DWIDTH 20 0
BBX 19 12 1 0
BITMAP
7C0000
FF0000
FF8000
E1CFE0
E1CFE0
E0C1C0
E0C380
E0C300
E1C700
E3CE00
FF8FE0
FE1FE0
ENDCHAR
STARTCHAR 01F3
ENCODING 499
SWIDTH 1080 0
DWIDTH 18 0
BBX 17 13 1 0
BITMAP
070000
070000
070000
070000
3F3F80
7F3F80
E70700
C70E00
C70C00
C71C00
E73800
7F3F80
3F7F80
ENDCHAR
STARTCHAR 01F4
ENCODING 500
SWIDTH 720 0
DWIDTH 12 0
BBX 10 16 1 0
BITMAP
0200
0700
0E00
0000
0F00
3F80
7980
E000
E000
E000
E1C0
E1C0
E1C0
71C0
7FC0
3FC0
ENDCHAR
STARTCHAR 01F5
ENCODING 501
SWIDTH 600 0
DWIDTH 10 0
BBX 8 16 1 -3
BITMAP
04
0E
18
00
3F
7F
E7
C7
C7
C7
FF
7F
07
07
FE
FC
ENDCHAR
STARTCHAR 01F6
ENCODING 502
SWIDTH 1080 0
DWIDTH 18 0
BBX 16 12 1 0
BITMAP
E1C0
E1C0
E1C0
E1C7
E1C7
FFC7
FFC7
E1C7
E1C7
E1C7
E0FE
E07C
ENDCHAR
STARTCHAR 01F7
ENCODING 503
SWIDTH 660 0
DWIDTH 11 0
BBX 10 15 1 -3
BITMAP
1C00
FF00
FF80
E380
E1C0
E180
E380
E380
E700
FE00
FC00
F000
E000
E000
E000
ENDCHAR
STARTCHAR 01F8
ENCODING 504
SWIDTH 780 0
DWIDTH 13 0
BBX 10 16 1 0
BITMAP
0800
1800
0C00
0400
C0C0
E0C0
F0C0
F8C0
FCC0
ECC0
E6C0
E7C0
E3C0
E1C0
E1C0
E0C0
ENDCHAR
STARTCHAR 01F9
ENCODING 505
SWIDTH 600 0
DWIDTH 10 0
BBX 8 13 1 0
BITMAP
30
38
18
00
FC
FE
E7
E7
E7
E7
E7
E7
E7
ENDCHAR
STARTCHAR 01FA
ENCODING 506
SWIDTH 720 0
DWIDTH 12 0
BBX 12 16 0 0
BITMAP
0200
0E00
0000
0F00
0B00
0F00
0F00
1F80
1B80
1980
39C0
3FC0
7FE0
7FE0
6060
E070
ENDCHAR
STARTCHAR 01FB
ENCODING 507
SWIDTH 540 0
DWIDTH 9 0
BBX 7 16 1 0
BITMAP
08
38
20
38
28
38
00
FC
7E
0E
06
FE
C6
C6
FE
7E
ENDCHAR
STARTCHAR 01FC
ENCODING 508
SWIDTH 1020 0
DWIDTH 17 0
BBX 16 16 0 0
BITMAP
0020
0030
0060
0040
01FF
01FF
03FF
07E0
06E0
0EFE
1CFE
1FE0
3FE0
30E0
70FF
E0FF
ENDCHAR
STARTCHAR 01FD
ENCODING 509
SWIDTH 900 0
DWIDTH 15 0
BBX 13 13 1 0
BITMAP
0100
0300
0600
0000
F9E0
7FF0
0F38
0638
FFF8
C600
C700
FFF0
7FF0
ENDCHAR
STARTCHAR 01FE
ENCODING 510
SWIDTH 780 0
DWIDTH 13 0
BBX 11 17 1 -1
BITMAP
0200
0600
0C00
0000
0F60
3FC0
7BC0
E1E0
E3E0
E660
EC60
FC60
F8E0
71E0
7FC0
FF80
4000
ENDCHAR
STARTCHAR 01FF
ENCODING 511
SWIDTH 600 0
DWIDTH 10 0
BBX 8 13 1 -1
BITMAP
08
1C
30
00
3F
7E
E7
CF
DB
F3
F7
7F
FE
ENDCHAR
STARTCHAR 0200
ENCODING 512
SWIDTH 720 0
DWIDTH 12 0
BBX 12 16 0 0
BITMAP
1200
1B00
0D80
0800
0600
0F00
0F00
1F80
1980
1980
39C0
3FC0
7FE0
7FE0
6060
E070
ENDCHAR
STARTCHAR 0201
ENCODING 513
SWIDTH 540 0
DWIDTH 9 0
BBX 7 13 1 0
BITMAP
D8
CC
64
00
FC
7E
0E
06
FE
C6
C6
FE
7E
ENDCHAR
STARTCHAR 0202
ENCODING 514
SWIDTH 720 0
DWIDTH 12 0
BBX 12 15 0 0
BITMAP
0F00
1980
1980
0600
0F00
0F00
1F80
1980
1980
39C0
3FC0
7FE0
7FE0
6060
E070
ENDCHAR
STARTCHAR 0203
ENCODING 515
SWIDTH 540 0
DWIDTH 9 0
BBX 7 13 1 0
BITMAP
10
7C
6C
00
FC
7E
0E
06
FE
C6
C6
FE
7E
ENDCHAR
STARTCHAR 0204
ENCODING 516
SWIDTH 600 0
DWIDTH 10 0
BBX 9 16 1 0
BITMAP
4400
6C00
3600
0000
FF00
FF00
FF00
E000
E000
FF00
FF00
E000
E000
E000
FF80
FF80
ENDCHAR
STARTCHAR 0205
ENCODING 517
SWIDTH 600 0
DWIDTH 10 0
BBX 8 13 1 0
BITMAP
4C
6C
36
00
3C
7E
E7
C3
FF
C0
E0
7E
3E
ENDCHAR
STARTCHAR 0206
ENCODING 518
SWIDTH 600 0
DWIDTH 10 0
BBX 9 15 1 0
BITMAP
3C00
3600
2600
FF00
FF00
FF00
E000
E000
FF00
FF00
E000
E000
E000
FF80
FF80
ENDCHAR
STARTCHAR 0207
ENCODING 519
SWIDTH 600 0
DWIDTH 10 0
BBX 8 13 1 0
BITMAP
18
3C
66
00
3C
7E
E7
C3
FF
C0
E0
7E
3E
ENDCHAR
STARTCHAR 0208
ENCODING 520
SWIDTH 300 0
DWIDTH 5 0
BBX 6 16 -1 0
BITMAP
48
CC
6C
04
38
38
38
38
38
38
38
38
38
38
38
38
ENDCHAR
STARTCHAR 0209
ENCODING 521
SWIDTH 300 0
DWIDTH 5 0
BBX 6 13 -1 0
BITMAP
D8
CC
6C
00
38
38
38
38
38
38
38
38
38
ENDCHAR
STARTCHAR 020A
ENCODING 522
SWIDTH 300 0
DWIDTH 5 0
BBX 5 15 0 0
BITMAP
78
D8
C8
70
70
70
70
70
70
70
70
70
70
70
70
ENDCHAR
STARTCHAR 020B
ENCODING 523
SWIDTH 300 0
DWIDTH 5 0
BBX 5 13 0 0
BITMAP
20
F8
D8
00
70
70
70
70
70
70
70
70
70
ENDCHAR
STARTCHAR 020C
ENCODING 524
SWIDTH 780 0
DWIDTH 13 0
BBX 11 16 1 0
BITMAP
2200
3700
1B00
0100
0F00
3F80
7BC0
E0E0
E0E0
E060
E060
E060
E0E0
71E0
7FC0
1F80
ENDCHAR
STARTCHAR 020D
ENCODING 525
SWIDTH 600 0
DWIDTH 10 0
BBX 8 13 1 0
BITMAP
4C
6C
36
00
3C
7E
E7
C3
C3
C3
E7
7F
3E
ENDCHAR
STARTCHAR 020E
ENCODING 526
SWIDTH 780 0
DWIDTH 13 0
BBX 11 15 1 0
BITMAP
0F00
1B00
1900
0F00
3F80
7BC0
E0E0
E0E0
E060
E060
E060
E0E0
71E0
7FC0
1F80
ENDCHAR
STARTCHAR 020F
ENCODING 527
SWIDTH 600 0
DWIDTH 10 0
BBX 8 13 1 0
BITMAP
18
3C
66
00
3C
7E
E7
C3
C3
C3
E7
7F
3E
ENDCHAR
STARTCHAR 0210
ENCODING 528
SWIDTH 660 0
DWIDTH 11 0
BBX 10 16 1 0
BITMAP
4800
6C00
3600
2000
7C00
FF00
FF80
E380
E380
E780
FF00
FE00
E700
E700
E380
E1C0
ENDCHAR
STARTCHAR 0211
ENCODING 529
SWIDTH 420 0
DWIDTH 7 0
BBX 7 13 0 0
BITMAP
C8
6C
26
00
3E
7E
70
70
70
70
70
70
70
ENDCHAR
STARTCHAR 0212
ENCODING 530
SWIDTH 660 0
DWIDTH 11 0
BBX 10 15 1 0
BITMAP
3C00
3600
2600
7C00
FF00
FF80
E380
E380
E780
FF00
FE00
E700
E700
E380
E1C0
ENDCHAR
STARTCHAR 0213
ENCODING 531
SWIDTH 420 0
DWIDTH 7 0
BBX 6 13 1 0
BITMAP
30
78
CC
00
7C
FC
E0
E0
E0
E0
E0
E0
E0
ENDCHAR
STARTCHAR 0214
ENCODING 532
SWIDTH 720 0
DWIDTH 12 0
BBX 10 16 1 0
BITMAP
2400
6600
3300
1000
E1C0
E1C0
E1C0
E1C0
E1C0
E1C0
E1C0
E1C0
E1C0
E380
7F80
3F00
ENDCHAR
STARTCHAR 0215
ENCODING 533
SWIDTH 600 0
DWIDTH 10 0
BBX 8 13 1 0
BITMAP
C8
EC
66
00
E7
E7
E7
E7
E7
E7
E7
7F
7F
ENDCHAR
STARTCHAR 0216
ENCODING 534
SWIDTH 720 0
DWIDTH 12 0
BBX 10 15 1 0
BITMAP
1E00
3200
3300
E1C0
E1C0
E1C0
E1C0
E1C0
E1C0
E1C0
E1C0
E1C0
E380
7F80
3F00
ENDCHAR
STARTCHAR 0217
ENCODING 535
SWIDTH 600 0
DWIDTH 10 0
BBX 8 13 1 0
BITMAP
18
3C
66
00
E7
E7
E7
E7
E7
E7
E7
7F
7F
ENDCHAR
STARTCHAR 0218
ENCODING 536
SWIDTH 600 0
DWIDTH 10 0
BBX 8 16 1 -4
BITMAP
3C
7E
E6
C0
E0
FC
3E
0F
07
87
FF
FE
00
18
38
30
ENDCHAR
STARTCHAR 0219
ENCODING 537
SWIDTH 480 0
DWIDTH 8 0
BBX 6 13 1 -4
BITMAP
7C
FC
C0
E0
78
3C
0C
FC
FC
00
30
70
60
ENDCHAR
STARTCHAR 021A
ENCODING 538
SWIDTH 600 0
DWIDTH 10 0
BBX 10 16 0 -4
BITMAP
FFC0
FFC0
FFC0
0C00
0C00
0C00
0C00
0C00
0C00
0C00
0C00
0C00
0000
0C00
1C00
1800
ENDCHAR
STARTCHAR 021B
ENCODING 539
SWIDTH 420 0
DWIDTH 7 0
BBX 6 15 1 -4
BITMAP
E0
E0
FC
FC
E0
E0
E0
E0
E0
FC
7C
00
30
70
60
ENDCHAR
STARTCHAR 021C
ENCODING 540
SWIDTH 540 0
DWIDTH 9 0
BBX 9 15 0 -3
BITMAP
7C00
FE00
6F00
0700
0700
0700
3E00
3E00
0700
0380
0380
0300
0F00
FE00
FC00
ENDCHAR
STARTCHAR 021D
ENCODING 541
SWIDTH 480 0
DWIDTH 8 0
BBX 7 12 0 -3
BITMAP
F8
7E
0E
0E
1C
3C
3E
06
06
1E
FC
F0
ENDCHAR
STARTCHAR 021E
ENCODING 542
SWIDTH 720 0
DWIDTH 12 0
BBX 10 16 1 0
BITMAP
1200
1E00
0C00
0000
E1C0
E1C0
E1C0
E1C0
E1C0
FFC0
FFC0
E1C0
E1C0
E1C0
E1C0
E1C0
ENDCHAR
STARTCHAR 021F
ENCODING 543
SWIDTH 600 0
DWIDTH 10 0
BBX 8 16 1 0
BITMAP
48
78
20
E0
E0
E0
E0
FC
FE
E7
E7
E7
E7
E7
E7
E7
ENDCHAR
STARTCHAR 0220
ENCODING 544
SWIDTH 720 0
DWIDTH 12 0
BBX 9 15 1 -3
BITMAP
7E00
FF00
E780
E180
E180
E180
E180
E180
E180
E180
E180
E180
0180
0180
0180
ENDCHAR
STARTCHAR 0221
ENCODING 545
SWIDTH 780 0
DWIDTH 13 0
BBX 12 16 1 -3
BITMAP
0700
0700
0700
0700
3F00
7F00
E700
C700
C700
C700
E740
7FE0
3F70
0730
0FF0
09E0
ENDCHAR
STARTCHAR 0222
ENCODING 546
SWIDTH 720 0
DWIDTH 12 0
BBX 10 12 1 0
BITMAP
6380
6180
6180
6180
7380
3F00
7F80
E1C0
E1C0
E1C0
FFC0
7F80
ENDCHAR
STARTCHAR 0223
ENCODING 547
SWIDTH 600 0
DWIDTH 10 0
BBX 8 13 1 0
BITMAP
E7
E7
E7
E7
E6
7E
7E
E7
C3
C3
E7
FF
7E
ENDCHAR
STARTCHAR 0224
ENCODING 548
SWIDTH 600 0
DWIDTH 10 0
BBX 9 15 1 -3
BITMAP
FF00
FF00
FF00
0E00
0E00
1C00
3800
7000
7000
E000
FF80
FF80
0380
0F00
0F00
ENDCHAR
STARTCHAR 0225
ENCODING 549
SWIDTH 480 0
DWIDTH 8 0
BBX 7 12 1 -3
BITMAP
FE
FE
1C
18
30
70
E0
FE
FE
06
1E
1C
ENDCHAR
STARTCHAR 0226
ENCODING 550
SWIDTH 720 0
DWIDTH 12 0
BBX 12 15 0 0
BITMAP
0600
0600
0000
0600
0F00
0F00
1F80
1980
1980
39C0
3FC0
7FE0
7FE0
6060
E070
ENDCHAR
STARTCHAR 0227
ENCODING 551
SWIDTH 540 0
DWIDTH 9 0
BBX 7 13 1 0
BITMAP
10
38
38
00
FC
7E
0E
06
FE
C6
C6
FE
7E
ENDCHAR
STARTCHAR 0228
ENCODING 552
SWIDTH 600 0
DWIDTH 10 0
BBX 9 16 1 -4
BITMAP
FF00
FF00
FF00
E000
E000
FF00
FF00
E000
E000
E000
FF80
FF80
0800
0C00
3C00
3800
ENDCHAR
STARTCHAR 0229
ENCODING 553
SWIDTH 600 0
DWIDTH 10 0
BBX 8 13 1 -4
BITMAP
3C
7E
E7
C3
FF
C0
E0
7E
3E
18
0C
3C
38
ENDCHAR
STARTCHAR 022A
ENCODING 554
SWIDTH 780 0
DWIDTH 13 0
BBX 11 16 1 0
BITMAP
1F00
0000
1B00
1B00
0F00
3F80
7BC0
E0E0
E0E0
E060
E060
E060
E0E0
71E0
7FC0
1F80
ENDCHAR
STARTCHAR 022B
ENCODING 555
SWIDTH 600 0
DWIDTH 10 0
BBX 8 14 1 0
BITMAP
3C
3C
24
76
00
3C
7E
E7
C3
C3
C3
E7
7F
3E
ENDCHAR
STARTCHAR 022C
ENCODING 556
SWIDTH 780 0
DWIDTH 13 0
BBX 11 16 1 0
BITMAP
1F00
0000
1F00
0200
0F00
3F80
7BC0
E0E0
E0E0
E060
E060
E060
E0E0
71E0
7FC0
1F80
ENDCHAR
STARTCHAR 022D
ENCODING 557
SWIDTH 600 0
DWIDTH 10 0
BBX 8 14 1 0
BITMAP
3C
3C
36
3C
00
3C
7E
E7
C3
C3
C3
E7
7F
3E
ENDCHAR
STARTCHAR 022E
ENCODING 558
SWIDTH 780 0
DWIDTH 13 0
BBX 11 15 1 0
BITMAP
0E00
0E00
0000
0F00
3F80
7BC0
E0E0
E0E0
E060
E060
E060
E0E0
71E0
7FC0
1F80
ENDCHAR
STARTCHAR 022F
ENCODING 559
SWIDTH 600 0
DWIDTH 10 0
BBX 8 13 1 0
BITMAP
08
18
18
00
3C
7E
E7
C3
C3
C3
E7
7F
3E
ENDCHAR
STARTCHAR 0230
ENCODING 560
SWIDTH 780 0
DWIDTH 13 0
BBX 11 16 1 0
BITMAP
1F00
0000
0600
0400
0F00
3F80
7BC0
E0E0
E0E0
E060
E060
E060
E0E0
71E0
7FC0
1F80
ENDCHAR
STARTCHAR 0231
ENCODING 561
SWIDTH 600 0
DWIDTH 10 0
BBX 8 14 1 0
BITMAP
3C
3C
18
18
00
3C
7E
E7
C3
C3
C3
E7
7F
3E
ENDCHAR
STARTCHAR 0232
ENCODING 562
SWIDTH 660 0
DWIDTH 11 0
BBX 11 15 0 0
BITMAP
1F00
1F00
0000
E0E0
70C0
71C0
3980
3B80
1F00
0E00
0E00
0E00
0E00
0E00
0E00
ENDCHAR
STARTCHAR 0233
ENCODING 563
SWIDTH 540 0
DWIDTH 9 0
BBX 9 15 0 -3
BITMAP
3E00
3E00
0000
E380
6380
6300
7700
3700
3600
3E00
1C00
1C00
1800
F800
F000
ENDCHAR
STARTCHAR 0234
ENCODING 564
SWIDTH 480 0
DWIDTH 8 0
BBX 8 16 0 -3
BITMAP
30
30
30
30
30
30
30
30
30
30
34
3F
3B
73
FF
5E
ENDCHAR
STARTCHAR 0235
ENCODING 565
SWIDTH 780 0
DWIDTH 13 0
BBX 12 12 1 -3
BITMAP
FC00
FE00
E700
E700
E700
E700
E7C0
E7E0
E770
0F30
1FE0
09E0
ENDCHAR
STARTCHAR 0236
ENCODING 566
SWIDTH 480 0
DWIDTH 8 0
BBX 8 14 0 -3
BITMAP
30
30
3E
3E
30
30
30
30
34
3F
3B
73
FF
5E
ENDCHAR
STARTCHAR 0237
ENCODING 567
SWIDTH 300 0
DWIDTH 5 0
BBX 5 12 -1 -3
BITMAP
38
38
38
38
38
38
38
38
38
38
F0
F0
ENDCHAR
STARTCHAR 0238
ENCODING 568
SWIDTH 900 0
DWIDTH 15 0
BBX 14 13 1 0
BITMAP
0700
0700
0700
0700
3FF0
7FF8
E738
C718
C71C
C71C
E738
7FF8
3FF0
ENDCHAR
STARTCHAR 0239
ENCODING 569
SWIDTH 900 0
DWIDTH 15 0
BBX 14 12 1 -3
BITMAP
3FE0
7FF8
E738
C718
C71C
C71C
E718
FFF8
7FF0
0700
0700
0700
ENDCHAR
STARTCHAR 023A
ENCODING 570
SWIDTH 720 0
DWIDTH 12 0
BBX 12 14 0 -2
BITMAP
00C0
0680
0F80
0F80
1F80
1B80
1BC0
3AC0
36E0
7FE0
7FE0
6C70
EC70
0800
ENDCHAR
STARTCHAR 023B
ENCODING 571
SWIDTH 660 0
DWIDTH 11 0
BBX 9 14 1 -2
BITMAP
0180
0F80
3F80
7F80
E300
E200
E600
E600
E400
EC00
FC80
7F80
3F80
1800
ENDCHAR
STARTCHAR 023C
ENCODING 572
SWIDTH 540 0
DWIDTH 9 0
BBX 7 11 1 -1
BITMAP
04
3E
7E
EA
C8
D8
D0
F0
FE
7E
20
ENDCHAR
STARTCHAR 023D
ENCODING 573
SWIDTH 600 0
DWIDTH 10 0
BBX 9 12 0 0
BITMAP
3000
3000
3000
3000
3000
FC00
FC00
3000
3000
3000
3F80
3F80
ENDCHAR
STARTCHAR 023E
ENCODING 574
SWIDTH 600 0
DWIDTH 10 0
BBX 11 13 0 0
BITMAP
FFE0
FFE0
FFC0
0D80
0F00
0E00
0E00
0C00
1C00
3C00
2C00
6C00
4000
ENDCHAR
STARTCHAR 023F
ENCODING 575
SWIDTH 480 0
DWIDTH 8 0
BBX 6 12 1 -3
BITMAP
7C
FC
C0
E0
78
3C
0C
FC
F8
60
3C
1C
ENDCHAR
STARTCHAR 0240
ENCODING 576
SWIDTH 480 0
DWIDTH 8 0
BBX 7 12 1 -3
BITMAP
FE
FE
1C
18
38
70
E0
C0
F0
38
1E
0E
ENDCHAR
STARTCHAR 0241
ENCODING 577
SWIDTH 480 0
DWIDTH 8 0
BBX 8 12 0 0
BITMAP
3C
FE
6F
07
07
0E
1C
38
30
30
30
30
ENDCHAR
STARTCHAR 0242
ENCODING 578
SWIDTH 480 0
DWIDTH 8 0
BBX 7 9 0 0
BITMAP
7C
FE
0E
0E
1E
38
30
30
30
ENDCHAR
STARTCHAR 0243
ENCODING 579
SWIDTH 660 0
DWIDTH 11 0
BBX 10 12 0 0
BITMAP
3E00
7F80
73C0
71C0
71C0
7F80
7FC0
71C0
F8C0
71C0
7FC0
7F80
ENDCHAR
STARTCHAR 0244
ENCODING 580
SWIDTH 720 0
DWIDTH 12 0
BBX 12 12 0 0
BITMAP
30E0
30E0
30E0
30E0
30E0
FFF0
FFF0
30E0
30E0
38E0
3FC0
1F80
ENDCHAR
STARTCHAR 0245
ENCODING 581
SWIDTH 720 0
DWIDTH 12 0
BBX 12 12 0 0
BITMAP
0600
0F00
0F00
1F80
1F80
1980
39C0
31C0
70E0
70E0
60E0
E070
ENDCHAR
STARTCHAR 0246
ENCODING 582
SWIDTH 600 0
DWIDTH 10 0
BBX 9 15 1 -2
BITMAP
0180
FF80
FF00
FF00
E200
E600
FF00
FF00
EC00
E800
F800
FF80
FF80
3000
1000
ENDCHAR
STARTCHAR 0247
ENCODING 583
SWIDTH 600 0
DWIDTH 10 0
BBX 8 11 1 -2
BITMAP
04
3C
7E
EB
CB
FF
D0
F0
FE
7F
20
ENDCHAR
STARTCHAR 0248
ENCODING 584
SWIDTH 540 0
DWIDTH 9 0
BBX 9 12 0 0
BITMAP
0700
0700
0700
0700
0700
1F80
1F80
0700
0700
0700
7E00
FC00
ENDCHAR
STARTCHAR 0249
ENCODING 585
SWIDTH 300 0
DWIDTH 5 0
BBX 6 16 -1 -3
BITMAP
10
38
38
00
38
38
38
38
7C
38
38
38
38
38
F0
F0
ENDCHAR
STARTCHAR 024A
ENCODING 586
SWIDTH 840 0
DWIDTH 14 0
BBX 13 15 1 -3
BITMAP
0F00
3F80
7BC0
E0E0
E0E0
E060
E060
E060
E0E0
71E0
7FE0
1F60
0060
0078
0038
ENDCHAR
STARTCHAR 024B
ENCODING 587
SWIDTH 600 0
DWIDTH 10 0
BBX 10 12 1 -3
BITMAP
3F00
7F00
E700
C700
C700
C700
E700
FF00
7F00
0700
03C0
03C0
ENDCHAR
STARTCHAR 024C
ENCODING 588
SWIDTH 660 0
DWIDTH 11 0
BBX 11 12 0 0
BITMAP
3E00
3F80
3FC0
31C0
30C0
31C0
FF80
FF00
3380
31C0
31C0
30E0
ENDCHAR
STARTCHAR 024D
ENCODING 589
SWIDTH 420 0
DWIDTH 7 0
BBX 7 9 0 0
BITMAP
3E
7E
70
70
FC
FC
70
70
70
ENDCHAR
STARTCHAR 024E
ENCODING 590
SWIDTH 660 0
DWIDTH 11 0
BBX 11 12 0 0
BITMAP
E0E0
70E0
FFE0
FFE0
3B80
1F00
0F00
0E00
0E00
0E00
0E00
0E00
ENDCHAR
STARTCHAR 024F
ENCODING 591
SWIDTH 540 0
DWIDTH 9 0
BBX 9 12 0 -3
BITMAP
E380
6380
7300
FF80
FF80
3600
1E00
1E00
0C00
1C00
F800
F000
ENDCHAR
STARTCHAR 0292
ENCODING 658
SWIDTH 540 0
DWIDTH 9 0
BBX 8 12 0 -3
BITMAP
7F
7F
0E
1C
18
3C
3E
07
07
07
FE
FC
ENDCHAR
STARTCHAR 02BC
ENCODING 700
SWIDTH 300 0
DWIDTH 5 0
BBX 3 4 1 9
BITMAP
60
60
C0
C0
ENDCHAR
STARTCHAR 02C6
ENCODING 710
SWIDTH 420 0
DWIDTH 7 0
BBX 5 3 1 10
BITMAP
20
70
D8
ENDCHAR
STARTCHAR 02C7
ENCODING 711
SWIDTH 360 0
DWIDTH 6 0
BBX 5 3 1 10
BITMAP
D8
F0
60
ENDCHAR
STARTCHAR 02C9
ENCODING 713
SWIDTH 360 0
DWIDTH 6 0
BBX 6 2 0 10
BITMAP
FC
FC
ENDCHAR
STARTCHAR 02D8
ENCODING 728
SWIDTH 420 0
DWIDTH 7 0
BBX 5 3 1 10
BITMAP
98
F8
70
ENDCHAR
STARTCHAR 02D9
ENCODING 729
SWIDTH 240 0
DWIDTH 4 0
BBX 2 3 1 10
BITMAP
40
C0
C0
ENDCHAR
STARTCHAR 02DA
ENCODING 730
SWIDTH 300 0
DWIDTH 5 0
BBX 4 4 1 10
BITMAP
40
E0
B0
E0
ENDCHAR
STARTCHAR 02DB
ENCODING 731
SWIDTH 300 0
DWIDTH 5 0
BBX 3 4 1 -4
BITMAP
60
C0
E0
60
ENDCHAR
STARTCHAR 02DC
ENCODING 732
SWIDTH 360 0
DWIDTH 6 0
BBX 6 2 0 11
BITMAP
FC
D8
ENDCHAR
STARTCHAR 02DD
ENCODING 733
SWIDTH 420 0
DWIDTH 7 0
BBX 6 3 1 10
BITMAP
6C
CC
D8
ENDCHAR
STARTCHAR 0311
ENCODING 785
SWIDTH 420 0
DWIDTH 7 0
BBX 5 3 1 10
BITMAP
60
F8
98
ENDCHAR
STARTCHAR 0384
ENCODING 900
SWIDTH 420 0
DWIDTH 7 0
BBX 4 3 2 11
BITMAP
70
60
C0
ENDCHAR
STARTCHAR 0385
ENCODING 901
SWIDTH 600 0
DWIDTH 10 0
BBX 8 4 1 10
BITMAP
08
4C
FB
D3
ENDCHAR
STARTCHAR 0386
ENCODING 902
SWIDTH 720 0
DWIDTH 12 0
BBX 12 12 0 0
BITMAP
6600
6F00
CF00
DF80
1980
1980
39C0
3FC0
7FE0
7FE0
6060
E070
ENDCHAR
STARTCHAR 0388
ENCODING 904
SWIDTH 720 0
DWIDTH 12 0
BBX 12 12 0 0
BITMAP
4FE0
EFE0
CFE0
CC00
0C00
0FE0
0FE0
0C00
0C00
0C00
0FF0
0FF0
ENDCHAR
STARTCHAR 0389
ENCODING 905
SWIDTH 900 0
DWIDTH 15 0
BBX 13 12 0 0
BITMAP
4C18
EC18
CC18
CC18
0C18
0FF8
0FF8
0C18
0C18
0C18
0C18
0C18
ENDCHAR
STARTCHAR 038A
ENCODING 906
SWIDTH 480 0
DWIDTH 8 0
BBX 6 12 0 0
BITMAP
4C
EC
CC
CC
0C
0C
0C
0C
0C
0C
0C
0C
ENDCHAR
STARTCHAR 038C
ENCODING 908
SWIDTH 900 0
DWIDTH 15 0
BBX 14 12 0 0
BITMAP
43C0
EFF0
CF78
DC38
181C
181C
381C
181C
1C1C
1E38
0FF8
07E0
ENDCHAR
STARTCHAR 038E
ENCODING 910
SWIDTH 840 0
DWIDTH 14 0
BBX 14 12 0 0
BITMAP
5C1C
EE1C
CE38
C738
0370
03E0
01E0
01C0
00C0
00C0
00C0
00C0
ENDCHAR
STARTCHAR 038F
ENCODING 911
SWIDTH 900 0
DWIDTH 15 0
BBX 14 12 0 0
BITMAP
43C0
EFF0
DE78
DC38
381C
381C
381C
1818
1C38
0E70
3E7C
3E7C
ENDCHAR
STARTCHAR 0390
ENCODING 912
SWIDTH 300 0
DWIDTH 5 0
BBX 8 13 -1 1
BITMAP
1A
DF
D3
00
38
38
38
38
38
38
38
3C
1C
ENDCHAR
STARTCHAR 0391
ENCODING 913
SWIDTH 720 0
DWIDTH 12 0
BBX 12 12 0 0
BITMAP
0600
0F00
0F00
1F80
1980
1980
39C0
3FC0
7FE0
7FE0
6060
E070
ENDCHAR
STARTCHAR 0392
ENCODING 914
SWIDTH 660 0
DWIDTH 11 0
BBX 9 12 1 0
BITMAP
7C00
FF00
E780
E380
E380
FF00
FF80
E380
E180
E380
FF80
FF00
ENDCHAR
STARTCHAR 0393
ENCODING 915
SWIDTH 600 0
DWIDTH 10 0
BBX 8 12 1 0
BITMAP
FF
FF
FF
E0
E0
E0
E0
E0
E0
E0
E0
E0
ENDCHAR
STARTCHAR 0394
ENCODING 916
SWIDTH 720 0
DWIDTH 12 0
BBX 11 12 0 0
BITMAP
0600
0E00
0F00
1F00
1B80
3980
3980
31C0
70C0
70E0
7FE0
FFE0
ENDCHAR
STARTCHAR 0395
ENCODING 917
SWIDTH 600 0
DWIDTH 10 0
BBX 9 12 1 0
BITMAP
FF00
FF00
FF00
E000
E000
FF00
FF00
E000
E000
E000
FF80
FF80
ENDCHAR
STARTCHAR 0396
ENCODING 918
SWIDTH 600 0
DWIDTH 10 0
BBX 9 12 1 0
BITMAP
FF00
FF00
FF00
0E00
0E00
1C00
3800
7000
7000
E000
FF80
FF80
ENDCHAR
STARTCHAR 0397
ENCODING 919
SWIDTH 720 0
DWIDTH 12 0
BBX 10 12 1 0
BITMAP
E1C0
E1C0
E1C0
E1C0
E1C0
FFC0
FFC0
E1C0
E1C0
E1C0
E1C0
E1C0
ENDCHAR
STARTCHAR 0398
ENCODING 920
SWIDTH 780 0
DWIDTH 13 0
BBX 11 12 1 0
BITMAP
0F00
3F80
7BC0
E0E0
E0E0
EE60
EE60
E060
E0E0
71E0
7FC0
1F80
ENDCHAR
STARTCHAR 0399
ENCODING 921
SWIDTH 300 0
DWIDTH 5 0
BBX 3 12 1 0
BITMAP
E0
E0
E0
E0
E0
E0
E0
E0
E0
E0
E0
E0
ENDCHAR
STARTCHAR 039A
ENCODING 922
SWIDTH 660 0
DWIDTH 11 0
BBX 10 12 1 0
BITMAP
E1C0
E380
E700
EE00
FC00
F800
FC00
FE00
EF00
E780
E380
E1C0
ENDCHAR
STARTCHAR 039B
ENCODING 923
SWIDTH 720 0
DWIDTH 12 0
BBX 12 12 0 0
BITMAP
0600
0F00
0F00
1F80
1F80
1980
39C0
31C0
70E0
70E0
60E0
E070
ENDCHAR
STARTCHAR 039C
ENCODING 924
SWIDTH 900 0
DWIDTH 15 0
BBX 13 12 1 0
BITMAP
6030
7070
7070
78F0
F8F0
FDF8
EDB8
EFB8
E738
E738
E238
E038
ENDCHAR
STARTCHAR 039D
ENCODING 925
SWIDTH 780 0
DWIDTH 13 0
BBX 10 12 1 0
BITMAP
C0C0
E0C0
F0C0
F8C0
FCC0
ECC0
E6C0
E7C0
E3C0
E1C0
E1C0
E0C0
ENDCHAR
STARTCHAR 039E
ENCODING 926
SWIDTH 540 0
DWIDTH 9 0
BBX 8 12 1 0
BITMAP
FF
FF
FF
00
00
FE
FE
00
00
00
FF
FF
ENDCHAR
STARTCHAR 039F
ENCODING 927
SWIDTH 780 0
DWIDTH 13 0
BBX 11 12 1 0
BITMAP
0F00
3F80
7BC0
E0E0
E0E0
E060
E060
E060
E0E0
71E0
7FC0
1F80
ENDCHAR
STARTCHAR 03A0
ENCODING 928
SWIDTH 720 0
DWIDTH 12 0
BBX 10 12 1 0
BITMAP
FFC0
FFC0
FFC0
E1C0
E1C0
E1C0
E1C0
E1C0
E1C0
E1C0
E1C0
E1C0
ENDCHAR
STARTCHAR 03A1
ENCODING 929
SWIDTH 660 0
DWIDTH 11 0
BBX 9 12 1 0
BITMAP
7C00
FF00
FF80
E380
E380
E380
FF80
FE00
E000
E000
E000
E000
ENDCHAR
STARTCHAR 03A3
ENCODING 931
SWIDTH 600 0
DWIDTH 10 0
BBX 8 12 1 0
BITMAP
FF
FF
FF
70
38
1C
1C
38
70
E0
FF
FF
ENDCHAR
STARTCHAR 03A4
ENCODING 932
SWIDTH 600 0
DWIDTH 10 0
BBX 10 12 0 0
BITMAP
FFC0
FFC0
FFC0
0C00
0C00
0C00
0C00
0C00
0C00
0C00
0C00
0C00
ENDCHAR
STARTCHAR 03A5
ENCODING 933
SWIDTH 660 0
DWIDTH 11 0
BBX 11 12 0 0
BITMAP
E0E0
70C0
71C0
3980
3B80
1F00
0E00
0E00
0E00
0E00
0E00
0E00
ENDCHAR
STARTCHAR 03A6
ENCODING 934
SWIDTH 900 0
DWIDTH 15 0
BBX 13 12 1 0
BITMAP
0700
1FC0
7FE0
F770
E738
C738
C738
E730
7FF0
3FE0
0F80
0700
ENDCHAR
STARTCHAR 03A7
ENCODING 935
SWIDTH 660 0
DWIDTH 11 0
BBX 11 12 0 0
BITMAP
F0E0
71C0
39C0
3B80
1F00
0F00
0F00
1F00
3B80
39C0
71C0
E0E0
ENDCHAR
STARTCHAR 03A8
ENCODING 936
SWIDTH 840 0
DWIDTH 14 0
BBX 12 12 1 0
BITMAP
E670
E670
E670
E670
E670
E670
E670
7FE0
3FC0
0600
0600
0600
ENDCHAR
STARTCHAR 03A9
ENCODING 937
SWIDTH 780 0
DWIDTH 13 0
BBX 11 12 1 0
BITMAP
1F00
3F80
7BC0
E0E0
E0E0
E0E0
E0E0
E0E0
60C0
71C0
FBE0
FBE0
ENDCHAR
STARTCHAR 03AA
ENCODING 938
SWIDTH 300 0
DWIDTH 5 0
BBX 6 15 0 0
BITMAP
DC
DC
00
70
70
70
70
70
70
70
70
70
70
70
70
ENDCHAR
STARTCHAR 03AB
ENCODING 939
SWIDTH 660 0
DWIDTH 11 0
BBX 11 15 0 0
BITMAP
3B00
3B00
0000
E0E0
70C0
71C0
3980
3B80
1F00
0E00
0E00
0E00
0E00
0E00
0E00
ENDCHAR
STARTCHAR 03AC
ENCODING 940
SWIDTH 600 0
DWIDTH 10 0
BBX 9 13 1 1
BITMAP
0E00
0C00
1800
0000
3F00
7F00
E700
C700
C700
C700
E700
FF80
7F80
ENDCHAR
STARTCHAR 03AD
ENCODING 941
SWIDTH 540 0
DWIDTH 9 0
BBX 7 14 1 0
BITMAP
08
0C
18
30
00
7E
FC
E0
E0
78
E0
C0
FE
7E
ENDCHAR
STARTCHAR 03AE
ENCODING 942
SWIDTH 600 0
DWIDTH 10 0
BBX 8 16 1 -2
BITMAP
0C
18
18
00
FC
FE
E7
E7
E7
E7
E7
E7
E7
07
07
07
ENDCHAR
STARTCHAR 03AF
ENCODING 943
SWIDTH 300 0
DWIDTH 5 0
BBX 4 13 1 1
BITMAP
70
60
C0
00
E0
E0
E0
E0
E0
E0
E0
F0
70
ENDCHAR
STARTCHAR 03B0
ENCODING 944
SWIDTH 600 0
DWIDTH 10 0
BBX 8 14 1 0
BITMAP
08
4C
FB
D3
00
E7
E7
E7
E7
E7
E7
E7
7E
7E
ENDCHAR
STARTCHAR 03B1
ENCODING 945
SWIDTH 600 0
DWIDTH 10 0
BBX 9 9 1 0
BITMAP
3F00
7F00
E700
C700
C700
C700
E700
FF80
7F80
ENDCHAR
STARTCHAR 03B2
ENCODING 946
SWIDTH 660 0
DWIDTH 11 0
BBX 9 16 1 -3
BITMAP
3C00
7F00
E700
E300
E700
EE00
EF00
E780
E380
E380
E380
FF00
FE00
E000
E000
E000
ENDCHAR
STARTCHAR 03B3
ENCODING 947
SWIDTH 540 0
DWIDTH 9 0
BBX 9 12 0 -3
BITMAP
E380
6380
6300
7300
3700
3600
3E00
3C00
1C00
1800
1C00
1C00
ENDCHAR
STARTCHAR 03B4
ENCODING 948
SWIDTH 600 0
DWIDTH 10 0
BBX 8 13 1 0
BITMAP
3E
7E
70
70
3C
7E
E7
E3
C3
C3
E7
FF
7E
ENDCHAR
STARTCHAR 03B5
ENCODING 949
SWIDTH 540 0
DWIDTH 9 0
BBX 7 9 1 0
BITMAP
7E
FC
E0
E0
78
E0
C0
FE
7E
ENDCHAR
STARTCHAR 03B6
ENCODING 950
SWIDTH 480 0
DWIDTH 8 0
BBX 7 16 1 -3
BITMAP
FE
FE
0E
18
38
70
60
E0
E0
E0
F0
7C
1E
06
06
0E
ENDCHAR
STARTCHAR 03B7
ENCODING 951
SWIDTH 600 0
DWIDTH 10 0
BBX 8 12 1 -3
BITMAP
FC
FE
E7
E7
E7
E7
E7
E7
E7
07
07
07
ENDCHAR
STARTCHAR 03B8
ENCODING 952
SWIDTH 600 0
DWIDTH 10 0
BBX 8 13 1 0
BITMAP
3C
7E
E7
E3
C3
C3
FF
FF
C3
E3
E7
7E
3C
ENDCHAR
STARTCHAR 03B9
ENCODING 953
SWIDTH 300 0
DWIDTH 5 0
BBX 4 9 1 0
BITMAP
E0
E0
E0
E0
E0
E0
E0
F0
70
ENDCHAR
STARTCHAR 03BA
ENCODING 954
SWIDTH 600 0
DWIDTH 10 0
BBX 8 9 1 0
BITMAP
E7
EE
EC
F8
F8
FC
EE
E7
E7
ENDCHAR
STARTCHAR 03BB
ENCODING 955
SWIDTH 540 0
DWIDTH 9 0
BBX 9 13 0 0
BITMAP
F000
7800
1800
1C00
1C00
1E00
3E00
3600
3700
7700
6300
6380
E380
ENDCHAR
STARTCHAR 03BC
ENCODING 956
SWIDTH 600 0
DWIDTH 10 0
BBX 8 12 1 -3
BITMAP
E7
E7
E7
E7
E7
E7
E7
FF
FF
E0
E0
E0
ENDCHAR
STARTCHAR 03BD
ENCODING 957
SWIDTH 540 0
DWIDTH 9 0
BBX 9 9 0 0
BITMAP
E380
6380
6300
7700
3700
3600
3E00
1C00
1C00
ENDCHAR
STARTCHAR 03BE
ENCODING 958
SWIDTH 540 0
DWIDTH 9 0
BBX 7 16 1 -3
BITMAP
3E
7E
60
E0
60
7E
7E
E0
C0
C0
E0
7C
3E
06
06
0E
ENDCHAR
STARTCHAR 03BF
ENCODING 959
SWIDTH 600 0
DWIDTH 10 0
BBX 8 9 1 0
BITMAP
3C
7E
E7
C3
C3
C3
E7
7F
3E
ENDCHAR
STARTCHAR 03C0
ENCODING 960
SWIDTH 600 0
DWIDTH 10 0
BBX 8 9 1 0
BITMAP
FF
FF
E7
E7
E7
E7
E7
E7
E7
ENDCHAR
STARTCHAR 03C1
ENCODING 961
SWIDTH 600 0
DWIDTH 10 0
BBX 8 12 1 -3
BITMAP
3C
7F
E7
E3
E3
E3
E7
FF
FE
E0
E0
E0
ENDCHAR
STARTCHAR 03C2
ENCODING 962
SWIDTH 480 0
DWIDTH 8 0
BBX 7 12 1 -3
BITMAP
3E
7C
E0
C0
C0
C0
E0
7C
3E
0E
0E
0C
ENDCHAR
STARTCHAR 03C3
ENCODING 963
SWIDTH 660 0
DWIDTH 11 0
BBX 9 9 1 0
BITMAP
1F80
7F80
E700
C300
C300
C300
E700
7F00
3E00
ENDCHAR
STARTCHAR 03C4
ENCODING 964
SWIDTH 480 0
DWIDTH 8 0
BBX 8 9 0 0
BITMAP
FF
FF
38
38
38
38
38
1E
1E
ENDCHAR
STARTCHAR 03C5
ENCODING 965
SWIDTH 600 0
DWIDTH 10 0
BBX 8 9 1 0
BITMAP
E7
E7
E7
E7
E7
E7
E7
7E
7E
ENDCHAR
STARTCHAR 03C6
ENCODING 966
SWIDTH 780 0
DWIDTH 13 0
BBX 11 12 1 -3
BITMAP
1F00
7FC0
EEE0
CE60
CE60
CE60
EEE0
7FC0
3F80
0E00
0E00
0E00
ENDCHAR
STARTCHAR 03C7
ENCODING 967
SWIDTH 540 0
DWIDTH 9 0
BBX 9 9 0 0
BITMAP
E380
7300
3600
1E00
1C00
3E00
3600
7300
E380
ENDCHAR
STARTCHAR 03C8
ENCODING 968
SWIDTH 840 0
DWIDTH 14 0
BBX 11 12 1 -3
BITMAP
E660
E660
E660
E660
E660
E660
E6E0
7FE0
3F80
0600
0600
0600
ENDCHAR
STARTCHAR 03C9
ENCODING 969
SWIDTH 840 0
DWIDTH 14 0
BBX 12 9 1 0
BITMAP
6060
6060
E670
C630
C630
C630
E670
FFF0
79E0
ENDCHAR
STARTCHAR 03CA
ENCODING 970
SWIDTH 300 0
DWIDTH 5 0
BBX 7 13 -1 0
BITMAP
44
EE
6C
00
38
38
38
38
38
38
38
3C
1C
ENDCHAR
STARTCHAR 03CB
ENCODING 971
SWIDTH 600 0
DWIDTH 10 0
BBX 8 13 1 0
BITMAP
04
66
66
00
E7
E7
E7
E7
E7
E7
E7
7E
7E
ENDCHAR
STARTCHAR 03CC
ENCODING 972
SWIDTH 600 0
DWIDTH 10 0
BBX 8 13 1 1
BITMAP
0C
18
18
00
3C
7E
E7
C3
C3
C3
E7
7F
3E
ENDCHAR
STARTCHAR 03CD
ENCODING 973
SWIDTH 600 0
DWIDTH 10 0
BBX 8 13 1 1
BITMAP
0C
1C
18
00
E7
E7
E7
E7
E7
E7
E7
7E
7E
ENDCHAR
STARTCHAR 03CE
ENCODING 974
SWIDTH 840 0
DWIDTH 14 0
BBX 12 14 1 0
BITMAP
0200
0300
0600
0400
0000
6060
6060
E670
C630
C630
C630
E670
FFF0
79E0
ENDCHAR
STARTCHAR 0400
ENCODING 1024
SWIDTH 600 0
DWIDTH 10 0
BBX 9 16 1 0
BITMAP
1000
3800
1C00
0000
FF00
FF00
FF00
E000
E000
FF00
FF00
E000
E000
E000
FF80
FF80
ENDCHAR
STARTCHAR 0401
ENCODING 1025
SWIDTH 600 0
DWIDTH 10 0
BBX 9 15 1 0
BITMAP
7600
6600
0000
FF00
FF00
FF00
E000
E000
FF00
FF00
E000
E000
E000
FF80
FF80
ENDCHAR
STARTCHAR 0402
ENCODING 1026
SWIDTH 840 0
DWIDTH 14 0
BBX 13 12 0 0
BITMAP
FFC0
FFC0
FFC0
1C00
1C00
1FE0
1FF0
1C38
1C38
1C38
1CF0
1CE0
ENDCHAR
STARTCHAR 0403
ENCODING 1027
SWIDTH 600 0
DWIDTH 10 0
BBX 8 16 1 0
BITMAP
08
0C
18
10
FF
FF
FF
E0
E0
E0
E0
E0
E0
E0
E0
E0
ENDCHAR
STARTCHAR 0404
ENCODING 1028
SWIDTH 660 0
DWIDTH 11 0
BBX 9 12 1 0
BITMAP
1F00
3F80
7980
E000
E000
FE00
FE00
E000
E000
7080
7F80
3F80
ENDCHAR
STARTCHAR 0405
ENCODING 1029
SWIDTH 600 0
DWIDTH 10 0
BBX 8 12 1 0
BITMAP
3C
7E
E6
C0
E0
FC
3E
0F
07
87
FF
FE
ENDCHAR
STARTCHAR 0406
ENCODING 1030
SWIDTH 300 0
DWIDTH 5 0
BBX 3 12 1 0
BITMAP
E0
E0
E0
E0
E0
E0
E0
E0
E0
E0
E0
E0
ENDCHAR
STARTCHAR 0407
ENCODING 1031
SWIDTH 300 0
DWIDTH 5 0
BBX 6 15 0 0
BITMAP
DC
DC
00
70
70
70
70
70
70
70
70
70
70
70
70
ENDCHAR
STARTCHAR 0408
ENCODING 1032
SWIDTH 540 0
DWIDTH 9 0
BBX 8 12 0 0
BITMAP
07
07
07
07
07
07
07
07
07
07
7E
FC
ENDCHAR
STARTCHAR 0409
ENCODING 1033
SWIDTH 1140 0
DWIDTH 19 0
BBX 18 12 0 0
BITMAP
0FF000
0FF000
0FF000
0C7000
0C7000
0C7F80
0C7FC0
1C71C0
1C71C0
3871C0
F87F80
607F00
ENDCHAR
STARTCHAR 040A
ENCODING 1034
SWIDTH 1080 0
DWIDTH 18 0
BBX 16 12 1 0
BITMAP
E1C0
E1C0
E1C0
E1C0
E1C0
FFFE
FFFF
E1C7
E1C3
E1C7
E1FF
E1FC
ENDCHAR
STARTCHAR 040B
ENCODING 1035
SWIDTH 780 0
DWIDTH 13 0
BBX 12 12 0 0
BITMAP
FFC0
FFC0
FFC0
1C00
1C00
1FE0
1FF0
1C70
1C30
1C30
1C30
1C30
ENDCHAR
STARTCHAR 040C
ENCODING 1036
SWIDTH 660 0
DWIDTH 11 0
BBX 10 16 1 0
BITMAP
0200
0700
0E00
0000
E1C0
E380
E700
EE00
FC00
F800
FC00
FE00
EF00
E780
E380
E1C0
ENDCHAR
STARTCHAR 040D
ENCODING 1037
SWIDTH 780 0
DWIDTH 13 0
BBX 10 16 1 0
BITMAP
0800
1C00
0600
0000
E0C0
E1C0
E3C0
E3C0
E7C0
EEC0
FCC0
F8C0
F8C0
F0C0
E0C0
E0C0
ENDCHAR
STARTCHAR 040E
ENCODING 1038
SWIDTH 660 0
DWIDTH 11 0
BBX 11 15 0 0
BITMAP
1980
0F00
0000
E0E0
70C0
71C0
39C0
3980
1B80
1F00
0F00
0700
0E00
7C00
7800
ENDCHAR
STARTCHAR 040F
ENCODING 1039
SWIDTH 720 0
DWIDTH 12 0
BBX 10 15 1 -3
BITMAP
E1C0
E1C0
E1C0
E1C0
E1C0
E1C0
E1C0
E1C0
E1C0
E1C0
FFC0
FFC0
0C00
0C00
0C00
ENDCHAR
STARTCHAR 0410
ENCODING 1040
SWIDTH 720 0
DWIDTH 12 0
BBX 12 12 0 0
BITMAP
0600
0F00
0F00
1F80
1980
1980
39C0
3FC0
7FE0
7FE0
6060
E070
ENDCHAR
STARTCHAR 0411
ENCODING 1041
SWIDTH 660 0
DWIDTH 11 0
BBX 9 12 1 0
BITMAP
FF00
FF00
FF00
E000
E000
FF00
FF80
E380
E380
E380
FF00
FE00
ENDCHAR
STARTCHAR 0412
ENCODING 1042
SWIDTH 660 0
DWIDTH 11 0
BBX 9 12 1 0
BITMAP
7C00
FF00
E780
E380
E380
FF00
FF80
E380
E180
E380
FF80
FF00
ENDCHAR
STARTCHAR 0413
ENCODING 1043
SWIDTH 600 0
DWIDTH 10 0
BBX 8 12 1 0
BITMAP
FF
FF
FF
E0
E0
E0
E0
E0
E0
E0
E0
E0
ENDCHAR
STARTCHAR 0414
ENCODING 1044
SWIDTH 840 0
DWIDTH 14 0
BBX 13 15 0 -3
BITMAP
0FE0
0FE0
0FE0
0C60
0C60
1C60
1C60
1C60
1860
3860
FFF8
FFF8
E018
E018
E018
ENDCHAR
STARTCHAR 0415
ENCODING 1045
SWIDTH 600 0
DWIDTH 10 0
BBX 9 12 1 0
BITMAP
FF00
FF00
FF00
E000
E000
FF00
FF00
E000
E000
E000
FF80
FF80
ENDCHAR
STARTCHAR 0416
ENCODING 1046
SWIDTH 960 0
DWIDTH 16 0
BBX 16 12 0 0
BITMAP
E187
718E
398E
1D9C
1DB8
0FF0
0FF0
1DB8
3D9C
398E
718E
E187
ENDCHAR
STARTCHAR 0417
ENCODING 1047
SWIDTH 600 0
DWIDTH 10 0
BBX 8 12 1 0
BITMAP
7C
FE
CF
07
07
7E
7E
07
03
87
FF
FE
ENDCHAR
STARTCHAR 0418
ENCODING 1048
SWIDTH 780 0
DWIDTH 13 0
BBX 10 12 1 0
BITMAP
E0C0
E1C0
E3C0
E3C0
E7C0
EEC0
FCC0
F8C0
F8C0
F0C0
E0C0
E0C0
ENDCHAR
STARTCHAR 0419
ENCODING 1049
SWIDTH 780 0
DWIDTH 13 0
BBX 10 15 1 0
BITMAP
1B00
1F00
0000
E0C0
E1C0
E3C0
E3C0
E7C0
EEC0
FCC0
F8C0
F8C0
F0C0
E0C0
E0C0
ENDCHAR
STARTCHAR 041A
ENCODING 1050
SWIDTH 660 0
DWIDTH 11 0
BBX 10 12 1 0
BITMAP
E1C0
E380
E700
EE00
FC00
F800
FC00
FE00
EF00
E780
E380
E1C0
ENDCHAR
STARTCHAR 041B
ENCODING 1051
SWIDTH 780 0
DWIDTH 13 0
BBX 12 12 0 0
BITMAP
0FF0
0FF0
0FF0
0C70
0C70
0C70
0C70
1C70
1C70
3870
F870
6070
ENDCHAR
STARTCHAR 041C
ENCODING 1052
SWIDTH 900 0
DWIDTH 15 0
BBX 13 12 1 0
BITMAP
6030
7070
7070
78F0
F8F0
FDF8
EDB8
EFB8
E738
E738
E238
E038
ENDCHAR
STARTCHAR 041D
ENCODING 1053
SWIDTH 720 0
DWIDTH 12 0
BBX 10 12 1 0
BITMAP
E1C0
E1C0
E1C0
E1C0
E1C0
FFC0
FFC0
E1C0
E1C0
E1C0
E1C0
E1C0
ENDCHAR
STARTCHAR 041E
ENCODING 1054
SWIDTH 780 0
DWIDTH 13 0
BBX 11 12 1 0
BITMAP
0F00
3F80
7BC0
E0E0
E0E0
E060
E060
E060
E0E0
71E0
7FC0
1F80
ENDCHAR
STARTCHAR 041F
ENCODING 1055
SWIDTH 720 0
DWIDTH 12 0
BBX 10 12 1 0
BITMAP
FFC0
FFC0
FFC0
E1C0
E1C0
E1C0
E1C0
E1C0
E1C0
E1C0
E1C0
E1C0
ENDCHAR
STARTCHAR 0420
ENCODING 1056
SWIDTH 660 0
DWIDTH 11 0
BBX 9 12 1 0
BITMAP
7C00
FF00
FF80
E380
E380
E380
FF80
FE00
E000
E000
E000
E000
ENDCHAR
STARTCHAR 0421
ENCODING 1057
SWIDTH 660 0
DWIDTH 11 0
BBX 9 12 1 0
BITMAP
0F00
3F80
7F80
E000
E000
E000
E000
E000
E000
F080
7F80
3F80
ENDCHAR
STARTCHAR 0422
ENCODING 1058
SWIDTH 600 0
DWIDTH 10 0
BBX 10 12 0 0
BITMAP
FFC0
FFC0
FFC0
0C00
0C00
0C00
0C00
0C00
0C00
0C00
0C00
0C00
ENDCHAR
STARTCHAR 0423
ENCODING 1059
SWIDTH 660 0
DWIDTH 11 0
BBX 11 12 0 0
BITMAP
E0E0
70C0
71C0
39C0
3980
1B80
1F00
0F00
0700
0E00
7C00
7800
ENDCHAR
STARTCHAR 0424
ENCODING 1060
SWIDTH 900 0
DWIDTH 15 0
BBX 13 12 1 0
BITMAP
0700
1FC0
7FE0
F770
E738
C738
C738
E730
7FF0
3FE0
0F80
0700
ENDCHAR
STARTCHAR 0425
ENCODING 1061
SWIDTH 660 0
DWIDTH 11 0
BBX 11 12 0 0
BITMAP
F0E0
71C0
39C0
3B80
1F00
0F00
0F00
1F00
3B80
39C0
71C0
E0E0
ENDCHAR
STARTCHAR 0426
ENCODING 1062
SWIDTH 780 0
DWIDTH 13 0
BBX 12 15 1 -3
BITMAP
E1C0
E1C0
E1C0
E1C0
E1C0
E1C0
E1C0
E1C0
E1C0
E1C0
FFF0
FFF0
0070
0070
0070
ENDCHAR
STARTCHAR 0427
ENCODING 1063
SWIDTH 660 0
DWIDTH 11 0
BBX 9 12 1 0
BITMAP
C380
C380
C380
C380
C380
E380
FF80
7F80
0380
0380
0380
0380
ENDCHAR
STARTCHAR 0428
ENCODING 1064
SWIDTH 1020 0
DWIDTH 17 0
BBX 15 12 1 0
BITMAP
E38E
E38E
E38E
E38E
E38E
E38E
E38E
E38E
E38E
E38E
FFFE
FFFE
ENDCHAR
STARTCHAR 0429
ENCODING 1065
SWIDTH 1080 0
DWIDTH 18 0
BBX 17 15 1 -3
BITMAP
E38E00
E38E00
E38E00
E38E00
E38E00
E38E00
E38E00
E38E00
E38E00
E38E00
FFFF80
FFFF80
000380
000380
000380
ENDCHAR
STARTCHAR 042A
ENCODING 1066
SWIDTH 780 0
DWIDTH 13 0
BBX 12 12 0 0
BITMAP
FC00
FC00
FC00
1C00
1F80
1FE0
1DF0
1C70
1C70
1C70
1FE0
1FC0
ENDCHAR
STARTCHAR 042B
ENCODING 1067
SWIDTH 900 0
DWIDTH 15 0
BBX 13 12 1 0
BITMAP
E018
E018
E018
E018
FC18
FF18
EF98
E398
E398
E398
FF18
FE18
ENDCHAR
STARTCHAR 042C
ENCODING 1068
SWIDTH 660 0
DWIDTH 11 0
BBX 9 12 1 0
BITMAP
E000
E000
E000
E000
FC00
FF00
EF80
E380
E180
E380
FF80
FE00
ENDCHAR
STARTCHAR 042D
ENCODING 1069
SWIDTH 660 0
DWIDTH 11 0
BBX 10 12 1 0
BITMAP
7C00
FF00
EF80
0380
0180
3F80
3FC0
0180
0380
8780
FF00
FE00
ENDCHAR
STARTCHAR 042E
ENCODING 1070
SWIDTH 1080 0
DWIDTH 18 0
BBX 16 12 1 0
BITMAP
E078
E1FC
E3DE
E707
E707
FF07
FF07
E707
E707
E38E
E3FE
E0FC
ENDCHAR
STARTCHAR 042F
ENCODING 1071
SWIDTH 660 0
DWIDTH 11 0
BBX 9 12 1 0
BITMAP
0F00
7F80
7F80
E180
E180
7180
7F80
3F80
3180
7180
E180
E180
ENDCHAR
STARTCHAR 0430
ENCODING 1072
SWIDTH 540 0
DWIDTH 9 0
BBX 7 9 1 0
BITMAP
FC
7E
0E
06
FE
C6
C6
FE
7E
ENDCHAR
STARTCHAR 0431
ENCODING 1073
SWIDTH 600 0
DWIDTH 10 0
BBX 8 13 1 0
BITMAP
07
3F
7C
60
E0
FE
FF
C7
C3
C3
E7
7F
7E
ENDCHAR
STARTCHAR 0432
ENCODING 1074
SWIDTH 600 0
DWIDTH 10 0
BBX 8 9 1 0
BITMAP
FC
FF
E7
E7
FE
E7
E3
FF
FE
ENDCHAR
STARTCHAR 0433
ENCODING 1075
SWIDTH 480 0
DWIDTH 8 0
BBX 6 9 1 0
BITMAP
FC
FC
E0
E0
E0
E0
E0
E0
E0
ENDCHAR
STARTCHAR 0434
ENCODING 1076
SWIDTH 660 0
DWIDTH 11 0
BBX 11 12 0 -3
BITMAP
1F80
1F80
1980
1980
3980
3980
3180
FFE0
FFE0
C060
C060
C060
ENDCHAR
STARTCHAR 0435
ENCODING 1077
SWIDTH 600 0
DWIDTH 10 0
BBX 8 9 1 0
BITMAP
3C
7E
E7
C3
FF
C0
E0
7E
3E
ENDCHAR
STARTCHAR 0436
ENCODING 1078
SWIDTH 840 0
DWIDTH 14 0
BBX 14 9 0 0
BITMAP
631C
7338
3B70
1FE0
0FE0
1F60
3B70
7338
E31C
ENDCHAR
STARTCHAR 0437
ENCODING 1079
SWIDTH 480 0
DWIDTH 8 0
BBX 7 9 1 0
BITMAP
F8
FC
0C
0C
78
1C
0E
FE
FC
ENDCHAR
STARTCHAR 0438
ENCODING 1080
SWIDTH 600 0
DWIDTH 10 0
BBX 8 9 1 0
BITMAP
E3
E7
EF
EF
FB
FB
F3
E3
E3
ENDCHAR
STARTCHAR 0439
ENCODING 1081
SWIDTH 600 0
DWIDTH 10 0
BBX 8 13 1 0
BITMAP
24
3E
3C
00
E3
E7
EF
EF
FB
FB
F3
E3
E3
ENDCHAR
STARTCHAR 043A
ENCODING 1082
SWIDTH 600 0
DWIDTH 10 0
BBX 8 9 1 0
BITMAP
E7
EE
FC
F8
F8
FC
EE
E7
E7
ENDCHAR
STARTCHAR 043B
ENCODING 1083
SWIDTH 600 0
DWIDTH 10 0
BBX 9 9 0 0
BITMAP
1F80
1F80
1980
1980
1980
3980
3180
F180
E180
ENDCHAR
STARTCHAR 043C
ENCODING 1084
SWIDTH 780 0
DWIDTH 13 0
BBX 11 9 1 0
BITMAP
60C0
61C0
F1C0
F3C0
FBC0
FEC0
EEE0
CCE0
C0E0
ENDCHAR
STARTCHAR 043D
ENCODING 1085
SWIDTH 600 0
DWIDTH 10 0
BBX 8 9 1 0
BITMAP
E7
E7
E7
FF
FF
FF
E7
E7
E7
ENDCHAR
STARTCHAR 043E
ENCODING 1086
SWIDTH 600 0
DWIDTH 10 0
BBX 8 9 1 0
BITMAP
3C
7E
E7
C3
C3
C3
E7
7F
3E
ENDCHAR
STARTCHAR 043F
ENCODING 1087
SWIDTH 600 0
DWIDTH 10 0
BBX 8 9 1 0
BITMAP
FF
FF
E7
E7
E7
E7
E7
E7
E7
ENDCHAR
STARTCHAR 0440
ENCODING 1088
SWIDTH 600 0
DWIDTH 10 0
BBX 8 12 1 -3
BITMAP
FC
FE
E7
E3
E3
E3
E7
FF
FE
E0
E0
E0
ENDCHAR
STARTCHAR 0441
ENCODING 1089
SWIDTH 480 0
DWIDTH 8 0
BBX 7 9 1 0
BITMAP
3E
7C
E0
C0
C0
C0
E0
FE
3E
ENDCHAR
STARTCHAR 0442
ENCODING 1090
SWIDTH 540 0
DWIDTH 9 0
BBX 8 9 0 0
BITMAP
FF
FF
1C
1C
1C
1C
1C
1C
1C
ENDCHAR
STARTCHAR 0443
ENCODING 1091
SWIDTH 540 0
DWIDTH 9 0
BBX 9 12 0 -3
BITMAP
E380
6380
6300
7700
3700
3600
3E00
1C00
1C00
1800
F800
F000
ENDCHAR
STARTCHAR 0444
ENCODING 1092
SWIDTH 780 0
DWIDTH 13 0
BBX 11 16 1 -3
BITMAP
0E00
0E00
0E00
0E00
1F00
7FC0
FEE0
CE60
CE60
CE60
EEE0
7FC0
3F80
0E00
0E00
0E00
ENDCHAR
STARTCHAR 0445
ENCODING 1093
SWIDTH 540 0
DWIDTH 9 0
BBX 9 9 0 0
BITMAP
E380
7300
3600
1E00
1C00
3E00
3600
7300
E380
ENDCHAR
STARTCHAR 0446
ENCODING 1094
SWIDTH 660 0
DWIDTH 11 0
BBX 9 12 1 -3
BITMAP
E700
E700
E700
E700
E700
E700
E700
FF80
FF80
0180
0180
0180
ENDCHAR
STARTCHAR 0447
ENCODING 1095
SWIDTH 540 0
DWIDTH 9 0
BBX 7 9 1 0
BITMAP
C6
C6
C6
C6
FE
7E
06
06
06
ENDCHAR
STARTCHAR 0448
ENCODING 1096
SWIDTH 840 0
DWIDTH 14 0
BBX 12 9 1 0
BITMAP
E630
E630
E630
E630
E630
E630
E630
FFF0
FFF0
ENDCHAR
STARTCHAR 0449
ENCODING 1097
SWIDTH 900 0
DWIDTH 15 0
BBX 14 12 1 -3
BITMAP
E630
E630
E630
E630
E630
E630
E630
FFFC
FFFC
000C
000C
000C
ENDCHAR
STARTCHAR 044A
ENCODING 1098
SWIDTH 660 0
DWIDTH 11 0
BBX 10 9 0 0
BITMAP
F800
F800
3800
3F00
3FC0
39C0
38C0
3FC0
3F80
ENDCHAR
STARTCHAR 044B
ENCODING 1099
SWIDTH 840 0
DWIDTH 14 0
BBX 12 9 1 0
BITMAP
E070
E070
E070
FC70
FE70
E770
E770
FF70
FE70
ENDCHAR
STARTCHAR 044C
ENCODING 1100
SWIDTH 540 0
DWIDTH 9 0
BBX 8 9 1 0
BITMAP
E0
E0
E0
FC
FE
E7
E7
FF
FE
ENDCHAR
STARTCHAR 044D
ENCODING 1101
SWIDTH 540 0
DWIDTH 9 0
BBX 7 9 1 0
BITMAP
F8
FC
0E
06
7E
06
0E
FC
F8
ENDCHAR
STARTCHAR 044E
ENCODING 1102
SWIDTH 900 0
DWIDTH 15 0
BBX 13 9 1 0
BITMAP
E1E0
E7F0
E730
FE38
FE38
FE38
E630
E7F0
E3E0
ENDCHAR
STARTCHAR 044F
ENCODING 1103
SWIDTH 600 0
DWIDTH 10 0
BBX 8 9 1 0
BITMAP
3F
FF
E7
C7
FF
7F
67
E7
C7
ENDCHAR
STARTCHAR 0450
ENCODING 1104
SWIDTH 600 0
DWIDTH 10 0
BBX 8 13 1 0
BITMAP
30
38
1C
00
3C
7E
E7
C3
FF
C0
E0
7E
3E
ENDCHAR
STARTCHAR 0451
ENCODING 1105
SWIDTH 600 0
DWIDTH 10 0
BBX 8 13 1 0
BITMAP
24
66
66
00
3C
7E
E7
C3
FF
C0
E0
7E
3E
ENDCHAR
STARTCHAR 0452
ENCODING 1106
SWIDTH 600 0
DWIDTH 10 0
BBX 9 16 0 -3
BITMAP
7000
7000
FC00
7000
7E00
7F00
7380
7380
7380
7380
7380
7380
7380
0380
0780
0F00
ENDCHAR
STARTCHAR 0453
ENCODING 1107
SWIDTH 480 0
DWIDTH 8 0
BBX 6 13 1 0
BITMAP
18
38
30
00
FC
FC
E0
E0
E0
E0
E0
E0
E0
ENDCHAR
STARTCHAR 0454
ENCODING 1108
SWIDTH 540 0
DWIDTH 9 0
BBX 7 9 1 0
BITMAP
3E
7E
E0
C0
F8
C0
E0
FE
7E
ENDCHAR
STARTCHAR 0455
ENCODING 1109
SWIDTH 480 0
DWIDTH 8 0
BBX 6 9 1 0
BITMAP
7C
FC
C0
E0
78
3C
0C
FC
FC
ENDCHAR
STARTCHAR 0456
ENCODING 1110
SWIDTH 300 0
DWIDTH 5 0
BBX 3 13 1 0
BITMAP
40
E0
E0
00
E0
E0
E0
E0
E0
E0
E0
E0
E0
ENDCHAR
STARTCHAR 0457
ENCODING 1111
SWIDTH 300 0
DWIDTH 5 0
BBX 6 13 -1 0
BITMAP
44
EC
CC
00
38
38
38
38
38
38
38
38
38
ENDCHAR
STARTCHAR 0458
ENCODING 1112
SWIDTH 300 0
DWIDTH 5 0
BBX 5 16 -1 -3
BITMAP
10
38
38
00
38
38
38
38
38
38
38
38
38
38
F0
F0
ENDCHAR
STARTCHAR 0459
ENCODING 1113
SWIDTH 900 0
DWIDTH 15 0
BBX 14 9 0 0
BITMAP
1F80
1F80
1980
19F0
19FC
398C
318C
F1FC
E1F8
ENDCHAR
STARTCHAR 045A
ENCODING 1114
SWIDTH 840 0
DWIDTH 14 0
BBX 13 9 1 0
BITMAP
E700
E700
E700
FFC0
FFF0
FF38
E738
E7F8
E7F0
ENDCHAR
STARTCHAR 045B
ENCODING 1115
SWIDTH 600 0
DWIDTH 10 0
BBX 9 13 0 0
BITMAP
7000
7000
FC00
7000
7E00
7F00
7380
7380
7380
7380
7380
7380
7380
ENDCHAR
STARTCHAR 045C
ENCODING 1116
SWIDTH 600 0
DWIDTH 10 0
BBX 8 13 1 0
BITMAP
0C
1C
18
00
E7
EE
FC
F8
F8
FC
EE
E7
E7
ENDCHAR
STARTCHAR 045D
ENCODING 1117
SWIDTH 600 0
DWIDTH 10 0
BBX 8 13 1 0
BITMAP
30
38
18
00
E3
E7
EF
EF
FB
FB
F3
E3
E3
ENDCHAR
STARTCHAR 045E
ENCODING 1118
SWIDTH 540 0
DWIDTH 9 0
BBX 9 16 0 -3
BITMAP
2200
3E00
1C00
0000
E380
6380
6300
7700
3700
3600
3E00
1C00
1C00
1800
F800
F000
ENDCHAR
STARTCHAR 045F
ENCODING 1119
SWIDTH 600 0
DWIDTH 10 0
BBX 8 12 1 -3
BITMAP
E7
E7
E7
E7
E7
E7
E7
FF
FF
18
18
18
ENDCHAR
STARTCHAR 0462
ENCODING 1122
SWIDTH 720 0
DWIDTH 12 0
BBX 12 12 0 0
BITMAP
1C00
FF80
FF80
1C00
1F80
1FE0
1DE0
1C70
1C70
1CF0
1FE0
1FC0
ENDCHAR
STARTCHAR 0463
ENCODING 1123
SWIDTH 660 0
DWIDTH 11 0
BBX 10 13 0 0
BITMAP
3800
3800
3800
3800
FF00
FF00
3800
3E00
3F80
39C0
39C0
3FC0
3F80
ENDCHAR
STARTCHAR 0472
ENCODING 1138
SWIDTH 780 0
DWIDTH 13 0
BBX 11 12 1 0
BITMAP
0F00
3F80
7BC0
E0E0
E0E0
FEE0
FFE0
E360
E0E0
71E0
7FC0
1F80
ENDCHAR
STARTCHAR 0473
ENCODING 1139
SWIDTH 600 0
DWIDTH 10 0
BBX 8 9 1 0
BITMAP
3C
7E
E7
C3
FF
CF
E7
7F
3E
ENDCHAR
STARTCHAR 0474
ENCODING 1140
SWIDTH 780 0
DWIDTH 13 0
BBX 13 12 0 0
BITMAP
E030
6078
70F8
70E0
30C0
39C0
3980
1980
1F80
0F00
0F00
0E00
ENDCHAR
STARTCHAR 0475
ENCODING 1141
SWIDTH 600 0
DWIDTH 10 0
BBX 10 9 0 0
BITMAP
E1C0
63C0
6300
7700
3600
3600
3E00
1C00
1C00
ENDCHAR
STARTCHAR 048A
ENCODING 1162
SWIDTH 840 0
DWIDTH 14 0
BBX 12 18 1 -3
BITMAP
1B00
1F00
0000
E0C0
E1C0
E3C0
E3C0
E7C0
EEC0
FCC0
F8C0
F8C0
F0C0
E0F0
E0F0
0070
0060
0040
ENDCHAR
STARTCHAR 048B
ENCODING 1163
SWIDTH 660 0
DWIDTH 11 0
BBX 9 16 1 -3
BITMAP
2400
7E00
3C00
0000
C700
C700
CF00
DF00
DF00
F700
F700
E780
C780
0180
0300
0100
ENDCHAR
STARTCHAR 048C
ENCODING 1164
SWIDTH 660 0
DWIDTH 11 0
BBX 10 12 0 0
BITMAP
7000
7000
FC00
7000
7000
7F80
7FC0
71C0
70C0
71C0
7FC0
7F00
ENDCHAR
STARTCHAR 048D
ENCODING 1165
SWIDTH 540 0
DWIDTH 9 0
BBX 9 9 0 0
BITMAP
7000
FC00
7000
7C00
7F00
7380
7380
7F80
7F00
ENDCHAR
STARTCHAR 048E
ENCODING 1166
SWIDTH 660 0
DWIDTH 11 0
BBX 9 12 1 0
BITMAP
7C00
FF00
FF80
E180
ED80
EF80
FF80
FE00
E300
E200
E000
E000
ENDCHAR
STARTCHAR 048F
ENCODING 1167
SWIDTH 600 0
DWIDTH 10 0
BBX 8 12 1 -3
BITMAP
FC
FE
E7
E3
E3
FB
EF
FF
FE
E7
E2
E0
ENDCHAR
STARTCHAR 0490
ENCODING 1168
SWIDTH 600 0
DWIDTH 10 0
BBX 8 14 1 0
BITMAP
03
03
FF
FF
FF
E0
E0
E0
E0
E0
E0
E0
E0
E0
ENDCHAR
STARTCHAR 0491
ENCODING 1169
SWIDTH 480 0
DWIDTH 8 0
BBX 6 11 1 0
BITMAP
0C
0C
FC
FC
E0
E0
E0
E0
E0
E0
E0
ENDCHAR
STARTCHAR 0492
ENCODING 1170
SWIDTH 660 0
DWIDTH 11 0
BBX 9 12 1 0
BITMAP
7F80
7F80
7F80
7000
7000
FE00
FE00
7000
7000
7000
7000
7000
ENDCHAR
STARTCHAR 0493
ENCODING 1171
SWIDTH 540 0
DWIDTH 9 0
BBX 7 9 1 0
BITMAP
7E
7E
70
70
FC
FC
70
70
70
ENDCHAR
STARTCHAR 0494
ENCODING 1172
SWIDTH 660 0
DWIDTH 11 0
BBX 10 15 1 -3
BITMAP
FF00
FF00
FF00
E000
E000
FF00
FF80
E380
E180
E1C0
E180
E180
0380
0F00
0E00
ENDCHAR
STARTCHAR 0495
ENCODING 1173
SWIDTH 540 0
DWIDTH 9 0
BBX 8 12 1 -3
BITMAP
FE
FE
E0
E0
FE
FE
E7
E3
E3
07
1E
1C
ENDCHAR
STARTCHAR 0496
ENCODING 1174
SWIDTH 1020 0
DWIDTH 17 0
BBX 17 15 0 -3
BITMAP
E18700
718E00
398E00
1D9C00
1DB800
0FF000
0FF000
1DB800
3D9C00
398E00
718F80
E18780
000380
000380
000380
ENDCHAR
STARTCHAR 0497
ENCODING 1175
SWIDTH 900 0
DWIDTH 15 0
BBX 14 11 0 -2
BITMAP
631C
7338
3B70
1FE0
0FE0
1F60
3B70
733C
E31C
000C
000C
ENDCHAR
STARTCHAR 0498
ENCODING 1176
SWIDTH 600 0
DWIDTH 10 0
BBX 8 16 1 -4
BITMAP
7C
FE
CF
07
07
7E
7E
07
03
87
FF
FE
18
08
38
30
ENDCHAR
STARTCHAR 0499
ENCODING 1177
SWIDTH 480 0
DWIDTH 8 0
BBX 7 13 1 -4
BITMAP
F8
FC
0C
0C
78
1C
0E
FE
FC
30
18
78
70
ENDCHAR
STARTCHAR 049A
ENCODING 1178
SWIDTH 720 0
DWIDTH 12 0
BBX 11 15 1 -3
BITMAP
E1C0
E380
E700
EE00
FC00
F800
FC00
FE00
EF00
E780
E3E0
E1E0
00E0
00E0
00E0
ENDCHAR
STARTCHAR 049B
ENCODING 1179
SWIDTH 600 0
DWIDTH 10 0
BBX 9 11 1 -2
BITMAP
E700
EE00
FC00
F800
F800
FC00
EE00
E780
E780
0180
0180
ENDCHAR
STARTCHAR 049C
ENCODING 1180
SWIDTH 780 0
DWIDTH 13 0
BBX 12 12 1 0
BITMAP
E070
E0E0
E1C0
E9C0
EB80
FF00
FF00
EB80
E9C0
E1E0
E0E0
E070
ENDCHAR
STARTCHAR 049D
ENCODING 1181
SWIDTH 660 0
DWIDTH 11 0
BBX 10 9 1 0
BITMAP
E1C0
E380
FF00
FE00
FE00
FF00
FB80
E380
E1C0
ENDCHAR
STARTCHAR 049E
ENCODING 1182
SWIDTH 720 0
DWIDTH 12 0
BBX 12 12 0 0
BITMAP
7070
FCE0
FDC0
7380
7700
7E00
7E00
7F00
7780
73C0
71C0
70E0
ENDCHAR
STARTCHAR 049F
ENCODING 1183
SWIDTH 600 0
DWIDTH 10 0
BBX 10 10 0 0
BITMAP
7000
F9C0
7380
7700
7E00
7C00
7E00
7700
7380
7180
ENDCHAR
STARTCHAR 04A0
ENCODING 1184
SWIDTH 780 0
DWIDTH 13 0
BBX 13 12 0 0
BITMAP
FC38
FC70
FCE0
1DC0
1F80
1F00
1F80
1FC0
1DE0
1CE0
1C70
1C38
ENDCHAR
STARTCHAR 04A1
ENCODING 1185
SWIDTH 660 0
DWIDTH 11 0
BBX 10 9 0 0
BITMAP
F9C0
F9C0
3B80
3F00
3E00
3F00
3B80
39C0
38C0
ENDCHAR
STARTCHAR 04A2
ENCODING 1186
SWIDTH 780 0
DWIDTH 13 0
BBX 12 15 1 -3
BITMAP
E1C0
E1C0
E1C0
E1C0
E1C0
FFC0
FFC0
E1C0
E1C0
E1C0
E1F0
E1F0
0030
0030
0030
ENDCHAR
STARTCHAR 04A3
ENCODING 1187
SWIDTH 660 0
DWIDTH 11 0
BBX 9 11 1 -2
BITMAP
E700
E700
E700
FF00
FF00
FF00
E700
E780
E780
0180
0180
ENDCHAR
STARTCHAR 04A4
ENCODING 1188
SWIDTH 840 0
DWIDTH 14 0
BBX 13 12 1 0
BITMAP
E1F8
E1F8
E1F8
E1C0
E1C0
FFC0
FFC0
E1C0
E1C0
E1C0
E1C0
E1C0
ENDCHAR
STARTCHAR 04A5
ENCODING 1189
SWIDTH 660 0
DWIDTH 11 0
BBX 10 9 1 0
BITMAP
E7C0
E7C0
E700
FF00
FF00
FF00
E700
E700
E700
ENDCHAR
STARTCHAR 04A6
ENCODING 1190
SWIDTH 1080 0
DWIDTH 18 0
BBX 17 15 1 -3
BITMAP
FFC000
FFC000
FFC000
E1C000
E1C000
E1FE00
E1FF00
E1C700
E1C380
E1C380
E1C380
E1C380
000700
001F00
001C00
ENDCHAR
STARTCHAR 04A7
ENCODING 1191
SWIDTH 900 0
DWIDTH 15 0
BBX 13 12 1 -3
BITMAP
FF00
FF00
E700
E700
E7F0
E7F0
E738
E718
E718
0038
00F0
00E0
ENDCHAR
STARTCHAR 04A8
ENCODING 1192
SWIDTH 780 0
DWIDTH 13 0
BBX 12 15 1 -3
BITMAP
0F00
3F00
7900
E000
E3E0
E7E0
EE70
EE70
EE70
7EE0
7FE0
1F80
0380
01E0
00E0
ENDCHAR
STARTCHAR 04A9
ENCODING 1193
SWIDTH 660 0
DWIDTH 11 0
BBX 9 12 1 -3
BITMAP
3E00
7C00
E000
CF00
CF80
D980
D980
7F00
3E00
0F00
0780
0080
ENDCHAR
STARTCHAR 04AA
ENCODING 1194
SWIDTH 660 0
DWIDTH 11 0
BBX 9 16 1 -4
BITMAP
0F00
3F80
7F80
E000
E000
E000
E000
E000
E000
F080
7F80
3F80
0C00
0600
1E00
1C00
ENDCHAR
STARTCHAR 04AB
ENCODING 1195
SWIDTH 480 0
DWIDTH 8 0
BBX 7 13 1 -4
BITMAP
3E
7C
E0
C0
C0
C0
E0
FE
7E
18
18
38
30
ENDCHAR
STARTCHAR 04AC
ENCODING 1196
SWIDTH 600 0
DWIDTH 10 0
BBX 10 15 0 -3
BITMAP
FFC0
FFC0
FFC0
0C00
0C00
0C00
0C00
0C00
0C00
0C00
0F00
0F00
0300
0300
0300
ENDCHAR
STARTCHAR 04AD
ENCODING 1197
SWIDTH 480 0
DWIDTH 8 0
BBX 8 11 0 -2
BITMAP
FF
FF
18
18
18
18
18
1E
1E
06
06
ENDCHAR
STARTCHAR 04AE
ENCODING 1198
SWIDTH 660 0
DWIDTH 11 0
BBX 11 12 0 0
BITMAP
E0E0
70C0
71C0
3980
3B80
1F00
0E00
0E00
0E00
0E00
0E00
0E00
ENDCHAR
STARTCHAR 04AF
ENCODING 1199
SWIDTH 540 0
DWIDTH 9 0
BBX 9 12 0 -3
BITMAP
E380
6380
6300
7700
3700
3600
3E00
1C00
1C00
1C00
1C00
1C00
ENDCHAR
STARTCHAR 04B0
ENCODING 1200
SWIDTH 660 0
DWIDTH 11 0
BBX 11 12 0 0
BITMAP
E0E0
70C0
71C0
3980
3B80
1F00
0E00
3F80
3F80
0E00
0E00
0E00
ENDCHAR
STARTCHAR 04B1
ENCODING 1201
SWIDTH 540 0
DWIDTH 9 0
BBX 9 12 0 -3
BITMAP
E380
6380
6300
7700
3700
3600
3E00
7F00
7F00
1C00
1C00
1C00
ENDCHAR
STARTCHAR 04B2
ENCODING 1202
SWIDTH 720 0
DWIDTH 12 0
BBX 12 15 0 -3
BITMAP
F0E0
71C0
39C0
3B80
1F00
0F00
0F00
1F00
3B80
39C0
71F0
E0F0
0070
0070
0070
ENDCHAR
STARTCHAR 04B3
ENCODING 1203
SWIDTH 600 0
DWIDTH 10 0
BBX 9 11 0 -2
BITMAP
E380
7300
3600
3E00
1C00
3E00
3600
7380
E380
0180
0180
ENDCHAR
STARTCHAR 04B4
ENCODING 1204
SWIDTH 960 0
DWIDTH 16 0
BBX 15 15 0 -3
BITMAP
FF98
FF98
FF98
1C18
1C18
1C18
1C18
1C18
1C18
1C18
1FFE
1FFE
0006
0006
0006
ENDCHAR
STARTCHAR 04B5
ENCODING 1205
SWIDTH 720 0
DWIDTH 12 0
BBX 11 12 0 -3
BITMAP
FDC0
FDC0
31C0
31C0
31C0
31C0
31C0
3FE0
3FE0
0060
0060
0060
ENDCHAR
STARTCHAR 04B6
ENCODING 1206
SWIDTH 720 0
DWIDTH 12 0
BBX 11 15 1 -3
BITMAP
C180
C180
C180
C180
C180
E180
FF80
7F80
0180
0180
01E0
01E0
00E0
00E0
00E0
ENDCHAR
STARTCHAR 04B7
ENCODING 1207
SWIDTH 600 0
DWIDTH 10 0
BBX 10 11 0 -2
BITMAP
E300
E300
E300
6300
7F00
7F00
0300
03C0
03C0
00C0
00C0
ENDCHAR
STARTCHAR 04B8
ENCODING 1208
SWIDTH 660 0
DWIDTH 11 0
BBX 9 12 1 0
BITMAP
C380
C380
C380
C380
CB80
EB80
FF80
7F80
0B80
0B80
0380
0380
ENDCHAR
STARTCHAR 04B9
ENCODING 1209
SWIDTH 540 0
DWIDTH 9 0
BBX 9 9 0 0
BITMAP
E380
E380
E380
6B80
7F80
7F80
0B80
0B80
0380
ENDCHAR
STARTCHAR 04BA
ENCODING 1210
SWIDTH 720 0
DWIDTH 12 0
BBX 10 12 1 0
BITMAP
E000
E000
E000
E000
FE00
FF80
E380
E1C0
E1C0
E1C0
E1C0
E1C0
ENDCHAR
STARTCHAR 04BB
ENCODING 1211
SWIDTH 600 0
DWIDTH 10 0
BBX 8 13 1 0
BITMAP
E0
E0
E0
E0
FC
FE
E7
E7
E7
E7
E7
E7
E7
ENDCHAR
STARTCHAR 04BC
ENCODING 1212
SWIDTH 900 0
DWIDTH 15 0
BBX 14 12 0 0
BITMAP
01E0
07F0
0F78
CE18
FC1C
7FFC
3FFC
1C00
0C00
0E08
07F8
03F8
ENDCHAR
STARTCHAR 04BD
ENCODING 1213
SWIDTH 720 0
DWIDTH 12 0
BBX 11 9 0 0
BITMAP
0780
8FC0
DCE0
F860
7FE0
1800
1C00
0FC0
07E0
ENDCHAR
STARTCHAR 04BE
ENCODING 1214
SWIDTH 900 0
DWIDTH 15 0
BBX 14 15 0 -3
BITMAP
01E0
07F0
0F78
CE18
FC1C
7FFC
3FFC
1C00
0C00
0E08
07F8
03F8
01C0
01C0
01C0
ENDCHAR
STARTCHAR 04BF
ENCODING 1215
SWIDTH 720 0
DWIDTH 12 0
BBX 11 12 0 -3
BITMAP
0780
8FC0
DCE0
F860
7FE0
1800
1C00
0FC0
07E0
0300
0300
0300
ENDCHAR
STARTCHAR 04C0
ENCODING 1216
SWIDTH 300 0
DWIDTH 5 0
BBX 3 12 1 0
BITMAP
E0
E0
E0
E0
E0
E0
E0
E0
E0
E0
E0
E0
ENDCHAR
STARTCHAR 04C1
ENCODING 1217
SWIDTH 960 0
DWIDTH 16 0
BBX 16 15 0 0
BITMAP
0660
03C0
0000
E187
718E
398E
1D9C
1DB8
0FF0
0FF0
1DB8
3D9C
398E
718E
E187
ENDCHAR
STARTCHAR 04C2
ENCODING 1218
SWIDTH 840 0
DWIDTH 14 0
BBX 14 13 0 0
BITMAP
0480
0FC0
0780
0000
631C
7338
3B70
1FE0
0FE0
1F60
3B70
7338
E31C
ENDCHAR
STARTCHAR 04C3
ENCODING 1219
SWIDTH 720 0
DWIDTH 12 0
BBX 10 15 1 -3
BITMAP
E1C0
E380
E700
EE00
FC00
FE00
FF00
E380
E180
E1C0
E1C0
E1C0
0380
0F80
0E00
ENDCHAR
STARTCHAR 04C4
ENCODING 1220
SWIDTH 600 0
DWIDTH 10 0
BBX 8 12 1 -3
BITMAP
E7
EE
EC
F8
FE
FE
E7
E3
E3
07
1E
1C
ENDCHAR
STARTCHAR 04C5
ENCODING 1221
SWIDTH 840 0
DWIDTH 14 0
BBX 13 15 0 -3
BITMAP
0FF0
0FF0
0FF0
0C70
0C70
0C70
1C70
1C70
1870
3870
F078
E078
0018
0038
0030
ENDCHAR
STARTCHAR 04C6
ENCODING 1222
SWIDTH 660 0
DWIDTH 11 0
BBX 11 12 0 -3
BITMAP
1F80
1F80
1980
1980
1980
3980
3180
F1E0
E1E0
00C0
00C0
0080
ENDCHAR
STARTCHAR 04C7
ENCODING 1223
SWIDTH 720 0
DWIDTH 12 0
BBX 10 15 1 -3
BITMAP
E1C0
E1C0
E1C0
E1C0
E1C0
FFC0
FFC0
E1C0
E1C0
E1C0
E1C0
E1C0
01C0
07C0
0780
ENDCHAR
STARTCHAR 04C8
ENCODING 1224
SWIDTH 600 0
DWIDTH 10 0
BBX 8 12 1 -3
BITMAP
E7
E7
E7
FF
FF
FF
E7
E7
E7
07
1F
1E
ENDCHAR
STARTCHAR 04C9
ENCODING 1225
SWIDTH 780 0
DWIDTH 13 0
BBX 12 15 1 -3
BITMAP
E1C0
E1C0
E1C0
E1C0
E1C0
FFC0
FFC0
E1C0
E1C0
E1C0
E1F0
E1F0
0060
00E0
00C0
ENDCHAR
STARTCHAR 04CA
ENCODING 1226
SWIDTH 600 0
DWIDTH 10 0
BBX 9 11 1 -3
BITMAP
E700
E700
E700
FF00
FF00
FF00
E700
E780
E780
0380
0300
ENDCHAR
STARTCHAR 04CB
ENCODING 1227
SWIDTH 660 0
DWIDTH 11 0
BBX 9 15 1 -3
BITMAP
C380
C380
C380
C380
C380
E380
FF80
7F80
0380
0380
0F80
0F80
0E00
0E00
0E00
ENDCHAR
STARTCHAR 04CC
ENCODING 1228
SWIDTH 540 0
DWIDTH 9 0
BBX 7 11 1 -2
BITMAP
C6
C6
C6
E6
FE
7E
06
1E
1E
18
18
ENDCHAR
STARTCHAR 04CD
ENCODING 1229
SWIDTH 960 0
DWIDTH 16 0
BBX 15 15 1 -3
BITMAP
6030
7070
7070
78F0
F8F0
FDF8
EDB8
EFB8
E738
E738
E23E
E03C
000C
001C
0018
ENDCHAR
STARTCHAR 04CE
ENCODING 1230
SWIDTH 780 0
DWIDTH 13 0
BBX 12 11 1 -3
BITMAP
E0C0
E1C0
F3C0
F3C0
DBC0
DEC0
CEC0
CCF0
C0F0
0070
0060
ENDCHAR
STARTCHAR 04CF
ENCODING 1231
SWIDTH 300 0
DWIDTH 5 0
BBX 3 12 1 0
BITMAP
E0
E0
E0
E0
E0
E0
E0
E0
E0
E0
E0
E0
ENDCHAR
STARTCHAR 04D0
ENCODING 1232
SWIDTH 720 0
DWIDTH 12 0
BBX 12 15 0 0
BITMAP
1980
0F00
0000
0600
0F00
0F00
1F80
1980
1980
39C0
3FC0
7FE0
7FE0
6060
E070
ENDCHAR
STARTCHAR 04D1
ENCODING 1233
SWIDTH 540 0
DWIDTH 9 0
BBX 7 13 1 0
BITMAP
64
7C
38
00
FC
7E
0E
06
FE
C6
C6
FE
7E
ENDCHAR
STARTCHAR 04D2
ENCODING 1234
SWIDTH 720 0
DWIDTH 12 0
BBX 12 15 0 0
BITMAP
1980
1980
0000
0600
0F00
0F00
1F80
1980
1980
39C0
3FC0
7FE0
7FE0
6060
E070
ENDCHAR
STARTCHAR 04D3
ENCODING 1235
SWIDTH 540 0
DWIDTH 9 0
BBX 7 13 1 0
BITMAP
44
EE
6C
00
FC
7E
0E
06
FE
C6
C6
FE
7E
ENDCHAR
STARTCHAR 04D4
ENCODING 1236
SWIDTH 1020 0
DWIDTH 17 0
BBX 16 12 0 0
BITMAP
01FF
01FF
03FF
07E0
06E0
0EFE
1CFE
1FE0
3FE0
30E0
70FF
E0FF
ENDCHAR
STARTCHAR 04D5
ENCODING 1237
SWIDTH 900 0
DWIDTH 15 0
BBX 13 9 1 0
BITMAP
F9E0
7FF0
0F38
0638
FFF8
C600
C700
FFF0
7FF0
ENDCHAR
STARTCHAR 04D6
ENCODING 1238
SWIDTH 600 0
DWIDTH 10 0
BBX 9 15 1 0
BITMAP
7600
3E00
0000
FF00
FF00
FF00
E000
E000
FF00
FF00
E000
E000
E000
FF80
FF80
ENDCHAR
STARTCHAR 04D7
ENCODING 1239
SWIDTH 600 0
DWIDTH 10 0
BBX 8 13 1 0
BITMAP
24
7E
3C
00
3C
7E
E7
C3
FF
C0
E0
7E
3E
ENDCHAR
STARTCHAR 04D8
ENCODING 1240
SWIDTH 720 0
DWIDTH 12 0
BBX 10 12 1 0
BITMAP
3E00
7F80
6780
01C0
01C0
FFC0
FFC0
FFC0
E1C0
E1C0
7F80
3F00
ENDCHAR
STARTCHAR 04D9
ENCODING 1241
SWIDTH 600 0
DWIDTH 10 0
BBX 8 9 1 0
BITMAP
FC
FE
07
07
FF
FF
C7
FE
7C
ENDCHAR
STARTCHAR 04DA
ENCODING 1242
SWIDTH 720 0
DWIDTH 12 0
BBX 10 15 1 0
BITMAP
3700
3700
0000
3E00
7F80
6780
01C0
01C0
FFC0
FFC0
FFC0
E1C0
E1C0
7F80
3F00
ENDCHAR
STARTCHAR 04DB
ENCODING 1243
SWIDTH 600 0
DWIDTH 10 0
BBX 8 13 1 0
BITMAP
04
6E
66
00
FC
FE
07
07
FF
FF
C7
FE
7C
ENDCHAR
STARTCHAR 04DC
ENCODING 1244
SWIDTH 960 0
DWIDTH 16 0
BBX 16 15 0 0
BITMAP
0760
0760
0000
E187
718E
398E
1D9C
1DB8
0FF0
0FF0
1DB8
3D9C
398E
718E
E187
ENDCHAR
STARTCHAR 04DD
ENCODING 1245
SWIDTH 840 0
DWIDTH 14 0
BBX 14 13 0 0
BITMAP
0400
0CC0
0CC0
0000
631C
7338
3B70
1FE0
0FE0
1F60
3B70
7338
E31C
ENDCHAR
STARTCHAR 04DE
ENCODING 1246
SWIDTH 600 0
DWIDTH 10 0
BBX 8 15 1 0
BITMAP
6E
6E
00
7C
FE
CF
07
07
7E
7E
07
03
87
FF
FE
ENDCHAR
STARTCHAR 04DF
ENCODING 1247
SWIDTH 480 0
DWIDTH 8 0
BBX 7 13 1 0
BITMAP
08
DC
CC
00
F8
FC
0C
0C
78
1C
0E
FE
FC
ENDCHAR
STARTCHAR 04E0
ENCODING 1248
SWIDTH 600 0
DWIDTH 10 0
BBX 8 12 1 0
BITMAP
FF
FF
FF
0E
1C
3C
3F
07
03
87
FF
FE
ENDCHAR
STARTCHAR 04E1
ENCODING 1249
SWIDTH 540 0
DWIDTH 9 0
BBX 8 12 0 -3
BITMAP
7F
7F
0E
1C
18
3C
3E
07
07
07
FE
FC
ENDCHAR
STARTCHAR 04E2
ENCODING 1250
SWIDTH 780 0
DWIDTH 13 0
BBX 10 15 1 0
BITMAP
1F00
1F00
0000
E0C0
E1C0
E3C0
E3C0
E7C0
EEC0
FCC0
F8C0
F8C0
F0C0
E0C0
E0C0
ENDCHAR
STARTCHAR 04E3
ENCODING 1251
SWIDTH 600 0
DWIDTH 10 0
BBX 8 12 1 0
BITMAP
7E
7E
00
E3
E7
EF
EF
FB
FB
F3
E3
E3
ENDCHAR
STARTCHAR 04E4
ENCODING 1252
SWIDTH 780 0
DWIDTH 13 0
BBX 10 15 1 0
BITMAP
3B80
3B80
0000
E0C0
E1C0
E3C0
E3C0
E7C0
EEC0
FCC0
F8C0
F8C0
F0C0
E0C0
E0C0
ENDCHAR
STARTCHAR 04E5
ENCODING 1253
SWIDTH 600 0
DWIDTH 10 0
BBX 8 13 1 0
BITMAP
22
76
66
00
E3
E7
EF
EF
FB
FB
F3
E3
E3
ENDCHAR
STARTCHAR 04E6
ENCODING 1254
SWIDTH 780 0
DWIDTH 13 0
BBX 11 15 1 0
BITMAP
1B80
1B80
0000
0F00
3F80
7BC0
E0E0
E0E0
E060
E060
E060
E0E0
71E0
7FC0
1F80
ENDCHAR
STARTCHAR 04E7
ENCODING 1255
SWIDTH 600 0
DWIDTH 10 0
BBX 8 13 1 0
BITMAP
20
76
66
00
3C
7E
E7
C3
C3
C3
E7
7F
3E
ENDCHAR
STARTCHAR 04E8
ENCODING 1256
SWIDTH 780 0
DWIDTH 13 0
BBX 11 12 1 0
BITMAP
0F00
3F80
7BC0
E0E0
E0E0
FFE0
FFE0
E0E0
E0E0
71E0
7FC0
1F80
ENDCHAR
STARTCHAR 04E9
ENCODING 1257
SWIDTH 600 0
DWIDTH 10 0
BBX 8 9 1 0
BITMAP
3C
7E
E7
C3
FF
C3
E7
7F
3E
ENDCHAR
STARTCHAR 04EA
ENCODING 1258
SWIDTH 780 0
DWIDTH 13 0
BBX 11 15 1 0
BITMAP
1B80
1B80
0000
0F00
3F80
7BC0
E0E0
E0E0
FFE0
FFE0
E0E0
E0E0
71E0
7FC0
1F80
ENDCHAR
STARTCHAR 04EB
ENCODING 1259
SWIDTH 600 0
DWIDTH 10 0
BBX 8 13 1 0
BITMAP
04
66
66
00
3C
7E
E7
C3
FF
C3
E7
7F
3E
ENDCHAR
STARTCHAR 04EC
ENCODING 1260
SWIDTH 660 0
DWIDTH 11 0
BBX 10 15 1 0
BITMAP
6600
7600
0000
7C00
FF00
EF80
0380
0180
3F80
3FC0
0180
0380
8780
FF00
FE00
ENDCHAR
STARTCHAR 04ED
ENCODING 1261
SWIDTH 540 0
DWIDTH 9 0
BBX 7 13 1 0
BITMAP
40
EC
CC
00
F8
FC
0E
06
7E
06
0E
FC
F8
ENDCHAR
STARTCHAR 04EE
ENCODING 1262
SWIDTH 660 0
DWIDTH 11 0
BBX 11 15 0 0
BITMAP
1F00
1F00
0000
E0E0
70C0
71C0
39C0
3980
1B80
1F00
0F00
0700
0E00
7C00
7800
ENDCHAR
STARTCHAR 04EF
ENCODING 1263
SWIDTH 540 0
DWIDTH 9 0
BBX 9 15 0 -3
BITMAP
3E00
3E00
0000
E380
6380
6300
7700
3700
3600
3E00
1C00
1C00
1800
F800
F000
ENDCHAR
STARTCHAR 04F0
ENCODING 1264
SWIDTH 660 0
DWIDTH 11 0
BBX 11 15 0 0
BITMAP
1B80
1B80
0000
E0E0
70C0
71C0
39C0
3980
1B80
1F00
0F00
0700
0E00
7C00
7800
ENDCHAR
STARTCHAR 04F1
ENCODING 1265
SWIDTH 540 0
DWIDTH 9 0
BBX 9 16 0 -3
BITMAP
2200
7700
3600
0000
E380
6380
6300
7700
3700
3600
3E00
1C00
1C00
1800
F800
F000
ENDCHAR
STARTCHAR 04F2
ENCODING 1266
SWIDTH 660 0
DWIDTH 11 0
BBX 11 16 0 0
BITMAP
0880
0D80
1B00
0000
E0E0
70C0
71C0
39C0
3980
1B80
1F00
0F00
0700
0E00
7C00
7800
ENDCHAR
STARTCHAR 04F3
ENCODING 1267
SWIDTH 540 0
DWIDTH 9 0
BBX 9 16 0 -3
BITMAP
1B00
3300
3600
0000
E380
6380
6300
7700
3700
3600
3E00
1C00
1C00
1800
F800
F000
ENDCHAR
STARTCHAR 04F4
ENCODING 1268
SWIDTH 660 0
DWIDTH 11 0
BBX 9 15 1 0
BITMAP
7600
7600
0000
C380
C380
C380
C380
C380
E380
FF80
7F80
0380
0380
0380
0380
ENDCHAR
STARTCHAR 04F5
ENCODING 1269
SWIDTH 540 0
DWIDTH 9 0
BBX 7 13 1 0
BITMAP
44
EE
6C
00
C6
C6
C6
C6
FE
7E
06
06
06
ENDCHAR
STARTCHAR 04F6
ENCODING 1270
SWIDTH 600 0
DWIDTH 10 0
BBX 8 15 1 -3
BITMAP
FF
FF
FF
E0
E0
E0
E0
E0
E0
E0
F8
F8
18
18
18
ENDCHAR
STARTCHAR 04F7
ENCODING 1271
SWIDTH 480 0
DWIDTH 8 0
BBX 6 11 1 -2
BITMAP
FC
FC
E0
E0
E0
E0
E0
F0
F0
30
30
ENDCHAR
STARTCHAR 04F8
ENCODING 1272
SWIDTH 900 0
DWIDTH 15 0
BBX 13 15 1 0
BITMAP
0CC0
0DC0
0000
E018
E018
E018
E018
FC18
FF18
EF98
E398
E398
E398
FF18
FE18
ENDCHAR
STARTCHAR 04F9
ENCODING 1273
SWIDTH 840 0
DWIDTH 14 0
BBX 12 13 1 0
BITMAP
0900
1980
1980
0000
E070
E070
E070
FC70
FE70
E770
E770
FF70
FE70
ENDCHAR
STARTCHAR 1E80
ENCODING 7808
SWIDTH 960 0
DWIDTH 16 0
BBX 15 16 0 0
BITMAP
0100
0380
01C0
0080
E006
6006
718E
73CE
73CE
73CC
36CC
3E7C
3E7C
1E78
1C38
1C38
ENDCHAR
STARTCHAR 1E81
ENCODING 7809
SWIDTH 780 0
DWIDTH 13 0
BBX 13 13 0 0
BITMAP
0600
0600
0300
0000
E338
6738
6730
7730
75F0
3DE0
3DE0
38E0
18C0
ENDCHAR
STARTCHAR 1E82
ENCODING 7810
SWIDTH 960 0
DWIDTH 16 0
BBX 15 16 0 0
BITMAP
0080
01C0
0380
0000
E006
6006
718E
73CE
73CE
73CC
36CC
3E7C
3E7C
1E78
1C38
1C38
ENDCHAR
STARTCHAR 1E83
ENCODING 7811
SWIDTH 780 0
DWIDTH 13 0
BBX 13 13 0 0
BITMAP
0100
0300
0600
0000
E338
6738
6730
7730
75F0
3DE0
3DE0
38E0
18C0
ENDCHAR
STARTCHAR 1E84
ENCODING 7812
SWIDTH 960 0
DWIDTH 16 0
BBX 15 15 0 0
BITMAP
0660
0660
0000
E006
6006
718E
73CE
73CE
73CC
36CC
3E7C
3E7C
1E78
1C38
1C38
ENDCHAR
STARTCHAR 1E85
ENCODING 7813
SWIDTH 780 0
DWIDTH 13 0
BBX 13 13 0 0
BITMAP
0880
1DC0
0D80
0000
E338
6738
6730
7730
75F0
3DE0
3DE0
38E0
18C0
ENDCHAR
STARTCHAR 1EF2
ENCODING 7922
SWIDTH 660 0
DWIDTH 11 0
BBX 11 16 0 0
BITMAP
0800
1C00
0E00
0000
E0E0
70C0
71C0
3980
3B80
1F00
0E00
0E00
0E00
0E00
0E00
0E00
ENDCHAR
STARTCHAR 1EF3
ENCODING 7923
SWIDTH 540 0
DWIDTH 9 0
BBX 9 16 0 -3
BITMAP
1000
3800
0C00
0000
E380
6380
6300
7700
3700
3600
3E00
1C00
1C00
1800
F800
F000
ENDCHAR
STARTCHAR 1F00
ENCODING 7936
SWIDTH 600 0
DWIDTH 10 0
BBX 9 14 1 0
BITMAP
0800
1C00
0800
1800
0000
3F00
7F00
E700
C700
C700
C700
E700
FF80
7F80
ENDCHAR
STARTCHAR 1F01
ENCODING 7937
SWIDTH 600 0
DWIDTH 10 0
BBX 9 14 1 0
BITMAP
1800
1800
1800
0C00
0000
3F00
7F00
E700
C700
C700
C700
E700
FF80
7F80
ENDCHAR
STARTCHAR 1F02
ENCODING 7938
SWIDTH 600 0
DWIDTH 10 0
BBX 9 14 1 0
BITMAP
3000
3600
3200
6300
0000
3F00
7F00
E700
C700
C700
C700
E700
FF80
7F80
ENDCHAR
STARTCHAR 1F03
ENCODING 7939
SWIDTH 600 0
DWIDTH 10 0
BBX 9 14 1 0
BITMAP
6000
6C00
6600
3200
0000
3F00
7F00
E700
C700
C700
C700
E700
FF80
7F80
ENDCHAR
STARTCHAR 1F04
ENCODING 7940
SWIDTH 600 0
DWIDTH 10 0
BBX 9 14 1 0
BITMAP
3200
3300
1600
2400
0000
3F00
7F00
E700
C700
C700
C700
E700
FF80
7F80
ENDCHAR
STARTCHAR 1F05
ENCODING 7941
SWIDTH 600 0
DWIDTH 10 0
BBX 9 14 1 0
BITMAP
6200
6700
6600
3C00
0000
3F00
7F00
E700
C700
C700
C700
E700
FF80
7F80
ENDCHAR
STARTCHAR 1F06
ENCODING 7942
SWIDTH 600 0
DWIDTH 10 0
BBX 9 15 1 0
BITMAP
3C00
2600
0800
1800
1800
0000
3F00
7F00
E700
C700
C700
C700
E700
FF80
7F80
ENDCHAR
STARTCHAR 1F07
ENCODING 7943
SWIDTH 600 0
DWIDTH 10 0
BBX 9 15 1 0
BITMAP
3C00
6400
1800
1800
0800
0000
3F00
7F00
E700
C700
C700
C700
E700
FF80
7F80
ENDCHAR
STARTCHAR 1F08
ENCODING 7944
SWIDTH 780 0
DWIDTH 13 0
BBX 12 12 0 0
BITMAP
6700
6700
6F80
CD80
1DC0
1DC0
18C0
3FE0
3FE0
3FE0
7070
7070
ENDCHAR
STARTCHAR 1F09
ENCODING 7945
SWIDTH 780 0
DWIDTH 13 0
BBX 12 12 0 0
BITMAP
C700
E700
4F80
6D80
1DC0
1DC0
18C0
3FE0
3FE0
3FE0
7070
7070
ENDCHAR
STARTCHAR 1F0A
ENCODING 7946
SWIDTH 960 0
DWIDTH 16 0
BBX 16 12 0 0
BITMAP
6860
6CF0
4CF0
C6F8
01D8
019C
039C
03FC
03FE
07FE
0706
0E07
ENDCHAR
STARTCHAR 1F0B
ENCODING 7947
SWIDTH 960 0
DWIDTH 16 0
BBX 15 12 0 0
BITMAP
C8E0
D8E0
CDF0
65B0
01B8
0398
0318
07FC
07FC
07FE
0E0E
0E06
ENDCHAR
STARTCHAR 1F0C
ENCODING 7948
SWIDTH 900 0
DWIDTH 15 0
BBX 14 12 0 0
BITMAP
40C0
EDE0
59E0
D3E0
0370
0730
0638
07F8
0FF8
0FFC
0C1C
1C0C
ENDCHAR
STARTCHAR 1F0D
ENCODING 7949
SWIDTH 900 0
DWIDTH 15 0
BBX 15 12 0 0
BITMAP
C4E0
CEE0
CDF0
69F0
03B0
0338
0718
07FC
07FC
0FFC
0E0E
0C0E
ENDCHAR
STARTCHAR 1F0E
ENCODING 7950
SWIDTH 840 0
DWIDTH 14 0
BBX 13 13 0 0
BITMAP
F800
8B80
2380
27C0
66C0
06E0
0E60
0C60
1FF0
1FF0
1FF8
3838
3818
ENDCHAR
STARTCHAR 1F0F
ENCODING 7951
SWIDTH 840 0
DWIDTH 14 0
BBX 13 13 0 0
BITMAP
F800
8B80
2380
27C0
36C0
06E0
0E60
0C60
1FF0
1FF0
1FF8
3838
3818
ENDCHAR
STARTCHAR 1F10
ENCODING 7952
SWIDTH 540 0
DWIDTH 9 0
BBX 7 14 1 0
BITMAP
18
18
18
30
00
7E
FC
E0
E0
78
E0
C0
FE
7E
ENDCHAR
STARTCHAR 1F11
ENCODING 7953
SWIDTH 540 0
DWIDTH 9 0
BBX 7 14 1 0
BITMAP
30
30
30
18
00
7E
FC
E0
E0
78
E0
C0
FE
7E
ENDCHAR
STARTCHAR 1F12
ENCODING 7954
SWIDTH 540 0
DWIDTH 9 0
BBX 7 14 1 0
BITMAP
64
6C
26
42
00
7E
FC
E0
E0
78
E0
C0
FE
7E
ENDCHAR
STARTCHAR 1F13
ENCODING 7955
SWIDTH 540 0
DWIDTH 9 0
BBX 7 14 1 0
BITMAP
C8
D8
4C
64
00
7E
FC
E0
E0
78
E0
C0
FE
7E
ENDCHAR
STARTCHAR 1F14
ENCODING 7956
SWIDTH 540 0
DWIDTH 9 0
BBX 7 14 1 0
BITMAP
64
76
2C
48
00
7E
FC
E0
E0
78
E0
C0
FE
7E
ENDCHAR
STARTCHAR 1F15
ENCODING 7957
SWIDTH 540 0
DWIDTH 9 0
BBX 7 14 1 0
BITMAP
44
E6
4C
28
00
7E
FC
E0
E0
78
E0
C0
FE
7E
ENDCHAR
STARTCHAR 1F18
ENCODING 7960
SWIDTH 780 0
DWIDTH 13 0
BBX 12 12 0 0
BITMAP
6FF0
6FF0
6FF0
CE00
0E00
0FE0
0FE0
0E00
0E00
0E00
0FF0
0FF0
ENDCHAR
STARTCHAR 1F19
ENCODING 7961
SWIDTH 720 0
DWIDTH 12 0
BBX 12 12 0 0
BITMAP
CFE0
CFE0
CFE0
6C00
0C00
0FE0
0FE0
0C00
0C00
0C00
0FF0
0FF0
ENDCHAR
STARTCHAR 1F1A
ENCODING 7962
SWIDTH 1020 0
DWIDTH 17 0
BBX 16 12 0 0
BITMAP
60FF
6CFF
66FF
C6C0
00C0
00FE
00FE
00C0
00C0
00C0
00FF
00FF
ENDCHAR
STARTCHAR 1F1B
ENCODING 7963
SWIDTH 960 0
DWIDTH 16 0
BBX 15 12 0 0
BITMAP
C9FE
D9FE
CDFE
65C0
01C0
01FE
01FE
01C0
01C0
01C0
01FE
01FE
ENDCHAR
STARTCHAR 1F1C
ENCODING 7964
SWIDTH 960 0
DWIDTH 16 0
BBX 15 12 0 0
BITMAP
65FE
6DFE
69FE
D9C0
01C0
01FC
01FC
01C0
01C0
01C0
01FE
01FE
ENDCHAR
STARTCHAR 1F1D
ENCODING 7965
SWIDTH 960 0
DWIDTH 16 0
BBX 16 12 0 0
BITMAP
C5FE
CDFE
CDFE
79C0
01C0
01FE
01FE
01C0
01C0
01C0
01FF
01FF
ENDCHAR
STARTCHAR 1F20
ENCODING 7968
SWIDTH 600 0
DWIDTH 10 0
BBX 8 17 1 -3
BITMAP
18
18
18
30
00
FC
FE
E7
E7
E7
E7
E7
E7
E7
07
07
07
ENDCHAR
STARTCHAR 1F21
ENCODING 7969
SWIDTH 600 0
DWIDTH 10 0
BBX 8 17 1 -3
BITMAP
18
18
10
08
00
FC
FE
E7
E7
E7
E7
E7
E7
E7
07
07
07
ENDCHAR
STARTCHAR 1F22
ENCODING 7970
SWIDTH 600 0
DWIDTH 10 0
BBX 8 17 1 -3
BITMAP
64
6C
26
C2
00
FC
FE
E7
E7
E7
E7
E7
E7
E7
07
07
07
ENDCHAR
STARTCHAR 1F23
ENCODING 7971
SWIDTH 600 0
DWIDTH 10 0
BBX 8 17 1 -3
BITMAP
48
EC
4C
66
00
FC
FE
E7
E7
E7
E7
E7
E7
E7
07
07
07
ENDCHAR
STARTCHAR 1F24
ENCODING 7972
SWIDTH 600 0
DWIDTH 10 0
BBX 8 17 1 -3
BITMAP
30
36
34
6C
00
FC
FE
E7
E7
E7
E7
E7
E7
E7
07
07
07
ENDCHAR
STARTCHAR 1F25
ENCODING 7973
SWIDTH 600 0
DWIDTH 10 0
BBX 8 17 1 -3
BITMAP
60
66
4C
28
00
FC
FE
E7
E7
E7
E7
E7
E7
E7
07
07
07
ENDCHAR
STARTCHAR 1F26
ENCODING 7974
SWIDTH 600 0
DWIDTH 10 0
BBX 8 18 1 -3
BITMAP
3C
66
18
18
10
00
FC
FE
E7
E7
E7
E7
E7
E7
E7
07
07
07
ENDCHAR
STARTCHAR 1F27
ENCODING 7975
SWIDTH 600 0
DWIDTH 10 0
BBX 8 18 1 -3
BITMAP
3C
64
18
18
08
00
FC
FE
E7
E7
E7
E7
E7
E7
E7
07
07
07
ENDCHAR
STARTCHAR 1F28
ENCODING 7976
SWIDTH 900 0
DWIDTH 15 0
BBX 14 12 0 0
BITMAP
6E1C
6E1C
6E1C
CE1C
0E1C
0FFC
0FFC
0E1C
0E1C
0E1C
0E1C
0E1C
ENDCHAR
STARTCHAR 1F29
ENCODING 7977
SWIDTH 900 0
DWIDTH 15 0
BBX 13 12 0 0
BITMAP
CC18
CC18
CC18
6C18
0C18
0FF8
0FF8
0C18
0C18
0C18
0C18
0C18
ENDCHAR
STARTCHAR 1F2A
ENCODING 7978
SWIDTH 1140 0
DWIDTH 19 0
BBX 17 12 0 0
BITMAP
60C180
6CC180
66C180
C6C180
00C180
00FF80
00FF80
00C180
00C180
00C180
00C180
00C180
ENDCHAR
STARTCHAR 1F2B
ENCODING 7979
SWIDTH 1080 0
DWIDTH 18 0
BBX 17 12 0 0
BITMAP
C9C380
D9C380
CDC380
65C380
01C380
01FF80
01FF80
01C380
01C380
01C380
01C380
01C380
ENDCHAR
STARTCHAR 1F2C
ENCODING 7980
SWIDTH 1080 0
DWIDTH 18 0
BBX 17 12 0 0
BITMAP
65C380
6DC380
69C380
D9C380
01C380
01FF80
01FF80
01C380
01C380
01C380
01C380
01C380
ENDCHAR
STARTCHAR 1F2D
ENCODING 7981
SWIDTH 1080 0
DWIDTH 18 0
BBX 17 12 0 0
BITMAP
C5C380
CDC380
CDC380
79C380
01C380
01FF80
01FF80
01C380
01C380
01C380
01C380
01C380
ENDCHAR
STARTCHAR 1F2E
ENCODING 7982
SWIDTH 1020 0
DWIDTH 17 0
BBX 15 13 0 0
BITMAP
F800
8B06
2306
2306
6306
0306
03FE
03FE
0306
0306
0306
0306
0306
ENDCHAR
STARTCHAR 1F2F
ENCODING 7983
SWIDTH 1020 0
DWIDTH 17 0
BBX 15 13 0 0
BITMAP
F800
8B06
2306
2306
3306
0306
03FE
03FE
0306
0306
0306
0306
0306
ENDCHAR
STARTCHAR 1F30
ENCODING 7984
SWIDTH 300 0
DWIDTH 5 0
BBX 4 14 1 0
BITMAP
60
E0
60
C0
00
E0
E0
E0
E0
E0
E0
E0
F0
70
ENDCHAR
STARTCHAR 1F31
ENCODING 7985
SWIDTH 300 0
DWIDTH 5 0
BBX 4 14 1 0
BITMAP
40
E0
40
60
00
E0
E0
E0
E0
E0
E0
E0
F0
70
ENDCHAR
STARTCHAR 1F32
ENCODING 7986
SWIDTH 300 0
DWIDTH 5 0
BBX 7 14 -1 0
BITMAP
48
EC
4C
C6
00
38
38
38
38
38
38
38
3C
1C
ENDCHAR
STARTCHAR 1F33
ENCODING 7987
SWIDTH 300 0
DWIDTH 5 0
BBX 6 14 -1 0
BITMAP
C8
D8
CC
64
00
38
38
38
38
38
38
38
3C
1C
ENDCHAR
STARTCHAR 1F34
ENCODING 7988
SWIDTH 300 0
DWIDTH 5 0
BBX 6 14 0 0
BITMAP
C8
CC
58
90
00
70
70
70
70
70
70
70
78
38
ENDCHAR
STARTCHAR 1F35
ENCODING 7989
SWIDTH 300 0
DWIDTH 5 0
BBX 7 14 -1 0
BITMAP
44
E6
4C
68
00
38
38
38
38
38
38
38
3C
1C
ENDCHAR
STARTCHAR 1F36
ENCODING 7990
SWIDTH 300 0
DWIDTH 5 0
BBX 5 15 0 0
BITMAP
F8
88
20
20
60
00
70
70
70
70
70
70
70
78
38
ENDCHAR
STARTCHAR 1F37
ENCODING 7991
SWIDTH 300 0
DWIDTH 5 0
BBX 5 15 0 0
BITMAP
F8
88
20
20
30
00
70
70
70
70
70
70
70
78
38
ENDCHAR
STARTCHAR 1F38
ENCODING 7992
SWIDTH 480 0
DWIDTH 8 0
BBX 7 12 0 0
BITMAP
6E
6E
6E
CE
0E
0E
0E
0E
0E
0E
0E
0E
ENDCHAR
STARTCHAR 1F39
ENCODING 7993
SWIDTH 480 0
DWIDTH 8 0
BBX 7 12 0 0
BITMAP
CE
CE
CE
6E
0E
0E
0E
0E
0E
0E
0E
0E
ENDCHAR
STARTCHAR 1F3A
ENCODING 7994
SWIDTH 720 0
DWIDTH 12 0
BBX 10 12 0 0
BITMAP
60C0
6CC0
66C0
C6C0
00C0
00C0
00C0
00C0
00C0
00C0
00C0
00C0
ENDCHAR
STARTCHAR 1F3B
ENCODING 7995
SWIDTH 660 0
DWIDTH 11 0
BBX 10 12 0 0
BITMAP
C9C0
D9C0
CDC0
65C0
01C0
01C0
01C0
01C0
01C0
01C0
01C0
01C0
ENDCHAR
STARTCHAR 1F3C
ENCODING 7996
SWIDTH 660 0
DWIDTH 11 0
BBX 10 12 0 0
BITMAP
65C0
6DC0
69C0
D9C0
01C0
01C0
01C0
01C0
01C0
01C0
01C0
01C0
ENDCHAR
STARTCHAR 1F3D
ENCODING 7997
SWIDTH 660 0
DWIDTH 11 0
BBX 10 12 0 0
BITMAP
C5C0
CDC0
CDC0
79C0
01C0
01C0
01C0
01C0
01C0
01C0
01C0
01C0
ENDCHAR
STARTCHAR 1F3E
ENCODING 7998
SWIDTH 600 0
DWIDTH 10 0
BBX 8 13 0 0
BITMAP
F8
8B
23
23
63
03
03
03
03
03
03
03
03
ENDCHAR
STARTCHAR 1F3F
ENCODING 7999
SWIDTH 600 0
DWIDTH 10 0
BBX 8 13 0 0
BITMAP
F8
8B
23
23
33
03
03
03
03
03
03
03
03
ENDCHAR
STARTCHAR 1F40
ENCODING 8000
SWIDTH 600 0
DWIDTH 10 0
BBX 8 14 1 0
BITMAP
18
1C
08
10
00
3C
7E
E7
C3
C3
C3
E7
7F
3E
ENDCHAR
STARTCHAR 1F41
ENCODING 8001
SWIDTH 600 0
DWIDTH 10 0
BBX 8 14 1 0
BITMAP
18
18
10
08
00
3C
7E
E7
C3
C3
C3
E7
7F
3E
ENDCHAR
STARTCHAR 1F42
ENCODING 8002
SWIDTH 600 0
DWIDTH 10 0
BBX 8 14 1 0
BITMAP
64
7C
26
42
00
3C
7E
E7
C3
C3
C3
E7
7F
3E
ENDCHAR
STARTCHAR 1F43
ENCODING 8003
SWIDTH 600 0
DWIDTH 10 0
BBX 8 14 1 0
BITMAP
60
6C
44
26
00
3C
7E
E7
C3
C3
C3
E7
7F
3E
ENDCHAR
STARTCHAR 1F44
ENCODING 8004
SWIDTH 600 0
DWIDTH 10 0
BBX 8 14 1 0
BITMAP
32
37
36
6C
00
3C
7E
E7
C3
C3
C3
E7
7F
3E
ENDCHAR
STARTCHAR 1F45
ENCODING 8005
SWIDTH 600 0
DWIDTH 10 0
BBX 8 14 1 0
BITMAP
62
66
66
3C
00
3C
7E
E7
C3
C3
C3
E7
7F
3E
ENDCHAR
STARTCHAR 1F48
ENCODING 8008
SWIDTH 900 0
DWIDTH 15 0
BBX 14 12 0 0
BITMAP
63C0
67F0
6F78
DC1C
1C1C
181C
181C
181C
1C1C
1E38
0FF8
07E0
ENDCHAR
STARTCHAR 1F49
ENCODING 8009
SWIDTH 900 0
DWIDTH 15 0
BBX 15 12 0 0
BITMAP
C1E0
C7F8
CF7C
6E1C
1C0C
1C0E
1C0E
1C0E
1C1C
0E1C
07F8
03F0
ENDCHAR
STARTCHAR 1F4A
ENCODING 8010
SWIDTH 1140 0
DWIDTH 19 0
BBX 18 12 0 0
BITMAP
601E00
6C7F80
66F780
C7C1C0
01C0C0
01C0C0
01C0C0
01C0C0
01C1C0
00E3C0
00FF80
003F00
ENDCHAR
STARTCHAR 1F4B
ENCODING 8011
SWIDTH 1140 0
DWIDTH 19 0
BBX 18 12 0 0
BITMAP
C83C00
D8FF00
CCF780
65C380
0181C0
0181C0
0381C0
0181C0
01C1C0
01E380
00FF80
007E00
ENDCHAR
STARTCHAR 1F4C
ENCODING 8012
SWIDTH 1080 0
DWIDTH 18 0
BBX 17 12 0 0
BITMAP
643C00
6CFE00
69EF00
DB8380
038380
038180
038180
038180
038380
01C780
01FF00
007E00
ENDCHAR
STARTCHAR 1F4D
ENCODING 8013
SWIDTH 1140 0
DWIDTH 19 0
BBX 18 12 0 0
BITMAP
443C00
E67F00
4CF780
69C1C0
01C1C0
0181C0
0181C0
0181C0
01C1C0
01E380
00FF80
007E00
ENDCHAR
STARTCHAR 1F50
ENCODING 8016
SWIDTH 600 0
DWIDTH 10 0
BBX 8 14 1 0
BITMAP
18
18
08
10
00
E7
E7
E7
E7
E7
E7
E7
7E
7E
ENDCHAR
STARTCHAR 1F51
ENCODING 8017
SWIDTH 600 0
DWIDTH 10 0
BBX 8 14 1 0
BITMAP
18
18
10
0C
00
E7
E7
E7
E7
E7
E7
E7
7E
7E
ENDCHAR
STARTCHAR 1F52
ENCODING 8018
SWIDTH 600 0
DWIDTH 10 0
BBX 8 14 1 0
BITMAP
64
6C
26
42
00
E7
E7
E7
E7
E7
E7
E7
7E
7E
ENDCHAR
STARTCHAR 1F53
ENCODING 8019
SWIDTH 600 0
DWIDTH 10 0
BBX 8 14 1 0
BITMAP
68
EC
4C
26
00
E7
E7
E7
E7
E7
E7
E7
7E
7E
ENDCHAR
STARTCHAR 1F54
ENCODING 8020
SWIDTH 600 0
DWIDTH 10 0
BBX 8 14 1 0
BITMAP
30
36
34
6C
00
E7
E7
E7
E7
E7
E7
E7
7E
7E
ENDCHAR
STARTCHAR 1F55
ENCODING 8021
SWIDTH 600 0
DWIDTH 10 0
BBX 8 14 1 0
BITMAP
22
73
26
34
00
E7
E7
E7
E7
E7
E7
E7
7E
7E
ENDCHAR
STARTCHAR 1F56
ENCODING 8022
SWIDTH 600 0
DWIDTH 10 0
BBX 8 15 1 0
BITMAP
3C
26
18
18
18
00
E7
E7
E7
E7
E7
E7
E7
7E
7E
ENDCHAR
STARTCHAR 1F57
ENCODING 8023
SWIDTH 600 0
DWIDTH 10 0
BBX 8 15 1 0
BITMAP
3C
64
18
18
08
00
E7
E7
E7
E7
E7
E7
E7
7E
7E
ENDCHAR
STARTCHAR 1F59
ENCODING 8025
SWIDTH 840 0
DWIDTH 14 0
BBX 14 12 0 0
BITMAP
DC1C
DC38
CE38
6E70
0760
03E0
03C0
01C0
0180
0180
0180
0180
ENDCHAR
STARTCHAR 1F5B
ENCODING 8027
SWIDTH 1020 0
DWIDTH 17 0
BBX 17 12 0 0
BITMAP
CB8380
D9C300
CDC700
64E600
00EE00
007C00
007800
003800
003800
003800
003800
003800
ENDCHAR
STARTCHAR 1F5D
ENCODING 8029
SWIDTH 1080 0
DWIDTH 18 0
BBX 18 12 0 0
BITMAP
C5C1C0
CDC380
CCE380
786700
007700
003E00
003C00
001C00
001C00
001C00
001C00
001C00
ENDCHAR
STARTCHAR 1F5F
ENCODING 8031
SWIDTH 960 0
DWIDTH 16 0
BBX 16 13 0 0
BITMAP
F000
9F07
2387
638E
31CE
00DC
00F8
0078
0070
0070
0070
0070
0070
ENDCHAR
STARTCHAR 1F60
ENCODING 8032
SWIDTH 840 0
DWIDTH 14 0
BBX 12 14 1 0
BITMAP
0600
0600
0200
0400
0000
6060
6060
E670
C630
C630
C630
E670
FFF0
79E0
ENDCHAR
STARTCHAR 1F61
ENCODING 8033
SWIDTH 840 0
DWIDTH 14 0
BBX 12 14 1 0
BITMAP
0600
0600
0400
0200
0000
6060
6060
E670
C630
C630
C630
E670
FFF0
79E0
ENDCHAR
STARTCHAR 1F62
ENCODING 8034
SWIDTH 840 0
DWIDTH 14 0
BBX 12 14 1 0
BITMAP
1900
1B00
0980
1080
0000
6060
6060
E670
C630
C630
C630
E670
FFF0
79E0
ENDCHAR
STARTCHAR 1F63
ENCODING 8035
SWIDTH 840 0
DWIDTH 14 0
BBX 12 14 1 0
BITMAP
1A00
3B00
1300
0980
0000
6060
6060
E670
C630
C630
C630
E670
FFF0
79E0
ENDCHAR
STARTCHAR 1F64
ENCODING 8036
SWIDTH 840 0
DWIDTH 14 0
BBX 12 14 1 0
BITMAP
0C80
0CC0
0D80
1B00
0000
6060
6060
E670
C630
C630
C630
E670
FFF0
79E0
ENDCHAR
STARTCHAR 1F65
ENCODING 8037
SWIDTH 840 0
DWIDTH 14 0
BBX 12 14 1 0
BITMAP
1880
1980
1980
0F00
0000
6060
6060
E670
C630
C630
C630
E670
FFF0
79E0
ENDCHAR
STARTCHAR 1F66
ENCODING 8038
SWIDTH 840 0
DWIDTH 14 0
BBX 12 15 1 0
BITMAP
0F00
1980
0600
0600
0400
0000
6060
6060
E670
C630
C630
C630
E670
FFF0
79E0
ENDCHAR
STARTCHAR 1F67
ENCODING 8039
SWIDTH 840 0
DWIDTH 14 0
BBX 12 15 1 0
BITMAP
0F00
0980
0600
0600
0200
0000
6060
6060
E670
C630
C630
C630
E670
FFF0
79E0
ENDCHAR
STARTCHAR 1F68
ENCODING 8040
SWIDTH 900 0
DWIDTH 15 0
BBX 14 12 0 0
BITMAP
63C0
6FF0
6F78
DC1C
1C1C
181C
181C
1C1C
1C18
0E38
3F7C
3F7C
ENDCHAR
STARTCHAR 1F69
ENCODING 8041
SWIDTH 960 0
DWIDTH 16 0
BBX 15 12 0 0
BITMAP
C1E0
C7F8
CF3C
6E1C
0C0E
1C0E
1C0E
0C0C
0E1C
0738
1F3E
1F3E
ENDCHAR
STARTCHAR 1F6A
ENCODING 8042
SWIDTH 1140 0
DWIDTH 19 0
BBX 19 12 0 0
BITMAP
601E00
6C7F80
66F3C0
C6E1C0
01C0C0
01C0C0
01C0C0
00C1C0
00E1C0
006380
01F3E0
01F3E0
ENDCHAR
STARTCHAR 1F6B
ENCODING 8043
SWIDTH 1140 0
DWIDTH 19 0
BBX 18 12 0 0
BITMAP
C83C00
D8FF00
CCF780
65C1C0
01C1C0
0181C0
0181C0
01C1C0
01C380
00E380
03F7C0
03F7C0
ENDCHAR
STARTCHAR 1F6C
ENCODING 8044
SWIDTH 1080 0
DWIDTH 18 0
BBX 17 12 0 0
BITMAP
647800
6DFE00
69EF00
DB8380
038380
030380
030380
038380
038300
01C700
07EF80
07EF80
ENDCHAR
STARTCHAR 1F6D
ENCODING 8045
SWIDTH 1080 0
DWIDTH 18 0
BBX 18 12 0 0
BITMAP
C43C00
CEFF00
CDEF00
6B8380
038380
038180
038180
038380
018380
01C700
03EFC0
03EFC0
ENDCHAR
STARTCHAR 1F6E
ENCODING 8046
SWIDTH 1020 0
DWIDTH 17 0
BBX 16 13 0 0
BITMAP
F800
88F0
23FC
27DE
6706
0607
0607
0607
0707
070E
038C
0F9F
0F9F
ENDCHAR
STARTCHAR 1F6F
ENCODING 8047
SWIDTH 1020 0
DWIDTH 17 0
BBX 16 13 0 0
BITMAP
F800
88F0
23FC
27DE
3706
0607
0607
0607
0707
070E
038C
0F9F
0F9F
ENDCHAR
STARTCHAR 1F70
ENCODING 8048
SWIDTH 600 0
DWIDTH 10 0
BBX 9 13 1 0
BITMAP
1000
3C00
0C00
0000
3F00
7F00
E700
C700
C700
C700
E700
FF80
7F80
ENDCHAR
STARTCHAR 1F71
ENCODING 8049
SWIDTH 600 0
DWIDTH 10 0
BBX 9 13 1 0
BITMAP
0C00
1C00
3000
0000
3F00
7F00
E700
C700
C700
C700
E700
FF80
7F80
ENDCHAR
STARTCHAR 1F72
ENCODING 8050
SWIDTH 540 0
DWIDTH 9 0
BBX 7 13 1 0
BITMAP
20
78
18
00
7E
FC
E0
E0
78
E0
C0
FE
7E
ENDCHAR
STARTCHAR 1F73
ENCODING 8051
SWIDTH 540 0
DWIDTH 9 0
BBX 7 13 1 0
BITMAP
18
38
70
00
7E
FC
E0
E0
78
E0
C0
FE
7E
ENDCHAR
STARTCHAR 1F74
ENCODING 8052
SWIDTH 600 0
DWIDTH 10 0
BBX 8 16 1 -3
BITMAP
20
78
18
00
FC
FE
E7
E7
E7
E7
E7
E7
E7
07
07
07
ENDCHAR
STARTCHAR 1F75
ENCODING 8053
SWIDTH 600 0
DWIDTH 10 0
BBX 8 16 1 -3
BITMAP
08
3C
30
00
FC
FE
E7
E7
E7
E7
E7
E7
E7
07
07
07
ENDCHAR
STARTCHAR 1F76
ENCODING 8054
SWIDTH 300 0
DWIDTH 5 0
BBX 5 13 0 0
BITMAP
40
F0
30
00
70
70
70
70
70
70
70
78
38
ENDCHAR
STARTCHAR 1F77
ENCODING 8055
SWIDTH 300 0
DWIDTH 5 0
BBX 5 13 0 0
BITMAP
30
70
E0
00
70
70
70
70
70
70
70
78
38
ENDCHAR
STARTCHAR 1F78
ENCODING 8056
SWIDTH 600 0
DWIDTH 10 0
BBX 8 13 1 0
BITMAP
10
38
0C
00
3C
7E
E7
C3
C3
C3
E7
7F
3E
ENDCHAR
STARTCHAR 1F79
ENCODING 8057
SWIDTH 600 0
DWIDTH 10 0
BBX 8 13 1 0
BITMAP
0C
1C
30
00
3C
7E
E7
C3
C3
C3
E7
7F
3E
ENDCHAR
STARTCHAR 1F7A
ENCODING 8058
SWIDTH 600 0
DWIDTH 10 0
BBX 8 13 1 0
BITMAP
20
78
18
00
E7
E7
E7
E7
E7
E7
E7
7E
7E
ENDCHAR
STARTCHAR 1F7B
ENCODING 8059
SWIDTH 600 0
DWIDTH 10 0
BBX 8 13 1 0
BITMAP
08
1C
30
00
E7
E7
E7
E7
E7
E7
E7
7E
7E
ENDCHAR
STARTCHAR 1F7C
ENCODING 8060
SWIDTH 840 0
DWIDTH 14 0
BBX 12 13 1 0
BITMAP
0800
1E00
0600
0000
6060
6060
E670
C630
C630
C630
E670
FFF0
79E0
ENDCHAR
STARTCHAR 1F7D
ENCODING 8061
SWIDTH 840 0
DWIDTH 14 0
BBX 12 13 1 0
BITMAP
0300
0780
0E00
0000
6060
6060
E670
C630
C630
C630
E670
FFF0
79E0
ENDCHAR
STARTCHAR 1F80
ENCODING 8064
SWIDTH 600 0
DWIDTH 10 0
BBX 9 18 1 -4
BITMAP
0800
1C00
0800
1800
0000
3F00
7F00
E700
C700
C700
C700
E700
FF80
7F80
0000
1800
1C00
0C00
ENDCHAR
STARTCHAR 1F81
ENCODING 8065
SWIDTH 600 0
DWIDTH 10 0
BBX 9 18 1 -4
BITMAP
1800
1800
1800
0C00
0000
3F00
7F00
E700
C700
C700
C700
E700
FF80
7F80
0000
1800
1C00
0C00
ENDCHAR
STARTCHAR 1F82
ENCODING 8066
SWIDTH 600 0
DWIDTH 10 0
BBX 9 18 1 -4
BITMAP
3000
3600
3200
6300
0000
3F00
7F00
E700
C700
C700
C700
E700
FF80
7F80
0000
1800
1C00
0C00
ENDCHAR
STARTCHAR 1F83
ENCODING 8067
SWIDTH 600 0
DWIDTH 10 0
BBX 9 18 1 -4
BITMAP
6000
6C00
6600
3200
0000
3F00
7F00
E700
C700
C700
C700
E700
FF80
7F80
0000
1800
1C00
0C00
ENDCHAR
STARTCHAR 1F84
ENCODING 8068
SWIDTH 600 0
DWIDTH 10 0
BBX 9 18 1 -4
BITMAP
3200
3300
1600
2400
0000
3F00
7F00
E700
C700
C700
C700
E700
FF80
7F80
0000
1800
1C00
0C00
ENDCHAR
STARTCHAR 1F85
ENCODING 8069
SWIDTH 600 0
DWIDTH 10 0
BBX 9 18 1 -4
BITMAP
6200
6700
6600
3C00
0000
3F00
7F00
E700
C700
C700
C700
E700
FF80
7F80
0000
1800
1C00
0C00
ENDCHAR
STARTCHAR 1F86
ENCODING 8070
SWIDTH 600 0
DWIDTH 10 0
BBX 9 19 1 -4
BITMAP
3C00
2600
0800
1800
1800
0000
3F00
7F00
E700
C700
C700
C700
E700
FF80
7F80
0000
1800
1C00
0C00
ENDCHAR
STARTCHAR 1F87
ENCODING 8071
SWIDTH 600 0
DWIDTH 10 0
BBX 9 19 1 -4
BITMAP
3C00
6400
1800
1800
0800
0000
3F00
7F00
E700
C700
C700
C700
E700
FF80
7F80
0000
1800
1C00
0C00
ENDCHAR
STARTCHAR 1F88
ENCODING 8072
SWIDTH 1020 0
DWIDTH 17 0
BBX 17 12 0 0
BITMAP
670000
670000
6F8000
CD8700
1D8700
19C700
18C700
3FE700
3FE700
7FE700
707780
607380
ENDCHAR
STARTCHAR 1F89
ENCODING 8073
SWIDTH 1080 0
DWIDTH 18 0
BBX 17 12 0 0
BITMAP
C70000
E70000
4F8000
6D8300
1DC300
1DC300
18C300
3FE300
3FE300
3FE300
707380
707380
ENDCHAR
STARTCHAR 1F8A
ENCODING 8074
SWIDTH 1260 0
DWIDTH 21 0
BBX 21 12 0 0
BITMAP
686000
6CF000
4CF000
C6F870
01D870
019C70
039C70
03FC70
03FE70
07FE70
070638
0E0738
ENDCHAR
STARTCHAR 1F8B
ENCODING 8075
SWIDTH 1260 0
DWIDTH 21 0
BBX 20 12 0 0
BITMAP
C8E000
D8E000
CDF000
65B060
01B860
039860
031860
07FC60
07FC60
07FE60
0E0E70
0E0630
ENDCHAR
STARTCHAR 1F8C
ENCODING 8076
SWIDTH 1200 0
DWIDTH 20 0
BBX 20 12 0 0
BITMAP
40C000
EDE000
59E000
D3E0C0
0370C0
0730C0
0638C0
07F8C0
0FF8C0
0FFCE0
0C1CF0
1C0C60
ENDCHAR
STARTCHAR 1F8D
ENCODING 8077
SWIDTH 1260 0
DWIDTH 21 0
BBX 20 12 0 0
BITMAP
C4E000
CEE000
CDF000
69F0E0
03B0E0
0338E0
0718E0
07FCE0
07FCE0
0FFCE0
0E0E70
0C0E70
ENDCHAR
STARTCHAR 1F8E
ENCODING 8078
SWIDTH 1140 0
DWIDTH 19 0
BBX 18 13 0 0
BITMAP
F80000
8B8000
238000
27C000
66C180
06E180
0E6180
0C6180
1FF180
1FF180
1FF980
3839C0
3818C0
ENDCHAR
STARTCHAR 1F8F
ENCODING 8079
SWIDTH 1140 0
DWIDTH 19 0
BBX 18 13 0 0
BITMAP
F80000
8B8000
238000
27C000
36C180
06E180
0E6180
0C6180
1FF180
1FF180
1FF980
3839C0
3818C0
ENDCHAR
STARTCHAR 1F90
ENCODING 8080
SWIDTH 600 0
DWIDTH 10 0
BBX 8 18 1 -4
BITMAP
18
18
18
30
00
FC
FE
E7
E7
E7
E7
E7
E7
E7
07
C7
77
30
ENDCHAR
STARTCHAR 1F91
ENCODING 8081
SWIDTH 600 0
DWIDTH 10 0
BBX 8 18 1 -4
BITMAP
18
18
10
08
00
FC
FE
E7
E7
E7
E7
E7
E7
E7
07
C7
77
30
ENDCHAR
STARTCHAR 1F92
ENCODING 8082
SWIDTH 600 0
DWIDTH 10 0
BBX 8 18 1 -4
BITMAP
64
6C
26
C2
00
FC
FE
E7
E7
E7
E7
E7
E7
E7
07
C7
77
30
ENDCHAR
STARTCHAR 1F93
ENCODING 8083
SWIDTH 600 0
DWIDTH 10 0
BBX 8 18 1 -4
BITMAP
48
EC
4C
66
00
FC
FE
E7
E7
E7
E7
E7
E7
E7
07
C7
77
30
ENDCHAR
STARTCHAR 1F94
ENCODING 8084
SWIDTH 600 0
DWIDTH 10 0
BBX 8 18 1 -4
BITMAP
30
36
34
6C
00
FC
FE
E7
E7
E7
E7
E7
E7
E7
07
C7
77
30
ENDCHAR
STARTCHAR 1F95
ENCODING 8085
SWIDTH 600 0
DWIDTH 10 0
BBX 8 18 1 -4
BITMAP
60
66
4C
28
00
FC
FE
E7
E7
E7
E7
E7
E7
E7
07
C7
77
30
ENDCHAR
STARTCHAR 1F96
ENCODING 8086
SWIDTH 600 0
DWIDTH 10 0
BBX 8 19 1 -4
BITMAP
3C
66
18
18
10
00
FC
FE
E7
E7
E7
E7
E7
E7
E7
07
C7
77
30
ENDCHAR
STARTCHAR 1F97
ENCODING 8087
SWIDTH 600 0
DWIDTH 10 0
BBX 8 19 1 -4
BITMAP
3C
64
18
18
18
00
FC
FE
E7
E7
E7
E7
E7
E7
E7
07
C7
77
30
ENDCHAR
STARTCHAR 1F98
ENCODING 8088
SWIDTH 1200 0
DWIDTH 20 0
BBX 20 12 0 0
BITMAP
6E1C00
6E1C00
6E1C00
CE1CE0
0E1CE0
0FFCE0
0FFCE0
0E1CE0
0E1CE0
0E1CE0
0E1CF0
0E1C70
ENDCHAR
STARTCHAR 1F99
ENCODING 8089
SWIDTH 1200 0
DWIDTH 20 0
BBX 20 12 0 0
BITMAP
CE1C00
CE1C00
CE1C00
6E1CE0
0E1CE0
0FFCE0
0FFCE0
0E1CE0
0E1CE0
0E1CE0
0E1CF0
0E1C70
ENDCHAR
STARTCHAR 1F9A
ENCODING 8090
SWIDTH 1440 0
DWIDTH 24 0
BBX 24 12 0 0
BITMAP
60E1C0
6CE1C0
66E1C0
C6E1CE
00E1CE
00FFCE
00FFCE
00E1CE
00E1CE
00E1CE
00E1CF
00E1C7
ENDCHAR
STARTCHAR 1F9B
ENCODING 8091
SWIDTH 1440 0
DWIDTH 24 0
BBX 23 12 0 0
BITMAP
C9C380
D9C380
CDC380
65C38C
01C38C
01FF8C
01FF8C
01C38C
01C38C
01C38C
01C38E
01C38E
ENDCHAR
STARTCHAR 1F9C
ENCODING 8092
SWIDTH 1440 0
DWIDTH 24 0
BBX 23 12 0 0
BITMAP
65C380
6DC380
69C380
D9C38C
01C38C
01FF8C
01FF8C
01C38C
01C38C
01C38C
01C38E
01C38E
ENDCHAR
STARTCHAR 1F9D
ENCODING 8093
SWIDTH 1440 0
DWIDTH 24 0
BBX 24 12 0 0
BITMAP
44E1C0
E6E1C0
4CE1C0
68E1CE
00E1CE
00FFCE
00FFCE
00E1CE
00E1CE
00E1CE
00E1CF
00E1C7
ENDCHAR
STARTCHAR 1F9E
ENCODING 8094
SWIDTH 1320 0
DWIDTH 22 0
BBX 21 13 0 0
BITMAP
F80000
8B0600
230600
230600
630630
030630
03FE30
03FE30
030630
030630
030630
030638
030618
ENDCHAR
STARTCHAR 1F9F
ENCODING 8095
SWIDTH 1320 0
DWIDTH 22 0
BBX 21 13 0 0
BITMAP
F80000
8B0600
230600
230600
330630
030630
03FE30
03FE30
030630
030630
030630
030638
030618
ENDCHAR
STARTCHAR 1FA0
ENCODING 8096
SWIDTH 840 0
DWIDTH 14 0
BBX 12 18 1 -4
BITMAP
0600
0600
0200
0400
0000
6060
6060
E670
C630
C630
C630
E670
FFF0
79E0
0000
0600
0700
0300
ENDCHAR
STARTCHAR 1FA1
ENCODING 8097
SWIDTH 840 0
DWIDTH 14 0
BBX 12 18 1 -4
BITMAP
0600
0600
0400
0200
0000
6060
6060
E670
C630
C630
C630
E670
FFF0
79E0
0000
0600
0700
0300
ENDCHAR
STARTCHAR 1FA2
ENCODING 8098
SWIDTH 840 0
DWIDTH 14 0
BBX 12 18 1 -4
BITMAP
1900
1B00
0980
1080
0000
6060
6060
E670
C630
C630
C630
E670
FFF0
79E0
0000
0600
0700
0300
ENDCHAR
STARTCHAR 1FA3
ENCODING 8099
SWIDTH 840 0
DWIDTH 14 0
BBX 12 18 1 -4
BITMAP
1A00
3B00
1300
0980
0000
6060
6060
E670
C630
C630
C630
E670
FFF0
79E0
0000
0600
0700
0300
ENDCHAR
STARTCHAR 1FA4
ENCODING 8100
SWIDTH 840 0
DWIDTH 14 0
BBX 12 18 1 -4
BITMAP
0C80
0CC0
0D80
1B00
0000
6060
6060
E670
C630
C630
C630
E670
FFF0
79E0
0000
0600
0700
0300
ENDCHAR
STARTCHAR 1FA5
ENCODING 8101
SWIDTH 840 0
DWIDTH 14 0
BBX 12 18 1 -4
BITMAP
1880
1980
1980
0F00
0000
6060
6060
E670
C630
C630
C630
E670
FFF0
79E0
0000
0600
0700
0300
ENDCHAR
STARTCHAR 1FA6
ENCODING 8102
SWIDTH 840 0
DWIDTH 14 0
BBX 12 19 1 -4
BITMAP
0F00
1980
0600
0600
0400
0000
6060
6060
E670
C630
C630
C630
E670
FFF0
79E0
0000
0600
0700
0300
ENDCHAR
STARTCHAR 1FA7
ENCODING 8103
SWIDTH 840 0
DWIDTH 14 0
BBX 12 19 1 -4
BITMAP
0F00
0980
0600
0600
0200
0000
6060
6060
E670
C630
C630
C630
E670
FFF0
79E0
0000
0600
0700
0300
ENDCHAR
STARTCHAR 1FA8
ENCODING 8104
SWIDTH 1200 0
DWIDTH 20 0
BBX 20 12 0 0
BITMAP
63C000
6FF000
6F7800
DC1CE0
1C1CE0
181CE0
181CE0
1C1CE0
1C18E0
0E38E0
3F7CF0
3F7C70
ENDCHAR
STARTCHAR 1FA9
ENCODING 8105
SWIDTH 1260 0
DWIDTH 21 0
BBX 20 12 0 0
BITMAP
C1E000
C7F800
CF3C00
6E1C60
0C0E60
0C0E60
0C0E60
0E0E60
0E1C60
071860
1F3E70
1F3E30
ENDCHAR
STARTCHAR 1FAA
ENCODING 8106
SWIDTH 1500 0
DWIDTH 25 0
BBX 24 12 0 0
BITMAP
601E00
6C7F80
66F3C0
C6E1C6
01C0C6
01C0C6
01C0C6
00C1C6
00E1C6
006386
01F3E7
01F3E7
ENDCHAR
STARTCHAR 1FAB
ENCODING 8107
SWIDTH 1440 0
DWIDTH 24 0
BBX 24 12 0 0
BITMAP
C83C00
D8FF00
CCF780
65C1CE
01C1CE
0181CE
0181CE
01C1CE
01C18E
00E38E
03F7CF
03F7C7
ENDCHAR
STARTCHAR 1FAC
ENCODING 8108
SWIDTH 1380 0
DWIDTH 23 0
BBX 23 12 0 0
BITMAP
647800
6DFE00
69EF00
DB839C
03839C
03039C
03039C
03839C
03831C
01C71C
07EF9E
07EF8E
ENDCHAR
STARTCHAR 1FAD
ENCODING 8109
SWIDTH 1440 0
DWIDTH 24 0
BBX 24 12 0 0
BITMAP
443C00
E6FF00
4CF780
69C1CC
0181CC
0181CC
0181CC
01C1CC
01C38C
00E30C
03E7CF
03E7C6
ENDCHAR
STARTCHAR 1FAE
ENCODING 8110
SWIDTH 1320 0
DWIDTH 22 0
BBX 22 13 0 0
BITMAP
F80000
88F000
23FC00
27DE00
670630
060730
060730
060730
070730
070E30
038C30
0F9F3C
0F9F18
ENDCHAR
STARTCHAR 1FAF
ENCODING 8111
SWIDTH 1320 0
DWIDTH 22 0
BBX 22 13 0 0
BITMAP
F80000
88F000
23FC00
27DE00
370630
060730
060730
060730
070730
070E30
038C30
0F9F3C
0F9F18
ENDCHAR
STARTCHAR 1FB0
ENCODING 8112
SWIDTH 600 0
DWIDTH 10 0
BBX 9 13 1 0
BITMAP
6600
3E00
3C00
0000
3F00
7F00
E700
C700
C700
C700
E700
FF80
7F80
ENDCHAR
STARTCHAR 1FB1
ENCODING 8113
SWIDTH 600 0
DWIDTH 10 0
BBX 9 12 1 0
BITMAP
7E00
7E00
0000
3F00
7F00
E700
C700
C700
C700
E700
FF80
7F80
ENDCHAR
STARTCHAR 1FB2
ENCODING 8114
SWIDTH 600 0
DWIDTH 10 0
BBX 9 17 1 -4
BITMAP
1000
3C00
0C00
0000
3F00
7F00
E700
C700
C700
C700
E700
FF80
7F80
0000
1800
1C00
0C00
ENDCHAR
STARTCHAR 1FB3
ENCODING 8115
SWIDTH 600 0
DWIDTH 10 0
BBX 9 13 1 -4
BITMAP
3F00
7F00
E700
C700
C700
C700
E700
FF80
7F80
0000
1800
1C00
0C00
ENDCHAR
STARTCHAR 1FB4
ENCODING 8116
SWIDTH 600 0
DWIDTH 10 0
BBX 9 17 1 -4
BITMAP
0C00
1C00
3000
0000
3F00
7F00
E700
C700
C700
C700
E700
FF80
7F80
0000
1800
1C00
0C00
ENDCHAR
STARTCHAR 1FB6
ENCODING 8118
SWIDTH 600 0
DWIDTH 10 0
BBX 9 13 1 0
BITMAP
1800
3E00
2600
0000
3F00
7F00
E700
C700
C700
C700
E700
FF80
7F80
ENDCHAR
STARTCHAR 1FB7
ENCODING 8119
SWIDTH 600 0
DWIDTH 10 0
BBX 9 17 1 -4
BITMAP
1800
3E00
2600
0000
3F00
7F00
E700
C700
C700
C700
E700
FF80
7F80
0000
1800
1C00
0C00
ENDCHAR
STARTCHAR 1FB8
ENCODING 8120
SWIDTH 720 0
DWIDTH 12 0
BBX 12 16 0 0
BITMAP
1980
1980
0F00
0000
0600
0F00
0F00
1F80
1980
1980
39C0
3FC0
7FE0
7FE0
6060
E070
ENDCHAR
STARTCHAR 1FB9
ENCODING 8121
SWIDTH 720 0
DWIDTH 12 0
BBX 12 15 0 0
BITMAP
1F80
1F80
0000
0600
0F00
0F00
1F80
1980
1980
39C0
3FC0
7FE0
7FE0
6060
E070
ENDCHAR
STARTCHAR 1FBA
ENCODING 8122
SWIDTH 780 0
DWIDTH 13 0
BBX 13 12 0 0
BITMAP
4380
E380
77C0
26C0
0EC0
0CE0
0C60
1FF0
1FF0
3FF0
3838
3038
ENDCHAR
STARTCHAR 1FBB
ENCODING 8123
SWIDTH 780 0
DWIDTH 13 0
BBX 12 12 1 0
BITMAP
4600
EF00
CF00
9F80
1980
1980
39C0
3FC0
7FE0
7FE0
6060
E070
ENDCHAR
STARTCHAR 1FBC
ENCODING 8124
SWIDTH 1020 0
DWIDTH 17 0
BBX 17 12 0 0
BITMAP
060000
0F0000
0F0000
1F8700
198700
198700
39C700
3FC700
7FE700
7FE700
606780
E07380
ENDCHAR
STARTCHAR 1FBD
ENCODING 8125
SWIDTH 360 0
DWIDTH 6 0
BBX 2 4 2 10
BITMAP
C0
C0
40
80
ENDCHAR
STARTCHAR 1FBE
ENCODING 8126
SWIDTH 300 0
DWIDTH 5 0
BBX 3 3 1 -4
BITMAP
C0
E0
20
ENDCHAR
STARTCHAR 1FBF
ENCODING 8127
SWIDTH 360 0
DWIDTH 6 0
BBX 2 4 2 10
BITMAP
C0
C0
40
80
ENDCHAR
STARTCHAR 1FC0
ENCODING 8128
SWIDTH 360 0
DWIDTH 6 0
BBX 6 3 0 10
BITMAP
30
78
CC
ENDCHAR
STARTCHAR 1FC1
ENCODING 8129
SWIDTH 540 0
DWIDTH 9 0
BBX 5 5 2 10
BITMAP
F0
98
00
D8
D8
ENDCHAR
STARTCHAR 1FC2
ENCODING 8130
SWIDTH 600 0
DWIDTH 10 0
BBX 8 17 1 -4
BITMAP
20
78
18
00
FC
FE
E7
E7
E7
E7
E7
E7
E7
07
C7
77
30
ENDCHAR
STARTCHAR 1FC3
ENCODING 8131
SWIDTH 600 0
DWIDTH 10 0
BBX 8 13 1 -4
BITMAP
FC
FE
E7
E7
E7
E7
E7
E7
E7
07
C7
77
30
ENDCHAR
STARTCHAR 1FC4
ENCODING 8132
SWIDTH 600 0
DWIDTH 10 0
BBX 8 17 1 -4
BITMAP
18
38
60
00
FC
FE
E7
E7
E7
E7
E7
E7
E7
07
C7
77
30
ENDCHAR
STARTCHAR 1FC6
ENCODING 8134
SWIDTH 600 0
DWIDTH 10 0
BBX 8 16 1 -3
BITMAP
18
7C
66
00
FC
FE
E7
E7
E7
E7
E7
E7
E7
07
07
07
ENDCHAR
STARTCHAR 1FC7
ENCODING 8135
SWIDTH 600 0
DWIDTH 10 0
BBX 8 17 1 -4
BITMAP
18
7C
66
00
FC
FE
E7
E7
E7
E7
E7
E7
E7
07
C7
77
30
ENDCHAR
STARTCHAR 1FC8
ENCODING 8136
SWIDTH 780 0
DWIDTH 13 0
BBX 13 12 0 0
BITMAP
47F0
E7F0
77F0
2600
0600
07F0
07F0
0600
0600
0600
07F8
07F8
ENDCHAR
STARTCHAR 1FC9
ENCODING 8137
SWIDTH 840 0
DWIDTH 14 0
BBX 13 12 0 0
BITMAP
27F8
77F8
E7F8
4600
0600
07F0
07F0
0600
0600
0600
07F8
07F8
ENDCHAR
STARTCHAR 1FCA
ENCODING 8138
SWIDTH 960 0
DWIDTH 16 0
BBX 14 12 0 0
BITMAP
460C
E60C
760C
260C
060C
07FC
07FC
060C
060C
060C
060C
060C
ENDCHAR
STARTCHAR 1FCB
ENCODING 8139
SWIDTH 960 0
DWIDTH 16 0
BBX 14 12 0 0
BITMAP
260C
760C
E60C
460C
060C
07FC
07FC
060C
060C
060C
060C
060C
ENDCHAR
STARTCHAR 1FCC
ENCODING 8140
SWIDTH 1020 0
DWIDTH 17 0
BBX 16 12 1 0
BITMAP
E1C0
E1C0
E1C0
E1CE
E1CE
FFCE
FFCE
E1CE
E1CE
E1CE
E1C7
E1C7
ENDCHAR
STARTCHAR 1FCD
ENCODING 8141
SWIDTH 660 0
DWIDTH 11 0
BBX 7 4 2 10
BITMAP
48
FC
4C
86
ENDCHAR
STARTCHAR 1FCE
ENCODING 8142
SWIDTH 540 0
DWIDTH 9 0
BBX 6 4 2 10
BITMAP
C8
CC
58
90
ENDCHAR
STARTCHAR 1FCF
ENCODING 8143
SWIDTH 360 0
DWIDTH 6 0
BBX 5 5 1 10
BITMAP
F0
98
60
60
40
ENDCHAR
STARTCHAR 1FD0
ENCODING 8144
SWIDTH 300 0
DWIDTH 5 0
BBX 5 13 0 0
BITMAP
C8
F8
70
00
70
70
70
70
70
70
70
78
38
ENDCHAR
STARTCHAR 1FD1
ENCODING 8145
SWIDTH 300 0
DWIDTH 5 0
BBX 5 12 0 0
BITMAP
F8
F8
00
70
70
70
70
70
70
70
78
38
ENDCHAR
STARTCHAR 1FD2
ENCODING 8146
SWIDTH 300 0
DWIDTH 5 0
BBX 8 13 -2 1
BITMAP
58
EB
6F
00
1C
1C
1C
1C
1C
1C
1C
1E
0E
ENDCHAR
STARTCHAR 1FD3
ENCODING 8147
SWIDTH 300 0
DWIDTH 5 0
BBX 8 13 -1 1
BITMAP
1A
DF
D3
00
38
38
38
38
38
38
38
3C
1C
ENDCHAR
STARTCHAR 1FD6
ENCODING 8150
SWIDTH 300 0
DWIDTH 5 0
BBX 5 13 0 0
BITMAP
70
F8
D8
00
70
70
70
70
70
70
70
78
38
ENDCHAR
STARTCHAR 1FD7
ENCODING 8151
SWIDTH 300 0
DWIDTH 5 0
BBX 5 15 0 0
BITMAP
78
88
00
D8
D8
00
70
70
70
70
70
70
70
78
38
ENDCHAR
STARTCHAR 1FD8
ENCODING 8152
SWIDTH 300 0
DWIDTH 5 0
BBX 5 16 0 0
BITMAP
C8
D8
78
00
70
70
70
70
70
70
70
70
70
70
70
70
ENDCHAR
STARTCHAR 1FD9
ENCODING 8153
SWIDTH 300 0
DWIDTH 5 0
BBX 5 15 0 0
BITMAP
F8
F8
00
70
70
70
70
70
70
70
70
70
70
70
70
ENDCHAR
STARTCHAR 1FDA
ENCODING 8154
SWIDTH 540 0
DWIDTH 9 0
BBX 8 12 0 0
BITMAP
47
E7
77
27
07
07
07
07
07
07
07
07
ENDCHAR
STARTCHAR 1FDB
ENCODING 8155
SWIDTH 540 0
DWIDTH 9 0
BBX 7 12 1 0
BITMAP
4E
EE
CE
8E
0E
0E
0E
0E
0E
0E
0E
0E
ENDCHAR
STARTCHAR 1FDD
ENCODING 8157
SWIDTH 600 0
DWIDTH 10 0
BBX 6 4 2 10
BITMAP
C0
D8
88
4C
ENDCHAR
STARTCHAR 1FDE
ENCODING 8158
SWIDTH 600 0
DWIDTH 10 0
BBX 6 4 2 10
BITMAP
C0
CC
C8
78
ENDCHAR
STARTCHAR 1FDF
ENCODING 8159
SWIDTH 420 0
DWIDTH 7 0
BBX 5 5 1 10
BITMAP
F0
98
60
60
20
ENDCHAR
STARTCHAR 1FE0
ENCODING 8160
SWIDTH 600 0
DWIDTH 10 0
BBX 8 13 1 0
BITMAP
66
7C
3C
00
E7
E7
E7
E7
E7
E7
E7
7E
7E
ENDCHAR
STARTCHAR 1FE1
ENCODING 8161
SWIDTH 600 0
DWIDTH 10 0
BBX 8 12 1 0
BITMAP
7E
7E
00
E7
E7
E7
E7
E7
E7
E7
7E
7E
ENDCHAR
STARTCHAR 1FE2
ENCODING 8162
SWIDTH 600 0
DWIDTH 10 0
BBX 8 13 1 1
BITMAP
32
DF
CB
00
E7
E7
E7
E7
E7
E7
E7
7E
7E
ENDCHAR
STARTCHAR 1FE3
ENCODING 8163
SWIDTH 600 0
DWIDTH 10 0
BBX 8 13 1 1
BITMAP
08
FB
D3
00
E7
E7
E7
E7
E7
E7
E7
7E
7E
ENDCHAR
STARTCHAR 1FE4
ENCODING 8164
SWIDTH 600 0
DWIDTH 10 0
BBX 8 17 1 -3
BITMAP
08
1C
08
18
00
3C
7F
E7
E3
E3
E3
E7
FF
FE
E0
E0
E0
ENDCHAR
STARTCHAR 1FE5
ENCODING 8165
SWIDTH 600 0
DWIDTH 10 0
BBX 8 17 1 -3
BITMAP
18
18
10
08
00
3C
7F
E7
E3
E3
E3
E7
FF
FE
E0
E0
E0
ENDCHAR
STARTCHAR 1FE6
ENCODING 8166
SWIDTH 600 0
DWIDTH 10 0
BBX 8 13 1 0
BITMAP
18
3C
66
00
E7
E7
E7
E7
E7
E7
E7
7E
7E
ENDCHAR
STARTCHAR 1FE7
ENCODING 8167
SWIDTH 600 0
DWIDTH 10 0
BBX 8 15 1 0
BITMAP
3C
64
00
66
66
00
E7
E7
E7
E7
E7
E7
E7
7E
7E
ENDCHAR
STARTCHAR 1FE8
ENCODING 8168
SWIDTH 660 0
DWIDTH 11 0
BBX 11 16 0 0
BITMAP
1100
1B00
0E00
0000
E0E0
70C0
71C0
3980
3B80
1F00
0E00
0E00
0E00
0E00
0E00
0E00
ENDCHAR
STARTCHAR 1FE9
ENCODING 8169
SWIDTH 660 0
DWIDTH 11 0
BBX 11 15 0 0
BITMAP
1F00
1F00
0000
E0E0
70C0
71C0
3980
3B80
1F00
0E00
0E00
0E00
0E00
0E00
0E00
ENDCHAR
STARTCHAR 1FEA
ENCODING 8170
SWIDTH 900 0
DWIDTH 15 0
BBX 15 12 0 0
BITMAP
4E0E
EE1C
771C
2738
03B0
01F0
01E0
00E0
00C0
00C0
00C0
00C0
ENDCHAR
STARTCHAR 1FEB
ENCODING 8171
SWIDTH 900 0
DWIDTH 15 0
BBX 15 12 0 0
BITMAP
2E0E
770E
E71C
439C
01B8
01F0
00F0
00E0
00E0
00E0
00E0
00E0
ENDCHAR
STARTCHAR 1FEC
ENCODING 8172
SWIDTH 840 0
DWIDTH 14 0
BBX 13 12 0 0
BITMAP
C7C0
CFF0
CFF8
6E38
0E38
0E38
0FF0
0FE0
0E00
0E00
0E00
0E00
ENDCHAR
STARTCHAR 1FED
ENCODING 8173
SWIDTH 540 0
DWIDTH 9 0
BBX 8 3 1 11
BITMAP
50
FB
CB
ENDCHAR
STARTCHAR 1FEE
ENCODING 8174
SWIDTH 600 0
DWIDTH 10 0
BBX 8 4 1 10
BITMAP
08
4C
FB
D3
ENDCHAR
STARTCHAR 1FEF
ENCODING 8175
SWIDTH 300 0
DWIDTH 5 0
BBX 4 3 0 10
BITMAP
40
F0
30
ENDCHAR
STARTCHAR 1FF2
ENCODING 8178
SWIDTH 840 0
DWIDTH 14 0
BBX 12 17 1 -4
BITMAP
0800
1E00
0600
0000
6060
6060
E670
C630
C630
C630
E670
FFF0
79E0
0000
0600
0700
0300
ENDCHAR
STARTCHAR 1FF3
ENCODING 8179
SWIDTH 840 0
DWIDTH 14 0
BBX 12 13 1 -4
BITMAP
6060
6060
E670
C630
C630
C630
E670
FFF0
79E0
0000
0600
0700
0300
ENDCHAR
STARTCHAR 1FF4
ENCODING 8180
SWIDTH 840 0
DWIDTH 14 0
BBX 12 17 1 -4
BITMAP
0300
0700
0E00
0000
6060
6060
E670
C630
C630
C630
E670
FFF0
79E0
0000
0600
0700
0300
ENDCHAR
STARTCHAR 1FF6
ENCODING 8182
SWIDTH 840 0
DWIDTH 14 0
BBX 12 13 1 0
BITMAP
0600
0F00
1980
0000
6060
6060
E670
C630
C630
C630
E670
FFF0
79E0
ENDCHAR
STARTCHAR 1FF7
ENCODING 8183
SWIDTH 840 0
DWIDTH 14 0
BBX 12 17 1 -4
BITMAP
0600
0F00
1980
0000
6060
6060
E670
C630
C630
C630
E670
FFF0
79E0
0000
0600
0700
0300
ENDCHAR
STARTCHAR 1FF8
ENCODING 8184
SWIDTH 1020 0
DWIDTH 17 0
BBX 16 12 0 0
BITMAP
40F0
E3FC
77DE
270E
0607
0E07
0E07
0607
0707
078E
03FC
01F8
ENDCHAR
STARTCHAR 1FF9
ENCODING 8185
SWIDTH 960 0
DWIDTH 16 0
BBX 14 12 1 0
BITMAP
41E0
E7F0
CF78
9C1C
1C1C
1C0C
1C0C
1C1C
1C1C
0E3C
0FF8
03F0
ENDCHAR
STARTCHAR 1FFA
ENCODING 8186
SWIDTH 1020 0
DWIDTH 17 0
BBX 16 12 0 0
BITMAP
40F0
E3FC
73DE
2707
0707
0607
0607
0707
070E
038C
0F9F
0F9F
ENDCHAR
STARTCHAR 1FFB
ENCODING 8187
SWIDTH 960 0
DWIDTH 16 0
BBX 14 12 1 0
BITMAP
43E0
E7F0
CF78
9C1C
1C1C
1C1C
1C1C
1C1C
0C18
0E38
1F7C
1F7C
ENDCHAR
STARTCHAR 1FFC
ENCODING 8188
SWIDTH 1080 0
DWIDTH 18 0
BBX 17 12 1 0
BITMAP
1F0000
3F8000
7BC000
E0E700
E0E700
E0E700
E0E700
E0E700
60C700
71C700
FBE780
FBE380
ENDCHAR
STARTCHAR 1FFD
ENCODING 8189
SWIDTH 300 0
DWIDTH 5 0
BBX 4 3 0 10
BITMAP
30
70
E0
ENDCHAR
STARTCHAR 1FFE
ENCODING 8190
SWIDTH 360 0
DWIDTH 6 0
BBX 2 4 2 10
BITMAP
C0
C0
80
40
ENDCHAR
STARTCHAR 2013
ENCODING 8211
SWIDTH 480 0
DWIDTH 8 0
BBX 8 2 0 4
BITMAP
FF
FF
ENDCHAR
STARTCHAR 2014
ENCODING 8212
SWIDTH 1020 0
DWIDTH 17 0
BBX 17 2 0 4
BITMAP
FFFF80
FFFF80
ENDCHAR
STARTCHAR 2015
ENCODING 8213
SWIDTH 1020 0
DWIDTH 17 0
BBX 17 2 0 4
BITMAP
FFFF80
FFFF80
ENDCHAR
STARTCHAR 2018
ENCODING 8216
SWIDTH 240 0
DWIDTH 4 0
BBX 3 5 1 8
BITMAP
60
C0
C0
C0
C0
ENDCHAR
STARTCHAR 2019
ENCODING 8217
SWIDTH 240 0
DWIDTH 4 0
BBX 3 5 0 8
BITMAP
60
60
60
60
C0
ENDCHAR
STARTCHAR 201A
ENCODING 8218
SWIDTH 240 0
DWIDTH 4 0
BBX 3 5 0 -2
BITMAP
60
60
60
60
C0
ENDCHAR
STARTCHAR 201C
ENCODING 8220
SWIDTH 480 0
DWIDTH 8 0
BBX 6 5 1 8
BITMAP
6C
CC
DC
DC
DC
ENDCHAR
STARTCHAR 201D
ENCODING 8221
SWIDTH 480 0
DWIDTH 8 0
BBX 7 5 0 8
BITMAP
66
66
6E
6C
CC
ENDCHAR
STARTCHAR 201E
ENCODING 8222
SWIDTH 480 0
DWIDTH 8 0
BBX 7 5 0 -2
BITMAP
6E
66
6E
6C
CC
ENDCHAR
STARTCHAR 2020
ENCODING 8224
SWIDTH 480 0
DWIDTH 8 0
BBX 7 14 1 -2
BITMAP
30
30
30
30
FE
FE
30
30
30
30
30
30
30
30
ENDCHAR
STARTCHAR 2021
ENCODING 8225
SWIDTH 480 0
DWIDTH 8 0
BBX 7 14 1 -2
BITMAP
30
30
30
30
FE
FE
30
30
FE
FE
30
30
30
30
ENDCHAR
STARTCHAR 2022
ENCODING 8226
SWIDTH 360 0
DWIDTH 6 0
BBX 4 4 1 4
BITMAP
F0
F0
F0
F0
ENDCHAR
STARTCHAR 2026
ENCODING 8230
SWIDTH 1020 0
DWIDTH 17 0
BBX 15 3 1 0
BITMAP
630C
E38E
E38C
ENDCHAR
STARTCHAR 2030
ENCODING 8240
SWIDTH 1320 0
DWIDTH 22 0
BBX 20 12 1 0
BITMAP
706000
F8C000
D8C000
898000
DB8000
FB0000
7779E0
06D9B0
0ECD30
0CCD10
18D9B0
1879F0
ENDCHAR
STARTCHAR 2039
ENCODING 8249
SWIDTH 300 0
DWIDTH 5 0
BBX 5 8 0 1
BITMAP
10
38
30
70
E0
70
30
18
ENDCHAR
STARTCHAR 203A
ENCODING 8250
SWIDTH 300 0
DWIDTH 5 0
BBX 4 8 1 1
BITMAP
40
C0
E0
70
70
60
E0
C0
ENDCHAR
STARTCHAR 2044
ENCODING 8260
SWIDTH 180 0
DWIDTH 3 0
BBX 8 12 -3 0
BITMAP
03
03
06
06
0C
0C
18
38
30
70
60
E0
ENDCHAR
STARTCHAR 2070
ENCODING 8304
SWIDTH 360 0
DWIDTH 6 0
BBX 6 7 0 5
BITMAP
30
78
CC
CC
CC
78
78
ENDCHAR
STARTCHAR 2074
ENCODING 8308
SWIDTH 360 0
DWIDTH 6 0
BBX 6 7 0 5
BITMAP
18
38
38
58
FC
FC
18
ENDCHAR
STARTCHAR 2075
ENCODING 8309
SWIDTH 360 0
DWIDTH 6 0
BBX 5 7 0 5
BITMAP
78
78
60
78
18
58
F8
ENDCHAR
STARTCHAR 2076
ENCODING 8310
SWIDTH 360 0
DWIDTH 6 0
BBX 5 7 1 5
BITMAP
30
70
C0
F0
98
D8
F0
ENDCHAR
STARTCHAR 2077
ENCODING 8311
SWIDTH 360 0
DWIDTH 6 0
BBX 6 7 0 5
BITMAP
FC
FC
18
10
30
30
30
ENDCHAR
STARTCHAR 2078
ENCODING 8312
SWIDTH 360 0
DWIDTH 6 0
BBX 6 7 0 5
BITMAP
38
78
48
78
CC
CC
78
ENDCHAR
STARTCHAR 2079
ENCODING 8313
SWIDTH 360 0
DWIDTH 6 0
BBX 5 7 1 5
BITMAP
60
F0
98
F8
10
F0
E0
ENDCHAR
STARTCHAR 2080
ENCODING 8320
SWIDTH 360 0
DWIDTH 6 0
BBX 6 7 0 0
BITMAP
30
78
CC
CC
CC
78
78
ENDCHAR
STARTCHAR 2081
ENCODING 8321
SWIDTH 360 0
DWIDTH 6 0
BBX 4 7 1 0
BITMAP
30
F0
F0
30
30
30
30
ENDCHAR
STARTCHAR 2082
ENCODING 8322
SWIDTH 360 0
DWIDTH 6 0
BBX 5 7 0 0
BITMAP
70
F8
18
38
70
78
78
ENDCHAR
STARTCHAR 2083
ENCODING 8323
SWIDTH 360 0
DWIDTH 6 0
BBX 5 7 0 0
BITMAP
70
78
18
38
18
58
F8
ENDCHAR
STARTCHAR 2084
ENCODING 8324
SWIDTH 360 0
DWIDTH 6 0
BBX 6 7 0 0
BITMAP
18
38
38
58
FC
FC
18
ENDCHAR
STARTCHAR 2085
ENCODING 8325
SWIDTH 360 0
DWIDTH 6 0
BBX 5 7 0 0
BITMAP
78
78
60
78
18
58
F8
ENDCHAR
STARTCHAR 2086
ENCODING 8326
SWIDTH 360 0
DWIDTH 6 0
BBX 5 7 1 0
BITMAP
30
70
C0
F0
98
D8
F0
ENDCHAR
STARTCHAR 2087
ENCODING 8327
SWIDTH 360 0
DWIDTH 6 0
BBX 6 7 0 0
BITMAP
FC
FC
18
10
30
30
30
ENDCHAR
STARTCHAR 2088
ENCODING 8328
SWIDTH 360 0
DWIDTH 6 0
BBX 6 7 0 0
BITMAP
38
78
48
78
CC
CC
78
ENDCHAR
STARTCHAR 2089
ENCODING 8329
SWIDTH 360 0
DWIDTH 6 0
BBX 5 7 1 0
BITMAP
60
F0
98
F8
10
F0
E0
ENDCHAR
STARTCHAR 20AC
ENCODING 8364
SWIDTH 540 0
DWIDTH 9 0
BBX 8 12 1 0
BITMAP
0F
3F
39
70
FE
FE
60
FC
60
70
3F
1F
ENDCHAR
STARTCHAR 20AE
ENCODING 8366
SWIDTH 540 0
DWIDTH 9 0
BBX 9 12 0 0
BITMAP
FF80
FF80
FF80
1C00
1F00
1E00
3C00
3F00
1E00
3C00
3C00
1C00
ENDCHAR
STARTCHAR 20B4
ENCODING 8372
SWIDTH 540 0
DWIDTH 9 0
BBX 9 12 0 0
BITMAP
3C00
3F00
2700
0300
FF80
FF80
3C00
FF80
FF80
7000
7F00
3F00
ENDCHAR
STARTCHAR 20B9
ENCODING 8377
SWIDTH 540 0
DWIDTH 9 0
BBX 9 12 1 0
BITMAP
FF80
FF80
0E00
FF00
FF00
0E00
FC00
F000
F000
7800
3800
1C00
ENDCHAR
STARTCHAR 2113
ENCODING 8467
SWIDTH 540 0
DWIDTH 9 0
BBX 7 13 1 0
BITMAP
1C
3E
66
66
66
6C
6C
78
70
E0
E0
7E
3E
ENDCHAR
STARTCHAR 2116
ENCODING 8470
SWIDTH 1140 0
DWIDTH 19 0
BBX 17 12 1 0
BITMAP
C1C700
E1DF80
F1D980
F9D980
FDD980
EDCF80
EFC200
E7C000
E3DF80
E3DF80
E1C000
E1C000
ENDCHAR
STARTCHAR 2122
ENCODING 8482
SWIDTH 840 0
DWIDTH 14 0
BBX 14 6 0 6
BITMAP
FD98
FD98
31D8
317C
316C
316C
ENDCHAR
STARTCHAR 2126
ENCODING 8486
SWIDTH 780 0
DWIDTH 13 0
BBX 11 12 1 0
BITMAP
1F00
3F80
7BC0
E0E0
E0E0
E0E0
E0E0
E0E0
60C0
71C0
FBE0
FBE0
ENDCHAR
STARTCHAR 212E
ENCODING 8494
SWIDTH 960 0
DWIDTH 16 0
BBX 13 12 1 0
BITMAP
0780
1860
2010
6018
E018
E018
FFE0
E000
6000
6000
2010
1FE0
ENDCHAR
STARTCHAR 2153
ENCODING 8531
SWIDTH 900 0
DWIDTH 15 0
BBX 13 12 1 0
BITMAP
20C0
E180
E180
6300
6700
6670
6EF8
0C18
1C70
1818
3898
30F0
ENDCHAR
STARTCHAR 2154
ENCODING 8532
SWIDTH 900 0
DWIDTH 15 0
BBX 14 12 0 0
BITMAP
7060
F860
18C0
38C0
7180
79B8
7B7C
070C
0638
0E0C
0C4C
1C78
ENDCHAR
STARTCHAR 2155
ENCODING 8533
SWIDTH 900 0
DWIDTH 15 0
BBX 13 12 1 0
BITMAP
20C0
E1C0
E180
6380
6300
6778
6678
0C40
0C78
1818
1898
30F0
ENDCHAR
STARTCHAR 2156
ENCODING 8534
SWIDTH 900 0
DWIDTH 15 0
BBX 14 12 0 0
BITMAP
7070
F860
18E0
38C0
71C0
79BC
7B3C
0320
063C
060C
0C4C
0C78
ENDCHAR
STARTCHAR 2157
ENCODING 8535
SWIDTH 900 0
DWIDTH 15 0
BBX 14 12 0 0
BITMAP
7060
78E0
18C0
39C0
1980
5BBC
FB3C
0720
063C
0E0C
0C4C
1C78
ENDCHAR
STARTCHAR 2158
ENCODING 8536
SWIDTH 900 0
DWIDTH 15 0
BBX 14 12 0 0
BITMAP
1870
3860
38C0
58C0
FD80
FDBC
1B3C
0320
063C
060C
0C4C
0C78
ENDCHAR
STARTCHAR 2159
ENCODING 8537
SWIDTH 900 0
DWIDTH 15 0
BBX 13 12 1 0
BITMAP
20C0
E1C0
E180
6380
6300
6718
6678
0EC0
0CF8
1CD8
18D8
3870
ENDCHAR
STARTCHAR 215A
ENCODING 8538
SWIDTH 900 0
DWIDTH 15 0
BBX 14 12 0 0
BITMAP
7870
7860
60E0
78C0
19C0
598C
FB3C
0360
067C
066C
0C6C
0C38
ENDCHAR
STARTCHAR 215B
ENCODING 8539
SWIDTH 900 0
DWIDTH 15 0
BBX 13 12 1 0
BITMAP
20C0
E180
E180
6300
6300
6670
66D8
0CD8
0C70
18D8
38D8
30F8
ENDCHAR
STARTCHAR 215C
ENCODING 8540
SWIDTH 900 0
DWIDTH 15 0
BBX 14 12 0 0
BITMAP
7060
78E0
18C0
39C0
1980
5BB8
FB6C
076C
0638
0E6C
0C6C
1C7C
ENDCHAR
STARTCHAR 215D
ENCODING 8541
SWIDTH 900 0
DWIDTH 15 0
BBX 14 12 0 0
BITMAP
7860
78E0
60C0
79C0
1980
5BB8
FB6C
076C
0638
0E6C
0C6C
1C7C
ENDCHAR
STARTCHAR 215E
ENCODING 8542
SWIDTH 900 0
DWIDTH 15 0
BBX 14 12 0 0
BITMAP
F8E0
F8C0
19C0
3180
3380
3338
676C
066C
0E38
0C6C
1C6C
187C
ENDCHAR
STARTCHAR 2202
ENCODING 8706
SWIDTH 600 0
DWIDTH 10 0
BBX 8 13 1 0
BITMAP
7C
7E
07
03
1B
7F
F7
C3
C3
C7
C7
FE
7C
ENDCHAR
STARTCHAR 2206
ENCODING 8710
SWIDTH 720 0
DWIDTH 12 0
BBX 11 12 0 0
BITMAP
0600
0E00
0F00
1F00
1B80
3980
3980
31C0
70C0
70E0
7FE0
FFE0
ENDCHAR
STARTCHAR 220F
ENCODING 8719
SWIDTH 720 0
DWIDTH 12 0
BBX 10 14 1 -2
BITMAP
FFC0
FFC0
FFC0
E1C0
E1C0
E1C0
E1C0
E1C0
E1C0
E1C0
E1C0
E1C0
E1C0
E1C0
ENDCHAR
STARTCHAR 2211
ENCODING 8721
SWIDTH 540 0
DWIDTH 9 0
BBX 9 14 0 -2
BITMAP
FF80
FF80
7F80
7000
3800
1C00
1C00
1C00
1800
3800
7000
6000
FF80
FF80
ENDCHAR
STARTCHAR 2212
ENCODING 8722
SWIDTH 540 0
DWIDTH 9 0
BBX 8 2 1 4
BITMAP
FF
FF
ENDCHAR
STARTCHAR 2215
ENCODING 8725
SWIDTH 180 0
DWIDTH 3 0
BBX 8 12 -3 0
BITMAP
03
03
06
06
0C
0C
18
38
30
70
60
E0
ENDCHAR
STARTCHAR 2219
ENCODING 8729
SWIDTH 240 0
DWIDTH 4 0
BBX 3 3 1 3
BITMAP
E0
E0
C0
ENDCHAR
STARTCHAR 221A
ENCODING 8730
SWIDTH 600 0
DWIDTH 10 0
BBX 9 13 1 0
BITMAP
0180
0180
0180
0380
0300
0300
6700
E600
F600
3600
3C00
1C00
1C00
ENDCHAR
STARTCHAR 221E
ENCODING 8734
SWIDTH 660 0
DWIDTH 11 0
BBX 9 6 1 2
BITMAP
6200
FF80
DD80
9980
FF80
6700
ENDCHAR
STARTCHAR 222B
ENCODING 8747
SWIDTH 420 0
DWIDTH 7 0
BBX 7 16 0 -3
BITMAP
0E
1E
38
38
38
38
38
38
38
38
38
38
38
30
F0
E0
ENDCHAR
STARTCHAR 2248
ENCODING 8776
SWIDTH 540 0
DWIDTH 9 0
BBX 8 8 1 1
BITMAP
62
FB
FF
8E
20
FB
FF
8E
ENDCHAR
STARTCHAR 2260
ENCODING 8800
SWIDTH 540 0
DWIDTH 9 0
BBX 8 10 1 0
BITMAP
04
06
FF
FF
18
10
FF
FF
60
40
ENDCHAR
STARTCHAR 2264
ENCODING 8804
SWIDTH 540 0
DWIDTH 9 0
BBX 8 10 1 0
BITMAP
06
3F
F8
E0
F8
3F
06
00
FF
FF
ENDCHAR
STARTCHAR 2265
ENCODING 8805
SWIDTH 540 0
DWIDTH 9 0
BBX 8 10 1 0
BITMAP
E0
F8
3F
07
3F
F8
E0
00
FF
FF
ENDCHAR
STARTCHAR 25CA
ENCODING 9674
SWIDTH 600 0
DWIDTH 10 0
BBX 8 11 1 1
BITMAP
18
3C
3C
66
E7
C7
66
7E
3C
18
18
ENDCHAR
STARTCHAR E0FF
ENCODING 57599
SWIDTH 780 0
DWIDTH 13 0
BBX 13 12 0 0
BITMAP
0700
1FC0
3F60
78F0
6730
6FB8
DFF8
6730
7A70
79F0
3F60
0F80
ENDCHAR
STARTCHAR EFFD
ENCODING 61437
SWIDTH 1680 0
DWIDTH 28 0
BBX 28 7 0 0
BITMAP
300E70E0
781F79F0
CC1B1930
CC1E3930
CD930930
79D359B0
799E78E0
ENDCHAR
STARTCHAR F000
ENCODING 61440
SWIDTH 960 0
DWIDTH 16 0
BBX 14 12 1 0
BITMAP
7CFC
8000
8504
8504
8504
8000
3878
8000
8504
8504
8000
3878
ENDCHAR
STARTCHAR F001
ENCODING 61441
SWIDTH 720 0
DWIDTH 12 0
BBX 10 13 1 0
BITMAP
3C80
7DC0
E1C0
E000
FDC0
FDC0
E1C0
E1C0
E1C0
E1C0
E1C0
E1C0
E1C0
ENDCHAR
STARTCHAR F002
ENCODING 61442
SWIDTH 720 0
DWIDTH 12 0
BBX 11 13 1 0
BITMAP
3DC0
7DC0
E1C0
E1C0
FDC0
FDC0
E1C0
E1C0
E1C0
E1C0
E1C0
E1E0
E0E0
ENDCHAR
STARTCHAR F0FF
ENCODING 61695
SWIDTH 480 0
DWIDTH 8 0
BBX 7 7 0 6
BITMAP
38
76
DE
BA
DE
6E
3C
ENDCHAR
STARTCHAR F200
ENCODING 61952
SWIDTH 3540 0
DWIDTH 59 0
BBX 58 13 0 0
BITMAP
0060000000000700
0060000000001E80
006000000C001BC0
006000000C002FC0
C27E10CF8F90D6C0
C27F10CFCF90DB80
C26190C84C10CF80
C26190C86C10C000
C26190C86C10C000
C26190C86C10C000
C26190C86410C000
626318C86618C000
3E7E0FC867CFC000
ENDCHAR
STARTCHAR F506
ENCODING 62726
SWIDTH 900 0
DWIDTH 15 0
BBX 13 12 1 0
BITMAP
21C0
E180
E380
6300
6700
66F8
6EF8
0C18
1C30
1830
3860
3060
ENDCHAR
STARTCHAR F507
ENCODING 62727
SWIDTH 900 0
DWIDTH 15 0
BBX 14 12 0 0
BITMAP
7060
F8E0
18C0
39C0
7180
7BFC
7B7C
070C
0618
0E18
0C30
1C30
ENDCHAR
STARTCHAR F508
ENCODING 62728
SWIDTH 900 0
DWIDTH 15 0
BBX 14 12 0 0
BITMAP
7060
78C0
18C0
3980
1980
5B7C
FB7C
060C
0618
0C18
0C30
1830
ENDCHAR
STARTCHAR F509
ENCODING 62729
SWIDTH 900 0
DWIDTH 15 0
BBX 14 12 0 0
BITMAP
1860
38E0
38C0
59C0
FD80
FFFC
1B7C
070C
0618
0E18
0C30
1C30
ENDCHAR
STARTCHAR F50A
ENCODING 62730
SWIDTH 900 0
DWIDTH 15 0
BBX 14 12 0 0
BITMAP
7860
78C0
60C0
7980
1980
5B7C
FB7C
060C
0618
0C18
0C30
1830
ENDCHAR
STARTCHAR F50B
ENCODING 62731
SWIDTH 900 0
DWIDTH 15 0
BBX 13 12 1 0
BITMAP
30C0
71C0
C180
F300
9B00
DEF8
F6F8
0C18
0C30
1830
1860
3060
ENDCHAR
STARTCHAR F50C
ENCODING 62732
SWIDTH 900 0
DWIDTH 15 0
BBX 13 12 1 0
BITMAP
20C0
E180
E180
6300
6300
6670
66F8
0CD8
0CF8
1818
3870
3060
ENDCHAR
STARTCHAR F50D
ENCODING 62733
SWIDTH 900 0
DWIDTH 15 0
BBX 14 12 0 0
BITMAP
7060
F860
18C0
38C0
7180
79B8
7B7C
036C
067C
060C
0C38
0C30
ENDCHAR
STARTCHAR F50E
ENCODING 62734
SWIDTH 900 0
DWIDTH 15 0
BBX 14 12 0 0
BITMAP
1860
3860
38C0
58C0
FD80
FDB8
1B7C
036C
067C
060C
0C38
1C30
ENDCHAR
STARTCHAR F50F
ENCODING 62735
SWIDTH 900 0
DWIDTH 15 0
BBX 14 12 0 0
BITMAP
7860
78E0
60C0
79C0
1980
5BB8
FB7C
076C
067C
0E0C
0C38
1C30
ENDCHAR
STARTCHAR F510
ENCODING 62736
SWIDTH 900 0
DWIDTH 15 0
BBX 14 12 0 0
BITMAP
F8E0
F8C0
19C0
3180
3380
3338
667C
066C
0C7C
0C0C
1838
1830
ENDCHAR
STARTCHAR F511
ENCODING 62737
SWIDTH 900 0
DWIDTH 15 0
BBX 14 12 0 0
BITMAP
3860
7860
48C0
78C0
CD80
CDB8
7B7C
036C
067C
060C
0C38
0C30
ENDCHAR
STARTCHAR F800
ENCODING 63488
SWIDTH 600 0
DWIDTH 10 0
BBX 8 12 1 0
BITMAP
38
7E
E6
E7
C7
C3
C3
C7
C7
E7
7E
3C
ENDCHAR
STARTCHAR F801
ENCODING 63489
SWIDTH 480 0
DWIDTH 8 0
BBX 5 12 1 0
BITMAP
18
38
F8
F8
98
18
18
18
18
18
18
18
ENDCHAR
STARTCHAR F802
ENCODING 63490
SWIDTH 540 0
DWIDTH 9 0
BBX 8 12 1 0
BITMAP
38
FE
CE
06
0E
0E
1C
38
70
E0
FF
FF
ENDCHAR
STARTCHAR F803
ENCODING 63491
SWIDTH 540 0
DWIDTH 9 0
BBX 8 12 0 0
BITMAP
3C
7E
47
07
07
3E
3E
07
03
07
7F
FE
ENDCHAR
STARTCHAR F804
ENCODING 63492
SWIDTH 600 0
DWIDTH 10 0
BBX 9 12 0 0
BITMAP
0300
0700
0F00
1F00
3F00
3700
6700
7F80
FF80
0700
0700
0700
ENDCHAR
STARTCHAR F805
ENCODING 63493
SWIDTH 540 0
DWIDTH 9 0
BBX 7 12 1 0
BITMAP
7E
7E
7E
60
E0
FC
FE
0E
06
06
FE
FC
ENDCHAR
STARTCHAR F806
ENCODING 63494
SWIDTH 600 0
DWIDTH 10 0
BBX 8 12 1 0
BITMAP
06
1E
7C
60
E0
FE
FF
C7
C7
E7
FE
7C
ENDCHAR
STARTCHAR F807
ENCODING 63495
SWIDTH 540 0
DWIDTH 9 0
BBX 9 12 0 0
BITMAP
FF80
FF80
FF00
0700
0E00
0C00
1C00
1C00
1800
1800
3800
3800
ENDCHAR
STARTCHAR F808
ENCODING 63496
SWIDTH 540 0
DWIDTH 9 0
BBX 8 12 1 0
BITMAP
3C
7E
E6
C7
E6
7E
7E
EF
C7
C7
FE
7C
ENDCHAR
STARTCHAR F809
ENCODING 63497
SWIDTH 600 0
DWIDTH 10 0
BBX 8 12 1 0
BITMAP
38
FE
EE
C7
C7
E7
FF
3F
06
1E
FC
F0
ENDCHAR
STARTCHAR F80A
ENCODING 63498
SWIDTH 360 0
DWIDTH 6 0
BBX 6 7 0 7
BITMAP
30
78
CC
CC
CC
78
78
ENDCHAR
STARTCHAR F80B
ENCODING 63499
SWIDTH 360 0
DWIDTH 6 0
BBX 4 7 1 7
BITMAP
30
F0
F0
30
30
30
30
ENDCHAR
STARTCHAR F80C
ENCODING 63500
SWIDTH 360 0
DWIDTH 6 0
BBX 5 7 0 7
BITMAP
70
F8
18
38
70
78
78
ENDCHAR
STARTCHAR F80D
ENCODING 63501
SWIDTH 360 0
DWIDTH 6 0
BBX 5 7 0 7
BITMAP
70
78
18
38
18
58
F8
ENDCHAR
STARTCHAR F80E
ENCODING 63502
SWIDTH 360 0
DWIDTH 6 0
BBX 6 7 0 7
BITMAP
18
38
38
58
FC
FC
18
ENDCHAR
STARTCHAR F80F
ENCODING 63503
SWIDTH 360 0
DWIDTH 6 0
BBX 5 7 0 7
BITMAP
78
78
60
78
18
58
F8
ENDCHAR
STARTCHAR F810
ENCODING 63504
SWIDTH 360 0
DWIDTH 6 0
BBX 5 7 1 7
BITMAP
30
70
C0
F0
98
D8
F0
ENDCHAR
STARTCHAR F811
ENCODING 63505
SWIDTH 360 0
DWIDTH 6 0
BBX 6 7 0 7
BITMAP
FC
FC
18
10
30
30
30
ENDCHAR
STARTCHAR F812
ENCODING 63506
SWIDTH 360 0
DWIDTH 6 0
BBX 6 7 0 7
BITMAP
38
78
48
78
CC
CC
78
ENDCHAR
STARTCHAR F813
ENCODING 63507
SWIDTH 360 0
DWIDTH 6 0
BBX 5 7 1 7
BITMAP
60
F0
98
F8
10
F0
E0
ENDCHAR
STARTCHAR F814
ENCODING 63508
SWIDTH 360 0
DWIDTH 6 0
BBX 6 7 0 -2
BITMAP
30
78
CC
CC
CC
78
78
ENDCHAR
STARTCHAR F815
ENCODING 63509
SWIDTH 360 0
DWIDTH 6 0
BBX 4 7 1 -2
BITMAP
30
F0
F0
30
30
30
30
ENDCHAR
STARTCHAR F816
ENCODING 63510
SWIDTH 360 0
DWIDTH 6 0
BBX 5 7 0 -2
BITMAP
70
F8
18
38
70
78
78
ENDCHAR
STARTCHAR F817
ENCODING 63511
SWIDTH 360 0
DWIDTH 6 0
BBX 5 7 0 -2
BITMAP
70
78
18
38
18
58
F8
ENDCHAR
STARTCHAR F818
ENCODING 63512
SWIDTH 360 0
DWIDTH 6 0
BBX 6 7 0 -2
BITMAP
18
38
38
58
FC
FC
18
ENDCHAR
STARTCHAR F819
ENCODING 63513
SWIDTH 360 0
DWIDTH 6 0
BBX 5 7 0 -2
BITMAP
78
78
60
78
18
58
F8
ENDCHAR
STARTCHAR F81A
ENCODING 63514
SWIDTH 360 0
DWIDTH 6 0
BBX 5 7 1 -2
BITMAP
30
70
C0
F0
98
D8
F0
ENDCHAR
STARTCHAR F81B
ENCODING 63515
SWIDTH 360 0
DWIDTH 6 0
BBX 6 7 0 -2
BITMAP
FC
FC
18
10
30
30
30
ENDCHAR
STARTCHAR F81C
ENCODING 63516
SWIDTH 360 0
DWIDTH 6 0
BBX 6 7 0 -2
BITMAP
38
78
48
78
4C
CC
78
ENDCHAR
STARTCHAR F81D
ENCODING 63517
SWIDTH 360 0
DWIDTH 6 0
BBX 5 7 1 -2
BITMAP
60
F0
98
F8
10
F0
E0
ENDCHAR
STARTCHAR FB00
ENCODING 64256
SWIDTH 840 0
DWIDTH 14 0
BBX 13 13 1 0
BITMAP
3C78
7CF8
E1C0
E1C0
FDF8
FDF8
E1C0
E1C0
E1C0
E1C0
E1C0
E1C0
E1C0
ENDCHAR
STARTCHAR FB01
ENCODING 64257
SWIDTH 720 0
DWIDTH 12 0
BBX 10 13 1 0
BITMAP
3C80
7DC0
E1C0
E000
FDC0
FDC0
E1C0
E1C0
E1C0
E1C0
E1C0
E1C0
E1C0
ENDCHAR
STARTCHAR FB02
ENCODING 64258
SWIDTH 720 0
DWIDTH 12 0
BBX 11 13 1 0
BITMAP
3DC0
7DC0
E1C0
E1C0
FDC0
FDC0
E1C0
E1C0
E1C0
E1C0
E1C0
E1E0
E0E0
ENDCHAR
STARTCHAR FB03
ENCODING 64259
SWIDTH 1140 0
DWIDTH 19 0
BBX 17 13 1 0
BITMAP
3C7B00
7CFB80
E1C380
E1C000
FDFB80
FDFB80
E1C380
E1C380
E1C380
E1C380
E1C380
E1C380
E1C380
ENDCHAR
STARTCHAR FB04
ENCODING 64260
SWIDTH 1140 0
DWIDTH 19 0
BBX 18 13 1 0
BITMAP
3C7B80
7CFB80
E1C380
E1C380
FDFB80
FDFB80
E1C380
E1C380
E1C380
E1C380
E1C380
E1C3C0
E1C1C0
ENDCHAR
ENDFONT
